SpaceGrotesk-Bold.ufo
<glyph name="exclam" format="2">
  <advance width="298"/>
  <unicode hex="0021"/>
  <outline>
    <component base="period"/>
    <contour>
      <point x="213" y="230" type="line"/>
      <point x="213" y="700" type="line"/>
      <point x="85" y="700" type="line"/>
      <point x="85" y="230" type="line"/>
    </contour>
  </outline>
</glyph>
<glyph name="numbersign" format="2">
  <advance width="636"/>
  <unicode hex="0023"/>
  <outline>
    <contour>
      <point x="262" y="0" type="line"/>
      <point x="262" y="186" type="line"/>
      <point x="374" y="186" type="line"/>
      <point x="374" y="0" type="line"/>
      <point x="488" y="0" type="line"/>
      <point x="488" y="186" type="line"/>
      <point x="596" y="186" type="line"/>
      <point x="596" y="294" type="line"/>
      <point x="488" y="294" type="line"/>
      <point x="488" y="406" type="line"/>
      <point x="596" y="406" type="line"/>
      <point x="596" y="514" type="line"/>
      <point x="488" y="514" type="line"/>
      <point x="488" y="700" type="line"/>
      <point x="374" y="700" type="line"/>
      <point x="374" y="514" type="line"/>
      <point x="262" y="514" type="line"/>
      <point x="262" y="700" type="line"/>
      <point x="148" y="700" type="line"/>
      <point x="148" y="514" type="line"/>
      <point x="40" y="514" type="line"/>
      <point x="40" y="406" type="line"/>
      <point x="148" y="406" type="line"/>
      <point x="148" y="294" type="line"/>
      <point x="40" y="294" type="line"/>
      <point x="40" y="186" type="line"/>
      <point x="148" y="186" type="line"/>
      <point x="148" y="0" type="line"/>
    </contour>
    <contour>
      <point x="262" y="406" type="line"/>
      <point x="374" y="406" type="line"/>
      <point x="374" y="294" type="line"/>
      <point x="262" y="294" type="line"/>
    </contour>
  </outline>
</glyph>
<glyph name="dollar" format="2">
  <advance width="606"/>
  <unicode hex="0024"/>
  <outline>
    <contour>
      <point x="309" y="-14" type="curve" smooth="yes"/>
      <point x="471" y="-14"/>
      <point x="574" y="74"/>
      <point x="574" y="202" type="curve" smooth="yes"/>
      <point x="574" y="330"/>
      <point x="477" y="382"/>
      <point x="328" y="414" type="curve" smooth="yes"/>
      <point x="305" y="419" type="line" smooth="yes"/>
      <point x="221" y="437"/>
      <point x="182" y="462"/>
      <point x="182" y="514" type="curve" smooth="yes"/>
      <point x="182" y="566"/>
      <point x="219" y="598"/>
      <point x="299" y="598" type="curve" smooth="yes"/>
      <point x="379" y="598"/>
      <point x="428" y="566"/>
      <point x="428" y="486" type="curve" smooth="yes"/>
      <point x="428" y="456" type="line"/>
      <point x="558" y="456" type="line"/>
      <point x="558" y="486" type="line" smooth="yes"/>
      <point x="558" y="638"/>
      <point x="449" y="714"/>
      <point x="299" y="714" type="curve" smooth="yes"/>
      <point x="149" y="714"/>
      <point x="52" y="638"/>
      <point x="52" y="510" type="curve" smooth="yes"/>
      <point x="52" y="382"/>
      <point x="137" y="333"/>
      <point x="282" y="301" type="curve" smooth="yes"/>
      <point x="305" y="296" type="line" smooth="yes"/>
      <point x="395" y="276"/>
      <point x="444" y="256"/>
      <point x="444" y="198" type="curve" smooth="yes"/>
      <point x="444" y="142"/>
      <point x="399" y="102"/>
      <point x="309" y="102" type="curve" smooth="yes"/>
      <point x="219" y="102"/>
      <point x="164" y="144"/>
      <point x="164" y="228" type="curve" smooth="yes"/>
      <point x="164" y="256" type="line"/>
      <point x="34" y="256" type="line"/>
      <point x="34" y="228" type="line" smooth="yes"/>
      <point x="34" y="76"/>
      <point x="147" y="-14"/>
    </contour>
    <contour>
      <point x="368" y="-116" type="line"/>
      <point x="368" y="816" type="line"/>
      <point x="248" y="816" type="line"/>
      <point x="248" y="-116" type="line"/>
    </contour>
  </outline>
</glyph>
<glyph name="percent" format="2">
  <advance width="758"/>
  <unicode hex="0025"/>
  <outline>
    <contour>
      <point x="686" y="652" type="line"/>
      <point x="610" y="713" type="line"/>
      <point x="72" y="48" type="line"/>
      <point x="148" y="-13" type="line"/>
    </contour>
    <contour>
      <point x="570" y="-10" type="curve" smooth="yes"/>
      <point x="671" y="-10"/>
      <point x="732" y="47"/>
      <point x="732" y="141" type="curve" smooth="yes"/>
      <point x="732" y="148" type="line" smooth="yes"/>
      <point x="732" y="242"/>
      <point x="668" y="300"/>
      <point x="570" y="300" type="curve" smooth="yes"/>
      <point x="469" y="300"/>
      <point x="408" y="242"/>
      <point x="408" y="148" type="curve" smooth="yes"/>
      <point x="408" y="141" type="line" smooth="yes"/>
      <point x="408" y="47"/>
      <point x="469" y="-10"/>
    </contour>
    <contour>
      <point x="570" y="72" type="curve" smooth="yes"/>
      <point x="531" y="72"/>
      <point x="508" y="98"/>
      <point x="508" y="137" type="curve" smooth="yes"/>
      <point x="508" y="153" type="line" smooth="yes"/>
      <point x="508" y="192"/>
      <point x="531" y="218"/>
      <point x="570" y="218" type="curve" smooth="yes"/>
      <point x="609" y="218"/>
      <point x="632" y="192"/>
      <point x="632" y="153" type="curve" smooth="yes"/>
      <point x="632" y="137" type="line" smooth="yes"/>
      <point x="632" y="98"/>
      <point x="609" y="72"/>
    </contour>
    <contour>
      <point x="188" y="400" type="curve" smooth="yes"/>
      <point x="289" y="400"/>
      <point x="350" y="457"/>
      <point x="350" y="551" type="curve" smooth="yes"/>
      <point x="350" y="558" type="line" smooth="yes"/>
      <point x="350" y="652"/>
      <point x="286" y="710"/>
      <point x="188" y="710" type="curve" smooth="yes"/>
      <point x="87" y="710"/>
      <point x="26" y="652"/>
      <point x="26" y="558" type="curve" smooth="yes"/>
      <point x="26" y="551" type="line" smooth="yes"/>
      <point x="26" y="457"/>
      <point x="87" y="400"/>
    </contour>
    <contour>
      <point x="188" y="482" type="curve" smooth="yes"/>
      <point x="149" y="482"/>
      <point x="126" y="508"/>
      <point x="126" y="547" type="curve" smooth="yes"/>
      <point x="126" y="563" type="line" smooth="yes"/>
      <point x="126" y="602"/>
      <point x="149" y="628"/>
      <point x="188" y="628" type="curve" smooth="yes"/>
      <point x="227" y="628"/>
      <point x="250" y="602"/>
      <point x="250" y="563" type="curve" smooth="yes"/>
      <point x="250" y="547" type="line" smooth="yes"/>
      <point x="250" y="508"/>
      <point x="227" y="482"/>
    </contour>
  </outline>
</glyph>
<glyph name="ampersand" format="2">
  <advance width="591"/>
  <unicode hex="0026"/>
  <outline>
    <contour>
      <point x="485" y="0" type="line"/>
      <point x="485" y="302" type="line"/>
      <point x="577" y="302" type="line"/>
      <point x="577" y="406" type="line"/>
      <point x="485" y="406" type="line"/>
      <point x="485" y="496" type="line"/>
      <point x="359" y="496" type="line"/>
      <point x="359" y="406" type="line"/>
      <point x="262" y="406" type="line" smooth="yes"/>
      <point x="206" y="406"/>
      <point x="158" y="434"/>
      <point x="158" y="501" type="curve" smooth="yes"/>
      <point x="158" y="564"/>
      <point x="202" y="596"/>
      <point x="262" y="596" type="curve" smooth="yes"/>
      <point x="348" y="596" type="line"/>
      <point x="348" y="700" type="line"/>
      <point x="239" y="700" type="line" smooth="yes"/>
      <point x="119" y="700"/>
      <point x="32" y="634"/>
      <point x="32" y="512" type="curve" smooth="yes"/>
      <point x="32" y="430"/>
      <point x="79" y="382"/>
      <point x="146" y="362" type="curve"/>
      <point x="146" y="348" type="line"/>
      <point x="79" y="328"/>
      <point x="28" y="274"/>
      <point x="28" y="189" type="curve" smooth="yes"/>
      <point x="28" y="71"/>
      <point x="111" y="0"/>
      <point x="235" y="0" type="curve" smooth="yes"/>
    </contour>
    <contour>
      <point x="258" y="104" type="line" smooth="yes"/>
      <point x="203" y="104"/>
      <point x="154" y="136"/>
      <point x="154" y="203" type="curve" smooth="yes"/>
      <point x="154" y="268"/>
      <point x="199" y="302"/>
      <point x="258" y="302" type="curve" smooth="yes"/>
      <point x="359" y="302" type="line"/>
      <point x="359" y="104" type="line"/>
    </contour>
  </outline>
</glyph>
<glyph name="parenleft" format="2">
  <advance width="398"/>
  <unicode hex="0028"/>
  <outline>
    <contour>
      <point x="390" y="-138" type="line"/>
      <point x="244" y="-138"/>
      <point x="172" y="-57"/>
      <point x="172" y="120" type="curve" smooth="yes"/>
      <point x="172" y="390" type="line" smooth="yes"/>
      <point x="172" y="567"/>
      <point x="244" y="648"/>
      <point x="390" y="648" type="curve"/>
      <point x="390" y="756" type="line"/>
      <point x="167" y="756"/>
      <point x="50" y="642"/>
      <point x="50" y="394" type="curve" smooth="yes"/>
      <point x="50" y="116" type="line" smooth="yes"/>
      <point x="50" y="-132"/>
      <point x="167" y="-246"/>
      <point x="390" y="-246" type="curve"/>
    </contour>
  </outline>
</glyph>
<glyph name="parenright" format="2">
  <advance width="390"/>
  <unicode hex="0029"/>
  <outline>
    <contour>
      <point x="0" y="-246" type="line"/>
      <point x="223" y="-246"/>
      <point x="340" y="-132"/>
      <point x="340" y="116" type="curve" smooth="yes"/>
      <point x="340" y="394" type="line" smooth="yes"/>
      <point x="340" y="642"/>
      <point x="223" y="756"/>
      <point x="0" y="756" type="curve"/>
      <point x="0" y="648" type="line"/>
      <point x="146" y="648"/>
      <point x="218" y="567"/>
      <point x="218" y="390" type="curve" smooth="yes"/>
      <point x="218" y="120" type="line" smooth="yes"/>
      <point x="218" y="-57"/>
      <point x="146" y="-138"/>
      <point x="0" y="-138" type="curve"/>
    </contour>
  </outline>
</glyph>
<glyph name="asterisk" format="2">
  <advance width="540"/>
  <unicode hex="002A"/>
  <outline>
    <contour>
      <point x="122" y="437" type="line"/>
      <point x="194" y="450" type="line"/>
      <point x="199" y="437" type="line"/>
      <point x="139" y="396" type="line"/>
      <point x="84" y="340" type="line"/>
      <point x="136" y="288" type="line"/>
      <point x="192" y="343" type="line"/>
      <point x="233" y="403" type="line"/>
      <point x="246" y="398" type="line"/>
      <point x="233" y="326" type="line"/>
      <point x="233" y="248" type="line"/>
      <point x="307" y="248" type="line"/>
      <point x="307" y="326" type="line"/>
      <point x="294" y="398" type="line"/>
      <point x="307" y="403" type="line"/>
      <point x="348" y="343" type="line"/>
      <point x="404" y="288" type="line"/>
      <point x="456" y="340" type="line"/>
      <point x="401" y="396" type="line"/>
      <point x="341" y="437" type="line"/>
      <point x="346" y="450" type="line"/>
      <point x="418" y="437" type="line"/>
      <point x="496" y="437" type="line"/>
      <point x="496" y="511" type="line"/>
      <point x="418" y="511" type="line"/>
      <point x="346" y="498" type="line"/>
      <point x="341" y="511" type="line"/>
      <point x="401" y="552" type="line"/>
      <point x="456" y="608" type="line"/>
      <point x="404" y="660" type="line"/>
      <point x="348" y="605" type="line"/>
      <point x="307" y="545" type="line"/>
      <point x="294" y="550" type="line"/>
      <point x="307" y="622" type="line"/>
      <point x="307" y="700" type="line"/>
      <point x="233" y="700" type="line"/>
      <point x="233" y="622" type="line"/>
      <point x="246" y="550" type="line"/>
      <point x="233" y="545" type="line"/>
      <point x="192" y="605" type="line"/>
      <point x="136" y="660" type="line"/>
      <point x="84" y="608" type="line"/>
      <point x="139" y="552" type="line"/>
      <point x="199" y="511" type="line"/>
      <point x="194" y="498" type="line"/>
      <point x="122" y="511" type="line"/>
      <point x="44" y="511" type="line"/>
      <point x="44" y="437" type="line"/>
    </contour>
  </outline>
</glyph>
<glyph name="plus" format="2">
  <advance width="620"/>
  <unicode hex="002B"/>
  <outline>
    <contour>
      <point x="369" y="141" type="line"/>
      <point x="369" y="293" type="line"/>
      <point x="519" y="293" type="line"/>
      <point x="519" y="407" type="line"/>
      <point x="369" y="407" type="line"/>
      <point x="369" y="559" type="line"/>
      <point x="251" y="559" type="line"/>
      <point x="251" y="407" type="line"/>
      <point x="101" y="407" type="line"/>
      <point x="101" y="293" type="line"/>
      <point x="251" y="293" type="line"/>
      <point x="251" y="141" type="line"/>
    </contour>
  </outline>
</glyph>
<glyph name="comma" format="2">
  <advance width="294"/>
  <unicode hex="002C"/>
  <outline>
    <contour>
      <point x="128" y="-147" type="line" smooth="yes"/>
      <point x="202" y="-147"/>
      <point x="240" y="-109"/>
      <point x="240" y="-35" type="curve" smooth="yes"/>
      <point x="240" y="80" type="line" smooth="yes"/>
      <point x="240" y="137"/>
      <point x="201" y="174"/>
      <point x="147" y="174" type="curve" smooth="yes"/>
      <point x="93" y="174"/>
      <point x="54" y="137"/>
      <point x="54" y="84" type="curve" smooth="yes"/>
      <point x="54" y="35"/>
      <point x="93" y="-1"/>
      <point x="147" y="-1" type="curve" smooth="yes"/>
      <point x="164" y="-1" type="line"/>
      <point x="164" y="-33" type="line" smooth="yes"/>
      <point x="164" y="-65"/>
      <point x="150" y="-79"/>
      <point x="118" y="-79" type="curve" smooth="yes"/>
      <point x="79" y="-79" type="line"/>
      <point x="79" y="-147" type="line"/>
    </contour>
  </outline>
</glyph>
<glyph name="hyphen" format="2">
  <advance width="432"/>
  <unicode hex="002D"/>
  <outline>
    <contour>
      <point x="364" y="198" type="line"/>
      <point x="364" y="312" type="line"/>
      <point x="68" y="312" type="line"/>
      <point x="68" y="198" type="line"/>
    </contour>
  </outline>
</glyph>
<glyph name="period" format="2">
  <advance width="298"/>
  <unicode hex="002E"/>
  <outline>
    <contour>
      <point x="149" y="-14" type="curve" smooth="yes"/>
      <point x="203" y="-14"/>
      <point x="244" y="25"/>
      <point x="244" y="81" type="curve" smooth="yes"/>
      <point x="244" y="137"/>
      <point x="203" y="176"/>
      <point x="149" y="176" type="curve" smooth="yes"/>
      <point x="95" y="176"/>
      <point x="54" y="137"/>
      <point x="54" y="81" type="curve" smooth="yes"/>
      <point x="54" y="25"/>
      <point x="95" y="-14"/>
    </contour>
  </outline>
</glyph>
<glyph name="slash" format="2">
  <advance width="388"/>
  <unicode hex="002F"/>
  <outline>
    <contour>
      <point x="110" y="-200" type="line"/>
      <point x="404" y="700" type="line"/>
      <point x="278" y="700" type="line"/>
      <point x="-16" y="-200" type="line"/>
    </contour>
  </outline>
</glyph>
<glyph name="zero" format="2">
  <advance width="648"/>
  <unicode hex="0030"/>
  <outline>
    <contour>
      <point x="324" y="-14" type="curve" smooth="yes"/>
      <point x="490" y="-14"/>
      <point x="598" y="76"/>
      <point x="598" y="262" type="curve" smooth="yes"/>
      <point x="598" y="438" type="line" smooth="yes"/>
      <point x="598" y="618"/>
      <point x="490" y="714"/>
      <point x="324" y="714" type="curve" smooth="yes"/>
      <point x="158" y="714"/>
      <point x="50" y="618"/>
      <point x="50" y="438" type="curve" smooth="yes"/>
      <point x="50" y="262" type="line" smooth="yes"/>
      <point x="50" y="76"/>
      <point x="158" y="-14"/>
    </contour>
    <contour>
      <point x="324" y="100" type="curve" smooth="yes"/>
      <point x="227" y="100"/>
      <point x="178" y="153"/>
      <point x="178" y="258" type="curve" smooth="yes"/>
      <point x="178" y="444" type="line" smooth="yes"/>
      <point x="178" y="543"/>
      <point x="232" y="600"/>
      <point x="324" y="600" type="curve" smooth="yes"/>
      <point x="413" y="600"/>
      <point x="470" y="547"/>
      <point x="470" y="444" type="curve" smooth="yes"/>
      <point x="470" y="258" type="line" smooth="yes"/>
      <point x="470" y="157"/>
      <point x="424" y="100"/>
    </contour>
  </outline>
</glyph>
<glyph name="one" format="2">
  <advance width="452"/>
  <unicode hex="0031"/>
  <outline>
    <contour>
      <point x="386" y="0" type="line"/>
      <point x="386" y="700" type="line"/>
      <point x="155" y="700" type="line"/>
      <point x="12" y="384" type="line"/>
      <point x="146" y="384" type="line"/>
      <point x="240" y="606" type="line"/>
      <point x="258" y="606" type="line"/>
      <point x="258" y="0" type="line"/>
    </contour>
  </outline>
</glyph>
<glyph name="two" format="2">
  <advance width="594"/>
  <unicode hex="0032"/>
  <outline>
    <contour>
      <point x="550" y="0" type="line"/>
      <point x="550" y="114" type="line"/>
      <point x="173" y="114" type="line"/>
      <point x="173" y="118" type="line" smooth="yes"/>
      <point x="173" y="169"/>
      <point x="197" y="198"/>
      <point x="283" y="225" type="curve" smooth="yes"/>
      <point x="347" y="245" type="line" smooth="yes"/>
      <point x="466" y="282"/>
      <point x="556" y="348"/>
      <point x="556" y="483" type="curve" smooth="yes"/>
      <point x="556" y="493" type="line" smooth="yes"/>
      <point x="556" y="627"/>
      <point x="445" y="714"/>
      <point x="301" y="714" type="curve" smooth="yes"/>
      <point x="157" y="714"/>
      <point x="44" y="627"/>
      <point x="44" y="476" type="curve" smooth="yes"/>
      <point x="44" y="460" type="line"/>
      <point x="172" y="460" type="line"/>
      <point x="172" y="478" type="line" smooth="yes"/>
      <point x="172" y="557"/>
      <point x="223" y="600"/>
      <point x="301" y="600" type="curve" smooth="yes"/>
      <point x="379" y="600"/>
      <point x="428" y="557"/>
      <point x="428" y="491" type="curve" smooth="yes"/>
      <point x="428" y="487" type="line" smooth="yes"/>
      <point x="428" y="423"/>
      <point x="387" y="381"/>
      <point x="314" y="358" type="curve" smooth="yes"/>
      <point x="247" y="337" type="line" smooth="yes"/>
      <point x="115" y="296"/>
      <point x="42" y="230"/>
      <point x="42" y="84" type="curve" smooth="yes"/>
      <point x="42" y="0" type="line"/>
    </contour>
  </outline>
</glyph>
<glyph name="three" format="2">
  <advance width="608"/>
  <unicode hex="0033"/>
  <outline>
    <contour>
      <point x="304" y="-14" type="curve" smooth="yes"/>
      <point x="462" y="-14"/>
      <point x="568" y="73"/>
      <point x="568" y="210" type="curve" smooth="yes"/>
      <point x="568" y="222" type="line" smooth="yes"/>
      <point x="568" y="348"/>
      <point x="467" y="402"/>
      <point x="374" y="402" type="curve" smooth="yes"/>
      <point x="337" y="402" type="line"/>
      <point x="337" y="418" type="line"/>
      <point x="548" y="530" type="line"/>
      <point x="548" y="700" type="line"/>
      <point x="52" y="700" type="line"/>
      <point x="52" y="586" type="line"/>
      <point x="406" y="586" type="line"/>
      <point x="406" y="570" type="line"/>
      <point x="180" y="450" type="line"/>
      <point x="180" y="310" type="line"/>
      <point x="320" y="310" type="line" smooth="yes"/>
      <point x="388" y="310"/>
      <point x="440" y="283"/>
      <point x="440" y="219" type="curve" smooth="yes"/>
      <point x="440" y="209" type="line" smooth="yes"/>
      <point x="440" y="146"/>
      <point x="390" y="100"/>
      <point x="304" y="100" type="curve" smooth="yes"/>
      <point x="218" y="100"/>
      <point x="162" y="148"/>
      <point x="162" y="223" type="curve" smooth="yes"/>
      <point x="162" y="237" type="line"/>
      <point x="34" y="237" type="line"/>
      <point x="34" y="219" type="line" smooth="yes"/>
      <point x="34" y="75"/>
      <point x="146" y="-14"/>
    </contour>
  </outline>
</glyph>
<glyph name="four" format="2">
  <advance width="636"/>
  <unicode hex="0034"/>
  <outline>
    <contour>
      <point x="498" y="0" type="line"/>
      <point x="498" y="142" type="line"/>
      <point x="614" y="142" type="line"/>
      <point x="614" y="256" type="line"/>
      <point x="498" y="256" type="line"/>
      <point x="498" y="700" type="line"/>
      <point x="268" y="700" type="line"/>
      <point x="26" y="290" type="line"/>
      <point x="26" y="142" type="line"/>
      <point x="370" y="142" type="line"/>
      <point x="370" y="0" type="line"/>
    </contour>
    <contour>
      <point x="148" y="272" type="line"/>
      <point x="352" y="618" type="line"/>
      <point x="370" y="618" type="line"/>
      <point x="370" y="256" type="line"/>
      <point x="148" y="256" type="line"/>
    </contour>
  </outline>
</glyph>
<glyph name="five" format="2">
  <advance width="600"/>
  <unicode hex="0035"/>
  <outline>
    <contour>
      <point x="303" y="-14" type="curve" smooth="yes"/>
      <point x="467" y="-14"/>
      <point x="566" y="79"/>
      <point x="566" y="227" type="curve" smooth="yes"/>
      <point x="566" y="239" type="line" smooth="yes"/>
      <point x="566" y="386"/>
      <point x="464" y="466"/>
      <point x="341" y="466" type="curve" smooth="yes"/>
      <point x="266" y="466"/>
      <point x="225" y="438"/>
      <point x="206" y="413" type="curve"/>
      <point x="188" y="413" type="line"/>
      <point x="188" y="584" type="line"/>
      <point x="538" y="584" type="line"/>
      <point x="538" y="700" type="line"/>
      <point x="60" y="700" type="line"/>
      <point x="60" y="308" type="line"/>
      <point x="215" y="308" type="line"/>
      <point x="230" y="332"/>
      <point x="256" y="360"/>
      <point x="314" y="360" type="curve" smooth="yes"/>
      <point x="385" y="360"/>
      <point x="438" y="312"/>
      <point x="438" y="238" type="curve" smooth="yes"/>
      <point x="438" y="228" type="line" smooth="yes"/>
      <point x="438" y="152"/>
      <point x="389" y="100"/>
      <point x="301" y="100" type="curve" smooth="yes"/>
      <point x="213" y="100"/>
      <point x="168" y="154"/>
      <point x="168" y="221" type="curve" smooth="yes"/>
      <point x="168" y="230" type="line"/>
      <point x="38" y="230" type="line"/>
      <point x="38" y="220" type="line" smooth="yes"/>
      <point x="38" y="79"/>
      <point x="139" y="-14"/>
    </contour>
  </outline>
</glyph>
<glyph name="six" format="2">
  <advance width="618"/>
  <unicode hex="0036"/>
  <outline>
    <contour>
      <point x="312" y="-14" type="curve" smooth="yes"/>
      <point x="472" y="-14"/>
      <point x="578" y="80"/>
      <point x="578" y="219" type="curve" smooth="yes"/>
      <point x="578" y="231" type="line" smooth="yes"/>
      <point x="578" y="371"/>
      <point x="471" y="452"/>
      <point x="350" y="452" type="curve" smooth="yes"/>
      <point x="260" y="452"/>
      <point x="219" y="423"/>
      <point x="196" y="396" type="curve"/>
      <point x="178" y="396" type="line"/>
      <point x="178" y="468" type="line" smooth="yes"/>
      <point x="178" y="550"/>
      <point x="228" y="600"/>
      <point x="318" y="600" type="curve" smooth="yes"/>
      <point x="408" y="600"/>
      <point x="444" y="552"/>
      <point x="444" y="496" type="curve"/>
      <point x="574" y="496" type="line"/>
      <point x="574" y="632"/>
      <point x="474" y="714"/>
      <point x="318" y="714" type="curve" smooth="yes"/>
      <point x="162" y="714"/>
      <point x="50" y="630"/>
      <point x="50" y="460" type="curve" smooth="yes"/>
      <point x="50" y="221" type="line" smooth="yes"/>
      <point x="50" y="83"/>
      <point x="152" y="-14"/>
    </contour>
    <contour>
      <point x="314" y="100" type="curve" smooth="yes"/>
      <point x="230" y="100"/>
      <point x="178" y="147"/>
      <point x="178" y="221" type="curve" smooth="yes"/>
      <point x="178" y="229" type="line" smooth="yes"/>
      <point x="178" y="303"/>
      <point x="231" y="350"/>
      <point x="314" y="350" type="curve" smooth="yes"/>
      <point x="397" y="350"/>
      <point x="450" y="303"/>
      <point x="450" y="229" type="curve" smooth="yes"/>
      <point x="450" y="221" type="line" smooth="yes"/>
      <point x="450" y="147"/>
      <point x="398" y="100"/>
    </contour>
  </outline>
</glyph>
<glyph name="seven" format="2">
  <advance width="554"/>
  <unicode hex="0037"/>
  <outline>
    <contour>
      <point x="259" y="0" type="line"/>
      <point x="259" y="20" type="line" smooth="yes"/>
      <point x="259" y="55"/>
      <point x="265" y="74"/>
      <point x="282" y="105" type="curve" smooth="yes"/>
      <point x="530" y="548" type="line"/>
      <point x="530" y="700" type="line"/>
      <point x="26" y="700" type="line"/>
      <point x="26" y="586" type="line"/>
      <point x="398" y="586" type="line"/>
      <point x="398" y="570" type="line"/>
      <point x="163" y="155" type="line" smooth="yes"/>
      <point x="136" y="108"/>
      <point x="131" y="78"/>
      <point x="131" y="26" type="curve" smooth="yes"/>
      <point x="131" y="0" type="line"/>
    </contour>
  </outline>
</glyph>
<glyph name="nine" format="2">
  <advance width="618"/>
  <unicode hex="0039"/>
  <outline>
    <contour>
      <point x="300" y="-14" type="curve" smooth="yes"/>
      <point x="456" y="-14"/>
      <point x="568" y="70"/>
      <point x="568" y="240" type="curve" smooth="yes"/>
      <point x="568" y="479" type="line" smooth="yes"/>
      <point x="568" y="617"/>
      <point x="466" y="714"/>
      <point x="306" y="714" type="curve" smooth="yes"/>
      <point x="146" y="714"/>
      <point x="40" y="620"/>
      <point x="40" y="481" type="curve" smooth="yes"/>
      <point x="40" y="469" type="line" smooth="yes"/>
      <point x="40" y="329"/>
      <point x="147" y="248"/>
      <point x="268" y="248" type="curve" smooth="yes"/>
      <point x="358" y="248"/>
      <point x="399" y="277"/>
      <point x="422" y="304" type="curve"/>
      <point x="440" y="304" type="line"/>
      <point x="440" y="232" type="line" smooth="yes"/>
      <point x="440" y="150"/>
      <point x="390" y="100"/>
      <point x="300" y="100" type="curve" smooth="yes"/>
      <point x="210" y="100"/>
      <point x="174" y="148"/>
      <point x="174" y="204" type="curve"/>
      <point x="44" y="204" type="line"/>
      <point x="44" y="68"/>
      <point x="144" y="-14"/>
    </contour>
    <contour>
      <point x="304" y="350" type="curve" smooth="yes"/>
      <point x="221" y="350"/>
      <point x="168" y="397"/>
      <point x="168" y="471" type="curve" smooth="yes"/>
      <point x="168" y="479" type="line" smooth="yes"/>
      <point x="168" y="553"/>
      <point x="220" y="600"/>
      <point x="304" y="600" type="curve" smooth="yes"/>
      <point x="388" y="600"/>
      <point x="440" y="553"/>
      <point x="440" y="479" type="curve" smooth="yes"/>
      <point x="440" y="471" type="line" smooth="yes"/>
      <point x="440" y="397"/>
      <point x="387" y="350"/>
    </contour>
  </outline>
</glyph>
<glyph name="less" format="2">
  <advance width="620"/>
  <unicode hex="003C"/>
  <outline>
    <contour>
      <point x="520" y="250" type="line"/>
      <point x="222" y="341" type="line"/>
      <point x="222" y="359" type="line"/>
      <point x="520" y="450" type="line"/>
      <point x="520" y="570" type="line"/>
      <point x="100" y="428" type="line"/>
      <point x="100" y="272" type="line"/>
      <point x="520" y="130" type="line"/>
    </contour>
  </outline>
</glyph>
<glyph name="equal" format="2">
  <advance width="620"/>
  <unicode hex="003D"/>
  <outline>
    <contour>
      <point x="519" y="380" type="line"/>
      <point x="519" y="494" type="line"/>
      <point x="101" y="494" type="line"/>
      <point x="101" y="380" type="line"/>
    </contour>
    <contour>
      <point x="519" y="206" type="line"/>
      <point x="519" y="320" type="line"/>
      <point x="101" y="320" type="line"/>
      <point x="101" y="206" type="line"/>
    </contour>
  </outline>
</glyph>
<glyph name="greater" format="2">
  <advance width="620"/>
  <unicode hex="003E"/>
  <outline>
    <contour>
      <point x="520" y="272" type="line"/>
      <point x="520" y="428" type="line"/>
      <point x="100" y="570" type="line"/>
      <point x="100" y="450" type="line"/>
      <point x="398" y="359" type="line"/>
      <point x="398" y="341" type="line"/>
      <point x="100" y="250" type="line"/>
      <point x="100" y="130" type="line"/>
    </contour>
  </outline>
</glyph>
<glyph name="question" format="2">
  <advance width="578"/>
  <unicode hex="003F"/>
  <outline>
    <component base="period" xOffset="130"/>
    <contour>
      <point x="341" y="230" type="line"/>
      <point x="341" y="248" type="line" smooth="yes"/>
      <point x="341" y="277"/>
      <point x="349" y="290"/>
      <point x="373" y="301" type="curve" smooth="yes"/>
      <point x="390" y="309" type="line" smooth="yes"/>
      <point x="460" y="342"/>
      <point x="536" y="390"/>
      <point x="536" y="510" type="curve" smooth="yes"/>
      <point x="536" y="630"/>
      <point x="432" y="714"/>
      <point x="290" y="714" type="curve" smooth="yes"/>
      <point x="146" y="714"/>
      <point x="34" y="630"/>
      <point x="34" y="492" type="curve" smooth="yes"/>
      <point x="34" y="472" type="line"/>
      <point x="164" y="472" type="line"/>
      <point x="164" y="494" type="line" smooth="yes"/>
      <point x="164" y="566"/>
      <point x="218" y="602"/>
      <point x="290" y="602" type="curve" smooth="yes"/>
      <point x="360" y="602"/>
      <point x="406" y="568"/>
      <point x="406" y="510" type="curve" smooth="yes"/>
      <point x="406" y="456"/>
      <point x="373" y="429"/>
      <point x="313" y="401" type="curve" smooth="yes"/>
      <point x="296" y="393" type="line" smooth="yes"/>
      <point x="234" y="364"/>
      <point x="209" y="322"/>
      <point x="209" y="254" type="curve" smooth="yes"/>
      <point x="209" y="230" type="line"/>
    </contour>
  </outline>
</glyph>
<glyph name="at" format="2">
  <advance width="1014"/>
  <unicode hex="0040"/>
  <outline>
    <contour>
      <point x="740" y="-200" type="line"/>
      <point x="740" y="-86" type="line"/>
      <point x="532" y="-86" type="line" smooth="yes"/>
      <point x="316" y="-86"/>
      <point x="190" y="32"/>
      <point x="190" y="250" type="curve" smooth="yes"/>
      <point x="190" y="266" type="line" smooth="yes"/>
      <point x="190" y="484"/>
      <point x="314" y="600"/>
      <point x="516" y="600" type="curve" smooth="yes"/>
      <point x="530" y="600" type="line" smooth="yes"/>
      <point x="731" y="600"/>
      <point x="828" y="484"/>
      <point x="828" y="294" type="curve" smooth="yes"/>
      <point x="828" y="222" type="line" smooth="yes"/>
      <point x="828" y="149"/>
      <point x="812" y="112"/>
      <point x="773" y="112" type="curve" smooth="yes"/>
      <point x="769" y="112" type="line" smooth="yes"/>
      <point x="746" y="112"/>
      <point x="738" y="123"/>
      <point x="738" y="146" type="curve" smooth="yes"/>
      <point x="738" y="500" type="line"/>
      <point x="616" y="500" type="line"/>
      <point x="616" y="440" type="line"/>
      <point x="598" y="440" type="line"/>
      <point x="577" y="475"/>
      <point x="547" y="506"/>
      <point x="473" y="506" type="curve" smooth="yes"/>
      <point x="355" y="506"/>
      <point x="280" y="398"/>
      <point x="280" y="258" type="curve" smooth="yes"/>
      <point x="280" y="242" type="line" smooth="yes"/>
      <point x="280" y="104"/>
      <point x="357" y="-6"/>
      <point x="483" y="-6" type="curve" smooth="yes"/>
      <point x="556" y="-6"/>
      <point x="590" y="29"/>
      <point x="607" y="72" type="curve"/>
      <point x="625" y="72" type="line"/>
      <point x="625" y="70" type="line"/>
      <point x="625" y="27"/>
      <point x="659" y="0"/>
      <point x="722" y="0" type="curve" smooth="yes"/>
      <point x="780" y="0" type="line" smooth="yes"/>
      <point x="895" y="0"/>
      <point x="952" y="82"/>
      <point x="952" y="222" type="curve" smooth="yes"/>
      <point x="952" y="296" type="line" smooth="yes"/>
      <point x="952" y="546"/>
      <point x="785" y="714"/>
      <point x="534" y="714" type="curve" smooth="yes"/>
      <point x="512" y="714" type="line" smooth="yes"/>
      <point x="236" y="714"/>
      <point x="66" y="544"/>
      <point x="66" y="270" type="curve" smooth="yes"/>
      <point x="66" y="246" type="line" smooth="yes"/>
      <point x="66" y="-28"/>
      <point x="238" y="-200"/>
      <point x="524" y="-200" type="curve" smooth="yes"/>
    </contour>
    <contour>
      <point x="509" y="102" type="curve" smooth="yes"/>
      <point x="444" y="102"/>
      <point x="404" y="156"/>
      <point x="404" y="244" type="curve" smooth="yes"/>
      <point x="404" y="256" type="line" smooth="yes"/>
      <point x="404" y="344"/>
      <point x="444" y="398"/>
      <point x="509" y="398" type="curve" smooth="yes"/>
      <point x="574" y="398"/>
      <point x="616" y="344"/>
      <point x="616" y="256" type="curve" smooth="yes"/>
      <point x="616" y="244" type="line" smooth="yes"/>
      <point x="616" y="156"/>
      <point x="574" y="102"/>
    </contour>
  </outline>
</glyph>
<glyph name="A" format="2">
  <advance width="634"/>
  <unicode hex="0041"/>
  <anchor x="317" y="0" name="bottom"/>
  <anchor x="551" y="0" name="ogonek"/>
  <anchor x="317" y="700" name="top"/>
  <outline>
    <contour>
      <point x="154" y="0" type="line"/>
      <point x="192" y="154" type="line"/>
      <point x="442" y="154" type="line"/>
      <point x="480" y="0" type="line"/>
      <point x="616" y="0" type="line"/>
      <point x="432" y="700" type="line"/>
      <point x="202" y="700" type="line"/>
      <point x="18" y="0" type="line"/>
    </contour>
    <contour>
      <point x="308" y="617" type="line"/>
      <point x="326" y="617" type="line"/>
      <point x="411" y="276" type="line"/>
      <point x="223" y="276" type="line"/>
    </contour>
  </outline>
</glyph>
<glyph name="B" format="2">
  <advance width="664"/>
  <unicode hex="0042"/>
  <anchor x="138" y="350" name="stroke"/>
  <outline>
    <contour>
      <point x="410" y="0" type="line" smooth="yes"/>
      <point x="535" y="0"/>
      <point x="622" y="68"/>
      <point x="622" y="185" type="curve" smooth="yes"/>
      <point x="622" y="195" type="line" smooth="yes"/>
      <point x="622" y="295"/>
      <point x="555" y="334"/>
      <point x="511" y="346" type="curve"/>
      <point x="511" y="364" type="line"/>
      <point x="554" y="377"/>
      <point x="618" y="416"/>
      <point x="618" y="513" type="curve" smooth="yes"/>
      <point x="618" y="523" type="line" smooth="yes"/>
      <point x="618" y="632"/>
      <point x="534" y="700"/>
      <point x="406" y="700" type="curve" smooth="yes"/>
      <point x="46" y="700" type="line"/>
      <point x="46" y="584" type="line"/>
      <point x="138" y="584" type="line"/>
      <point x="138" y="116" type="line"/>
      <point x="46" y="116" type="line"/>
      <point x="46" y="0" type="line"/>
    </contour>
    <contour>
      <point x="270" y="292" type="line"/>
      <point x="394" y="292" type="line" smooth="yes"/>
      <point x="452" y="292"/>
      <point x="490" y="263"/>
      <point x="490" y="211" type="curve" smooth="yes"/>
      <point x="490" y="201" type="line" smooth="yes"/>
      <point x="490" y="149"/>
      <point x="451" y="120"/>
      <point x="394" y="120" type="curve" smooth="yes"/>
      <point x="270" y="120" type="line"/>
    </contour>
    <contour>
      <point x="270" y="580" type="line"/>
      <point x="392" y="580" type="line" smooth="yes"/>
      <point x="448" y="580"/>
      <point x="486" y="551"/>
      <point x="486" y="501" type="curve" smooth="yes"/>
      <point x="486" y="491" type="line" smooth="yes"/>
      <point x="486" y="441"/>
      <point x="447" y="412"/>
      <point x="392" y="412" type="curve" smooth="yes"/>
      <point x="270" y="412" type="line"/>
    </contour>
  </outline>
</glyph>
<glyph name="D" format="2">
  <advance width="666"/>
  <unicode hex="0044"/>
  <anchor x="320" y="0" name="bottom"/>
  <anchor x="138" y="496" name="stroke"/>
  <anchor x="320" y="700" name="top"/>
  <outline>
    <contour>
      <point x="334" y="0" type="line" smooth="yes"/>
      <point x="522" y="0"/>
      <point x="622" y="96"/>
      <point x="622" y="284" type="curve" smooth="yes"/>
      <point x="622" y="416" type="line" smooth="yes"/>
      <point x="622" y="604"/>
      <point x="522" y="700"/>
      <point x="334" y="700" type="curve" smooth="yes"/>
      <point x="46" y="700" type="line"/>
      <point x="46" y="584" type="line"/>
      <point x="138" y="584" type="line"/>
      <point x="138" y="116" type="line"/>
      <point x="46" y="116" type="line"/>
      <point x="46" y="0" type="line"/>
    </contour>
    <contour>
      <point x="270" y="580" type="line"/>
      <point x="336" y="580" type="line" smooth="yes"/>
      <point x="442" y="580"/>
      <point x="490" y="522"/>
      <point x="490" y="420" type="curve" smooth="yes"/>
      <point x="490" y="280" type="line" smooth="yes"/>
      <point x="490" y="178"/>
      <point x="442" y="120"/>
      <point x="336" y="120" type="curve" smooth="yes"/>
      <point x="270" y="120" type="line"/>
    </contour>
  </outline>
</glyph>
<glyph name="E" format="2">
  <advance width="554"/>
  <unicode hex="0045"/>
  <anchor x="294" y="0" name="bottom"/>
  <anchor x="426" y="0" name="ogonek"/>
  <anchor x="296" y="700" name="top"/>
  <outline>
    <contour>
      <point x="522" y="0" type="line"/>
      <point x="522" y="120" type="line"/>
      <point x="198" y="120" type="line"/>
      <point x="198" y="293" type="line"/>
      <point x="488" y="293" type="line"/>
      <point x="488" y="413" type="line"/>
      <point x="198" y="413" type="line"/>
      <point x="198" y="580" type="line"/>
      <point x="516" y="580" type="line"/>
      <point x="516" y="700" type="line"/>
      <point x="66" y="700" type="line"/>
      <point x="66" y="0" type="line"/>
    </contour>
  </outline>
</glyph>
<glyph name="F" format="2">
  <advance width="534"/>
  <unicode hex="0046"/>
  <outline>
    <contour>
      <point x="198" y="0" type="line"/>
      <point x="198" y="291" type="line"/>
      <point x="482" y="291" type="line"/>
      <point x="482" y="411" type="line"/>
      <point x="198" y="411" type="line"/>
      <point x="198" y="580" type="line"/>
      <point x="506" y="580" type="line"/>
      <point x="506" y="700" type="line"/>
      <point x="66" y="700" type="line"/>
      <point x="66" y="0" type="line"/>
    </contour>
  </outline>
</glyph>
<glyph name="G" format="2">
  <advance width="662"/>
  <unicode hex="0047"/>
  <anchor x="336" y="0" name="bottom"/>
  <anchor x="335" y="700" name="top"/>
  <outline>
    <contour>
      <point x="308" y="-14" type="curve" smooth="yes"/>
      <point x="416" y="-14"/>
      <point x="448" y="33"/>
      <point x="462" y="67" type="curve"/>
      <point x="480" y="67" type="line"/>
      <point x="480" y="0" type="line"/>
      <point x="602" y="0" type="line"/>
      <point x="602" y="358" type="line"/>
      <point x="306" y="358" type="line"/>
      <point x="306" y="246" type="line"/>
      <point x="472" y="246" type="line"/>
      <point x="472" y="236" type="line" smooth="yes"/>
      <point x="472" y="158"/>
      <point x="430" y="102"/>
      <point x="334" y="102" type="curve" smooth="yes"/>
      <point x="238" y="102"/>
      <point x="182" y="166"/>
      <point x="182" y="264" type="curve" smooth="yes"/>
      <point x="182" y="436" type="line" smooth="yes"/>
      <point x="182" y="534"/>
      <point x="238" y="596"/>
      <point x="332" y="596" type="curve" smooth="yes"/>
      <point x="426" y="596"/>
      <point x="472" y="538"/>
      <point x="472" y="464" type="curve" smooth="yes"/>
      <point x="472" y="456" type="line"/>
      <point x="602" y="456" type="line"/>
      <point x="602" y="460" type="line" smooth="yes"/>
      <point x="602" y="616"/>
      <point x="504" y="714"/>
      <point x="332" y="714" type="curve" smooth="yes"/>
      <point x="158" y="714"/>
      <point x="50" y="614"/>
      <point x="50" y="434" type="curve" smooth="yes"/>
      <point x="50" y="266" type="line" smooth="yes"/>
      <point x="50" y="86"/>
      <point x="164" y="-14"/>
    </contour>
  </outline>
</glyph>
<glyph name="H" format="2">
  <advance width="656"/>
  <unicode hex="0048"/>
  <anchor x="328" y="0" name="bottom"/>
  <anchor x="328" y="496" name="stroke"/>
  <anchor x="328" y="700" name="top"/>
  <outline>
    <contour>
      <point x="198" y="0" type="line"/>
      <point x="198" y="291" type="line"/>
      <point x="458" y="291" type="line"/>
      <point x="458" y="0" type="line"/>
      <point x="590" y="0" type="line"/>
      <point x="590" y="700" type="line"/>
      <point x="458" y="700" type="line"/>
      <point x="458" y="411" type="line"/>
      <point x="198" y="411" type="line"/>
      <point x="198" y="700" type="line"/>
      <point x="66" y="700" type="line"/>
      <point x="66" y="0" type="line"/>
    </contour>
  </outline>
</glyph>
<glyph name="I" format="2">
  <advance width="264"/>
  <unicode hex="0049"/>
  <anchor x="132" y="0" name="bottom"/>
  <anchor x="132" y="0" name="ogonek"/>
  <anchor x="132" y="700" name="top"/>
  <outline>
    <contour>
      <point x="198" y="0" type="line"/>
      <point x="198" y="700" type="line"/>
      <point x="66" y="700" type="line"/>
      <point x="66" y="0" type="line"/>
    </contour>
  </outline>
</glyph>
<glyph name="J" format="2">
  <advance width="610"/>
  <unicode hex="004A"/>
  <anchor x="402" y="700" name="top"/>
  <outline>
    <contour>
      <point x="267" y="-14" type="curve" smooth="yes"/>
      <point x="404" y="-14"/>
      <point x="488" y="65"/>
      <point x="488" y="210" type="curve" smooth="yes"/>
      <point x="488" y="580" type="line"/>
      <point x="568" y="580" type="line"/>
      <point x="568" y="700" type="line"/>
      <point x="236" y="700" type="line"/>
      <point x="236" y="580" type="line"/>
      <point x="356" y="580" type="line"/>
      <point x="356" y="210" type="line" smooth="yes"/>
      <point x="356" y="146"/>
      <point x="322" y="110"/>
      <point x="263" y="110" type="curve" smooth="yes"/>
      <point x="200" y="110"/>
      <point x="164" y="147"/>
      <point x="164" y="210" type="curve" smooth="yes"/>
      <point x="164" y="276" type="line"/>
      <point x="32" y="276" type="line"/>
      <point x="32" y="210" type="line" smooth="yes"/>
      <point x="32" y="69"/>
      <point x="123" y="-14"/>
    </contour>
  </outline>
</glyph>
<glyph name="K" format="2">
  <advance width="626"/>
  <unicode hex="004B"/>
  <anchor x="311" y="0" name="bottom"/>
  <outline>
    <contour>
      <point x="198" y="0" type="line"/>
      <point x="198" y="284" type="line"/>
      <point x="216" y="284" type="line"/>
      <point x="448" y="0" type="line"/>
      <point x="622" y="0" type="line"/>
      <point x="320" y="355" type="line"/>
      <point x="612" y="700" type="line"/>
      <point x="443" y="700" type="line"/>
      <point x="216" y="422" type="line"/>
      <point x="198" y="422" type="line"/>
      <point x="198" y="700" type="line"/>
      <point x="66" y="700" type="line"/>
      <point x="66" y="0" type="line"/>
    </contour>
  </outline>
</glyph>
<glyph name="L" format="2">
  <advance width="542"/>
  <unicode hex="004C"/>
  <anchor x="292" y="0" name="bottom"/>
  <anchor x="198" y="700" name="caron"/>
  <anchor x="198" y="700" name="sidecaron"/>
  <anchor x="132" y="700" name="top"/>
  <outline>
    <contour>
      <point x="518" y="0" type="line"/>
      <point x="518" y="120" type="line"/>
      <point x="198" y="120" type="line"/>
      <point x="198" y="700" type="line"/>
      <point x="66" y="700" type="line"/>
      <point x="66" y="0" type="line"/>
    </contour>
  </outline>
</glyph>
<glyph name="M" format="2">
  <advance width="882"/>
  <unicode hex="004D"/>
  <anchor x="441" y="0" name="bottom"/>
  <outline>
    <contour>
      <point x="194" y="0" type="line"/>
      <point x="194" y="603" type="line"/>
      <point x="212" y="603" type="line"/>
      <point x="332" y="0" type="line"/>
      <point x="550" y="0" type="line"/>
      <point x="670" y="603" type="line"/>
      <point x="688" y="603" type="line"/>
      <point x="688" y="0" type="line"/>
      <point x="816" y="0" type="line"/>
      <point x="816" y="700" type="line"/>
      <point x="571" y="700" type="line"/>
      <point x="450" y="90" type="line"/>
      <point x="432" y="90" type="line"/>
      <point x="311" y="700" type="line"/>
      <point x="66" y="700" type="line"/>
      <point x="66" y="0" type="line"/>
    </contour>
  </outline>
</glyph>
<glyph name="N" format="2">
  <advance width="670"/>
  <unicode hex="004E"/>
  <anchor x="336" y="0" name="bottom"/>
  <anchor x="334" y="700" name="top"/>
  <outline>
    <contour>
      <point x="196" y="0" type="line"/>
      <point x="196" y="610" type="line"/>
      <point x="214" y="610" type="line"/>
      <point x="353" y="0" type="line"/>
      <point x="604" y="0" type="line"/>
      <point x="604" y="700" type="line"/>
      <point x="474" y="700" type="line"/>
      <point x="474" y="90" type="line"/>
      <point x="456" y="90" type="line"/>
      <point x="317" y="700" type="line"/>
      <point x="66" y="700" type="line"/>
      <point x="66" y="0" type="line"/>
    </contour>
  </outline>
</glyph>
<glyph name="O" format="2">
  <advance width="676"/>
  <unicode hex="004F"/>
  <anchor x="338" y="0" name="bottom"/>
  <anchor x="450" y="700" name="horn"/>
  <anchor x="352" y="0" name="ogonek"/>
  <anchor x="338" y="700" name="top"/>
  <outline>
    <contour>
      <point x="338" y="-14" type="curve" smooth="yes"/>
      <point x="514" y="-14"/>
      <point x="626" y="86"/>
      <point x="626" y="266" type="curve" smooth="yes"/>
      <point x="626" y="434" type="line" smooth="yes"/>
      <point x="626" y="614"/>
      <point x="514" y="714"/>
      <point x="338" y="714" type="curve" smooth="yes"/>
      <point x="162" y="714"/>
      <point x="50" y="614"/>
      <point x="50" y="434" type="curve" smooth="yes"/>
      <point x="50" y="266" type="line" smooth="yes"/>
      <point x="50" y="86"/>
      <point x="162" y="-14"/>
    </contour>
    <contour>
      <point x="338" y="104" type="curve" smooth="yes"/>
      <point x="240" y="104"/>
      <point x="182" y="166"/>
      <point x="182" y="262" type="curve" smooth="yes"/>
      <point x="182" y="438" type="line" smooth="yes"/>
      <point x="182" y="534"/>
      <point x="240" y="596"/>
      <point x="338" y="596" type="curve" smooth="yes"/>
      <point x="436" y="596"/>
      <point x="494" y="534"/>
      <point x="494" y="438" type="curve" smooth="yes"/>
      <point x="494" y="262" type="line" smooth="yes"/>
      <point x="494" y="166"/>
      <point x="436" y="104"/>
    </contour>
  </outline>
</glyph>
<glyph name="P" format="2">
  <advance width="604"/>
  <unicode hex="0050"/>
  <outline>
    <contour>
      <point x="198" y="0" type="line"/>
      <point x="198" y="256" type="line"/>
      <point x="354" y="256" type="line" smooth="yes"/>
      <point x="482" y="256"/>
      <point x="578" y="340"/>
      <point x="578" y="471" type="curve" smooth="yes"/>
      <point x="578" y="485" type="line" smooth="yes"/>
      <point x="578" y="616"/>
      <point x="486" y="700"/>
      <point x="354" y="700" type="curve" smooth="yes"/>
      <point x="66" y="700" type="line"/>
      <point x="66" y="0" type="line"/>
    </contour>
    <contour>
      <point x="198" y="580" type="line"/>
      <point x="341" y="580" type="line" smooth="yes"/>
      <point x="404" y="580"/>
      <point x="446" y="543"/>
      <point x="446" y="483" type="curve" smooth="yes"/>
      <point x="446" y="473" type="line" smooth="yes"/>
      <point x="446" y="413"/>
      <point x="403" y="376"/>
      <point x="341" y="376" type="curve" smooth="yes"/>
      <point x="198" y="376" type="line"/>
    </contour>
  </outline>
</glyph>
<glyph name="R" format="2">
  <advance width="632"/>
  <unicode hex="0052"/>
  <anchor x="313" y="0" name="bottom"/>
  <anchor x="301" y="700" name="top"/>
  <outline>
    <contour>
      <point x="198" y="0" type="line"/>
      <point x="198" y="264" type="line"/>
      <point x="382" y="264" type="line" smooth="yes"/>
      <point x="421" y="264"/>
      <point x="436" y="242"/>
      <point x="436" y="210" type="curve" smooth="yes"/>
      <point x="436" y="0" type="line"/>
      <point x="568" y="0" type="line"/>
      <point x="568" y="229" type="line" smooth="yes"/>
      <point x="568" y="285"/>
      <point x="537" y="321"/>
      <point x="484" y="324" type="curve"/>
      <point x="484" y="342" type="line"/>
      <point x="543" y="366"/>
      <point x="588" y="417"/>
      <point x="588" y="501" type="curve" smooth="yes"/>
      <point x="588" y="513" type="line" smooth="yes"/>
      <point x="588" y="626"/>
      <point x="501" y="700"/>
      <point x="370" y="700" type="curve" smooth="yes"/>
      <point x="66" y="700" type="line"/>
      <point x="66" y="0" type="line"/>
    </contour>
    <contour>
      <point x="198" y="580" type="line"/>
      <point x="356" y="580" type="line" smooth="yes"/>
      <point x="420" y="580"/>
      <point x="456" y="543"/>
      <point x="456" y="487" type="curve" smooth="yes"/>
      <point x="456" y="477" type="line" smooth="yes"/>
      <point x="456" y="421"/>
      <point x="418" y="384"/>
      <point x="356" y="384" type="curve" smooth="yes"/>
      <point x="198" y="384" type="line"/>
    </contour>
  </outline>
</glyph>
<glyph name="S" format="2">
  <advance width="606"/>
  <unicode hex="0053"/>
  <anchor x="315" y="0" name="bottom"/>
  <anchor x="301" y="700" name="top"/>
  <outline>
    <contour>
      <point x="309" y="-14" type="curve" smooth="yes"/>
      <point x="471" y="-14"/>
      <point x="574" y="74"/>
      <point x="574" y="202" type="curve" smooth="yes"/>
      <point x="574" y="330"/>
      <point x="475" y="382"/>
      <point x="326" y="414" type="curve" smooth="yes"/>
      <point x="303" y="419" type="line" smooth="yes"/>
      <point x="219" y="437"/>
      <point x="180" y="462"/>
      <point x="180" y="514" type="curve" smooth="yes"/>
      <point x="180" y="566"/>
      <point x="217" y="598"/>
      <point x="297" y="598" type="curve" smooth="yes"/>
      <point x="377" y="598"/>
      <point x="426" y="566"/>
      <point x="426" y="486" type="curve" smooth="yes"/>
      <point x="426" y="456" type="line"/>
      <point x="556" y="456" type="line"/>
      <point x="556" y="486" type="line" smooth="yes"/>
      <point x="556" y="638"/>
      <point x="447" y="714"/>
      <point x="297" y="714" type="curve" smooth="yes"/>
      <point x="147" y="714"/>
      <point x="50" y="638"/>
      <point x="50" y="510" type="curve" smooth="yes"/>
      <point x="50" y="382"/>
      <point x="135" y="333"/>
      <point x="280" y="301" type="curve" smooth="yes"/>
      <point x="303" y="296" type="line" smooth="yes"/>
      <point x="393" y="276"/>
      <point x="444" y="256"/>
      <point x="444" y="198" type="curve" smooth="yes"/>
      <point x="444" y="142"/>
      <point x="399" y="102"/>
      <point x="309" y="102" type="curve" smooth="yes"/>
      <point x="219" y="102"/>
      <point x="164" y="144"/>
      <point x="164" y="228" type="curve" smooth="yes"/>
      <point x="164" y="256" type="line"/>
      <point x="34" y="256" type="line"/>
      <point x="34" y="228" type="line" smooth="yes"/>
      <point x="34" y="76"/>
      <point x="147" y="-14"/>
    </contour>
  </outline>
</glyph>
<glyph name="T" format="2">
  <advance width="588"/>
  <unicode hex="0054"/>
  <anchor x="294" y="0" name="bottom"/>
  <anchor x="294" y="496" name="strokeC"/>
  <anchor x="294" y="700" name="top"/>
  <outline>
    <contour>
      <point x="360" y="0" type="line"/>
      <point x="360" y="580" type="line"/>
      <point x="564" y="580" type="line"/>
      <point x="564" y="700" type="line"/>
      <point x="24" y="700" type="line"/>
      <point x="24" y="580" type="line"/>
      <point x="228" y="580" type="line"/>
      <point x="228" y="0" type="line"/>
    </contour>
  </outline>
</glyph>
<glyph name="U" format="2">
  <advance width="672"/>
  <unicode hex="0055"/>
  <anchor x="336" y="0" name="bottom"/>
  <anchor x="610" y="700" name="horn"/>
  <anchor x="424" y="0" name="ogonek"/>
  <anchor x="336" y="700" name="top"/>
  <outline>
    <contour>
      <point x="336" y="-14" type="curve" smooth="yes"/>
      <point x="508" y="-14"/>
      <point x="610" y="86"/>
      <point x="610" y="246" type="curve" smooth="yes"/>
      <point x="610" y="700" type="line"/>
      <point x="478" y="700" type="line"/>
      <point x="478" y="242" type="line" smooth="yes"/>
      <point x="478" y="156"/>
      <point x="428" y="104"/>
      <point x="336" y="104" type="curve" smooth="yes"/>
      <point x="244" y="104"/>
      <point x="194" y="156"/>
      <point x="194" y="242" type="curve" smooth="yes"/>
      <point x="194" y="700" type="line"/>
      <point x="62" y="700" type="line"/>
      <point x="62" y="246" type="line" smooth="yes"/>
      <point x="62" y="86"/>
      <point x="164" y="-14"/>
    </contour>
  </outline>
</glyph>
<glyph name="V" format="2">
  <advance width="618"/>
  <unicode hex="0056"/>
  <outline>
    <contour>
      <point x="422" y="0" type="line"/>
      <point x="600" y="700" type="line"/>
      <point x="464" y="700" type="line"/>
      <point x="316" y="85" type="line"/>
      <point x="302" y="85" type="line"/>
      <point x="154" y="700" type="line"/>
      <point x="18" y="700" type="line"/>
      <point x="196" y="0" type="line"/>
    </contour>
  </outline>
</glyph>
<glyph name="W" format="2">
  <advance width="898"/>
  <unicode hex="0057"/>
  <anchor x="449" y="700" name="top"/>
  <outline>
    <contour>
      <point x="350" y="0" type="line"/>
      <point x="440" y="622" type="line"/>
      <point x="458" y="622" type="line"/>
      <point x="548" y="0" type="line"/>
      <point x="776" y="0" type="line"/>
      <point x="868" y="700" type="line"/>
      <point x="737" y="700" type="line"/>
      <point x="669" y="92" type="line"/>
      <point x="651" y="92" type="line"/>
      <point x="563" y="700" type="line"/>
      <point x="335" y="700" type="line"/>
      <point x="247" y="92" type="line"/>
      <point x="229" y="92" type="line"/>
      <point x="161" y="700" type="line"/>
      <point x="30" y="700" type="line"/>
      <point x="122" y="0" type="line"/>
    </contour>
  </outline>
</glyph>
<glyph name="X" format="2">
  <advance width="644"/>
  <unicode hex="0058"/>
  <outline>
    <contour>
      <point x="172" y="0" type="line"/>
      <point x="313" y="259" type="line"/>
      <point x="331" y="259" type="line"/>
      <point x="472" y="0" type="line"/>
      <point x="622" y="0" type="line"/>
      <point x="417" y="353" type="line"/>
      <point x="620" y="700" type="line"/>
      <point x="470" y="700" type="line"/>
      <point x="331" y="447" type="line"/>
      <point x="313" y="447" type="line"/>
      <point x="174" y="700" type="line"/>
      <point x="24" y="700" type="line"/>
      <point x="227" y="353" type="line"/>
      <point x="22" y="0" type="line"/>
    </contour>
  </outline>
</glyph>
<glyph name="Y" format="2">
  <advance width="624"/>
  <unicode hex="0059"/>
  <anchor x="312" y="0" name="bottom"/>
  <anchor x="312" y="700" name="top"/>
  <outline>
    <contour>
      <point x="378" y="0" type="line"/>
      <point x="378" y="241" type="line"/>
      <point x="616" y="700" type="line"/>
      <point x="469" y="700" type="line"/>
      <point x="321" y="400" type="line"/>
      <point x="303" y="400" type="line"/>
      <point x="155" y="700" type="line"/>
      <point x="8" y="700" type="line"/>
      <point x="246" y="241" type="line"/>
      <point x="246" y="0" type="line"/>
    </contour>
  </outline>
</glyph>
<glyph name="Z" format="2">
  <advance width="576"/>
  <unicode hex="005A"/>
  <anchor x="289" y="0" name="bottom"/>
  <anchor x="293" y="700" name="top"/>
  <outline>
    <contour>
      <point x="532" y="0" type="line"/>
      <point x="532" y="118" type="line"/>
      <point x="184" y="118" type="line"/>
      <point x="184" y="134" type="line"/>
      <point x="530" y="532" type="line"/>
      <point x="530" y="700" type="line"/>
      <point x="56" y="700" type="line"/>
      <point x="56" y="582" type="line"/>
      <point x="392" y="582" type="line"/>
      <point x="392" y="566" type="line"/>
      <point x="46" y="168" type="line"/>
      <point x="46" y="0" type="line"/>
    </contour>
  </outline>
</glyph>
<glyph name="bracketleft" format="2">
  <advance width="358"/>
  <unicode hex="005B"/>
  <outline>
    <contour>
      <point x="342" y="-246" type="line"/>
      <point x="342" y="-138" type="line"/>
      <point x="219" y="-138" type="line" smooth="yes"/>
      <point x="201" y="-138"/>
      <point x="192" y="-128"/>
      <point x="192" y="-108" type="curve" smooth="yes"/>
      <point x="192" y="618" type="line" smooth="yes"/>
      <point x="192" y="638"/>
      <point x="201" y="648"/>
      <point x="219" y="648" type="curve" smooth="yes"/>
      <point x="342" y="648" type="line"/>
      <point x="342" y="756" type="line"/>
      <point x="172" y="756" type="line" smooth="yes"/>
      <point x="112" y="756"/>
      <point x="70" y="714"/>
      <point x="70" y="654" type="curve" smooth="yes"/>
      <point x="70" y="-144" type="line" smooth="yes"/>
      <point x="70" y="-204"/>
      <point x="112" y="-246"/>
      <point x="172" y="-246" type="curve" smooth="yes"/>
    </contour>
  </outline>
</glyph>
<glyph name="backslash" format="2">
  <advance width="388"/>
  <unicode hex="005C"/>
  <outline>
    <contour>
      <point x="404" y="-200" type="line"/>
      <point x="110" y="700" type="line"/>
      <point x="-16" y="700" type="line"/>
      <point x="278" y="-200" type="line"/>
    </contour>
  </outline>
</glyph>
<glyph name="bracketright" format="2">
  <advance width="358"/>
  <unicode hex="005D"/>
  <outline>
    <contour>
      <point x="186" y="-246" type="line" smooth="yes"/>
      <point x="246" y="-246"/>
      <point x="288" y="-204"/>
      <point x="288" y="-144" type="curve" smooth="yes"/>
      <point x="288" y="654" type="line" smooth="yes"/>
      <point x="288" y="714"/>
      <point x="246" y="756"/>
      <point x="186" y="756" type="curve" smooth="yes"/>
      <point x="16" y="756" type="line"/>
      <point x="16" y="648" type="line"/>
      <point x="139" y="648" type="line" smooth="yes"/>
      <point x="157" y="648"/>
      <point x="166" y="638"/>
      <point x="166" y="618" type="curve" smooth="yes"/>
      <point x="166" y="-108" type="line" smooth="yes"/>
      <point x="166" y="-128"/>
      <point x="157" y="-138"/>
      <point x="139" y="-138" type="curve" smooth="yes"/>
      <point x="16" y="-138" type="line"/>
      <point x="16" y="-246" type="line"/>
    </contour>
  </outline>
</glyph>
<glyph name="asciicircum" format="2">
  <advance width="620"/>
  <unicode hex="005E"/>
  <outline>
    <contour>
      <point x="210" y="424" type="line"/>
      <point x="301" y="620" type="line"/>
      <point x="319" y="620" type="line"/>
      <point x="410" y="424" type="line"/>
      <point x="550" y="424" type="line"/>
      <point x="404" y="700" type="line"/>
      <point x="216" y="700" type="line"/>
      <point x="70" y="424" type="line"/>
    </contour>
  </outline>
</glyph>
<glyph name="underscore" format="2">
  <advance width="620"/>
  <unicode hex="005F"/>
  <outline>
    <contour>
      <point x="555" y="-162" type="line"/>
      <point x="555" y="-48" type="line"/>
      <point x="65" y="-48" type="line"/>
      <point x="65" y="-162" type="line"/>
    </contour>
  </outline>
</glyph>
<glyph name="a" format="2">
  <advance width="578"/>
  <unicode hex="0061"/>
  <anchor x="276" y="0" name="bottom"/>
  <anchor x="468" y="0" name="ogonek"/>
  <anchor x="281" y="496" name="top"/>
  <outline>
    <contour>
      <point x="224" y="-14" type="curve" smooth="yes"/>
      <point x="328" y="-14"/>
      <point x="359" y="42"/>
      <point x="368" y="67" type="curve"/>
      <point x="387" y="67" type="line"/>
      <point x="387" y="66" type="line"/>
      <point x="387" y="26"/>
      <point x="423" y="0"/>
      <point x="472" y="0" type="curve" smooth="yes"/>
      <point x="556" y="0" type="line"/>
      <point x="556" y="104" type="line"/>
      <point x="516" y="104" type="line" smooth="yes"/>
      <point x="498" y="104"/>
      <point x="488" y="114"/>
      <point x="488" y="134" type="curve" smooth="yes"/>
      <point x="488" y="319" type="line" smooth="yes"/>
      <point x="488" y="443"/>
      <point x="406" y="510"/>
      <point x="276" y="510" type="curve" smooth="yes"/>
      <point x="147" y="510"/>
      <point x="82" y="445"/>
      <point x="58" y="370" type="curve"/>
      <point x="174" y="331" type="line"/>
      <point x="183" y="376"/>
      <point x="211" y="408"/>
      <point x="274" y="408" type="curve" smooth="yes"/>
      <point x="338" y="408"/>
      <point x="366" y="374"/>
      <point x="366" y="328" type="curve" smooth="yes"/>
      <point x="366" y="300" type="line"/>
      <point x="230" y="300" type="line" smooth="yes"/>
      <point x="118" y="300"/>
      <point x="38" y="247"/>
      <point x="38" y="145" type="curve" smooth="yes"/>
      <point x="38" y="43"/>
      <point x="118" y="-14"/>
    </contour>
    <contour>
      <point x="246" y="88" type="curve" smooth="yes"/>
      <point x="192" y="88"/>
      <point x="164" y="113"/>
      <point x="164" y="149" type="curve" smooth="yes"/>
      <point x="164" y="185"/>
      <point x="192" y="206"/>
      <point x="239" y="206" type="curve" smooth="yes"/>
      <point x="366" y="206" type="line"/>
      <point x="366" y="196" type="line" smooth="yes"/>
      <point x="366" y="130"/>
      <point x="316" y="88"/>
    </contour>
  </outline>
</glyph>
<glyph name="b" format="2">
  <advance width="638"/>
  <unicode hex="0062"/>
  <anchor x="70" y="496" name="strokeA"/>
  <outline>
    <contour>
      <point x="368" y="-14" type="curve" smooth="yes"/>
      <point x="487" y="-14"/>
      <point x="592" y="78"/>
      <point x="592" y="240" type="curve" smooth="yes"/>
      <point x="592" y="256" type="line" smooth="yes"/>
      <point x="592" y="418"/>
      <point x="488" y="510"/>
      <point x="368" y="510" type="curve" smooth="yes"/>
      <point x="278" y="510"/>
      <point x="235" y="474"/>
      <point x="214" y="439" type="curve"/>
      <point x="196" y="439" type="line"/>
      <point x="196" y="700" type="line"/>
      <point x="70" y="700" type="line"/>
      <point x="70" y="0" type="line"/>
      <point x="194" y="0" type="line"/>
      <point x="194" y="60" type="line"/>
      <point x="212" y="60" type="line"/>
      <point x="235" y="22"/>
      <point x="278" y="-14"/>
    </contour>
    <contour>
      <point x="330" y="96" type="curve" smooth="yes"/>
      <point x="253" y="96"/>
      <point x="194" y="147"/>
      <point x="194" y="243" type="curve" smooth="yes"/>
      <point x="194" y="253" type="line" smooth="yes"/>
      <point x="194" y="349"/>
      <point x="252" y="400"/>
      <point x="330" y="400" type="curve" smooth="yes"/>
      <point x="408" y="400"/>
      <point x="466" y="349"/>
      <point x="466" y="253" type="curve" smooth="yes"/>
      <point x="466" y="243" type="line" smooth="yes"/>
      <point x="466" y="147"/>
      <point x="407" y="96"/>
    </contour>
  </outline>
</glyph>
<glyph name="d" format="2">
  <advance width="638"/>
  <unicode hex="0064"/>
  <anchor x="324" y="0" name="bottom"/>
  <anchor x="568" y="700" name="sidecaron"/>
  <anchor x="568" y="496" name="strokeB"/>
  <outline>
    <contour>
      <point x="270" y="-14" type="curve" smooth="yes"/>
      <point x="360" y="-14"/>
      <point x="403" y="22"/>
      <point x="426" y="60" type="curve"/>
      <point x="444" y="60" type="line"/>
      <point x="444" y="0" type="line"/>
      <point x="568" y="0" type="line"/>
      <point x="568" y="700" type="line"/>
      <point x="442" y="700" type="line"/>
      <point x="442" y="439" type="line"/>
      <point x="424" y="439" type="line"/>
      <point x="403" y="474"/>
      <point x="360" y="510"/>
      <point x="270" y="510" type="curve" smooth="yes"/>
      <point x="150" y="510"/>
      <point x="46" y="418"/>
      <point x="46" y="256" type="curve" smooth="yes"/>
      <point x="46" y="240" type="line" smooth="yes"/>
      <point x="46" y="78"/>
      <point x="151" y="-14"/>
    </contour>
    <contour>
      <point x="308" y="96" type="curve" smooth="yes"/>
      <point x="231" y="96"/>
      <point x="172" y="147"/>
      <point x="172" y="243" type="curve" smooth="yes"/>
      <point x="172" y="253" type="line" smooth="yes"/>
      <point x="172" y="349"/>
      <point x="230" y="400"/>
      <point x="308" y="400" type="curve" smooth="yes"/>
      <point x="386" y="400"/>
      <point x="444" y="349"/>
      <point x="444" y="253" type="curve" smooth="yes"/>
      <point x="444" y="243" type="line" smooth="yes"/>
      <point x="444" y="147"/>
      <point x="385" y="96"/>
    </contour>
  </outline>
</glyph>
<glyph name="e" format="2">
  <advance width="577"/>
  <unicode hex="0065"/>
  <anchor x="296" y="0" name="bottom"/>
  <anchor x="384" y="0" name="ogonek"/>
  <anchor x="294" y="496" name="top"/>
  <outline>
    <contour>
      <point x="296" y="-14" type="curve" smooth="yes"/>
      <point x="432" y="-14"/>
      <point x="491" y="63"/>
      <point x="519" y="116" type="curve"/>
      <point x="416" y="170" type="line"/>
      <point x="399" y="132"/>
      <point x="370" y="96"/>
      <point x="300" y="96" type="curve" smooth="yes"/>
      <point x="230" y="96"/>
      <point x="177" y="143"/>
      <point x="174" y="211" type="curve"/>
      <point x="535" y="211" type="line"/>
      <point x="535" y="254" type="line" smooth="yes"/>
      <point x="535" y="406"/>
      <point x="440" y="510"/>
      <point x="294" y="510" type="curve" smooth="yes"/>
      <point x="146" y="510"/>
      <point x="46" y="410"/>
      <point x="46" y="254" type="curve" smooth="yes"/>
      <point x="46" y="242" type="line" smooth="yes"/>
      <point x="46" y="86"/>
      <point x="147" y="-14"/>
    </contour>
    <contour>
      <point x="175" y="305" type="line"/>
      <point x="184" y="362"/>
      <point x="225" y="400"/>
      <point x="293" y="400" type="curve" smooth="yes"/>
      <point x="358" y="400"/>
      <point x="401" y="362"/>
      <point x="407" y="305" type="curve"/>
    </contour>
  </outline>
</glyph>
<glyph name="f" format="2">
  <advance width="436"/>
  <unicode hex="0066"/>
  <outline>
    <contour>
      <point x="278" y="0" type="line"/>
      <point x="278" y="392" type="line"/>
      <point x="408" y="392" type="line"/>
      <point x="408" y="496" type="line"/>
      <point x="278" y="496" type="line"/>
      <point x="278" y="566" type="line" smooth="yes"/>
      <point x="278" y="586"/>
      <point x="288" y="596"/>
      <point x="306" y="596" type="curve" smooth="yes"/>
      <point x="392" y="596" type="line"/>
      <point x="392" y="700" type="line"/>
      <point x="262" y="700" type="line" smooth="yes"/>
      <point x="196" y="700"/>
      <point x="152" y="656"/>
      <point x="152" y="588" type="curve" smooth="yes"/>
      <point x="152" y="496" type="line"/>
      <point x="26" y="496" type="line"/>
      <point x="26" y="392" type="line"/>
      <point x="152" y="392" type="line"/>
      <point x="152" y="0" type="line"/>
    </contour>
  </outline>
</glyph>
<glyph name="g" format="2">
  <advance width="638"/>
  <unicode hex="0067"/>
  <anchor x="328" y="496" name="top"/>
  <outline>
    <contour>
      <point x="46" y="246" type="line" smooth="yes"/>
      <point x="46" y="90"/>
      <point x="150" y="-2"/>
      <point x="272" y="-2" type="curve" smooth="yes"/>
      <point x="363" y="-2"/>
      <point x="404" y="36"/>
      <point x="424" y="69" type="curve"/>
      <point x="442" y="69" type="line"/>
      <point x="442" y="-60" type="line" smooth="yes"/>
      <point x="442" y="-80"/>
      <point x="432" y="-90"/>
      <point x="414" y="-90" type="curve" smooth="yes"/>
      <point x="126" y="-90" type="line"/>
      <point x="126" y="-200" type="line"/>
      <point x="458" y="-200" type="line" smooth="yes"/>
      <point x="524" y="-200"/>
      <point x="568" y="-156"/>
      <point x="568" y="-88" type="curve" smooth="yes"/>
      <point x="568" y="496" type="line"/>
      <point x="444" y="496" type="line"/>
      <point x="444" y="436" type="line"/>
      <point x="426" y="436" type="line"/>
      <point x="404" y="470"/>
      <point x="362" y="510"/>
      <point x="272" y="510" type="curve" smooth="yes"/>
      <point x="149" y="510"/>
      <point x="46" y="418"/>
      <point x="46" y="262" type="curve" smooth="yes"/>
    </contour>
    <contour>
      <point x="308" y="108" type="curve" smooth="yes"/>
      <point x="231" y="108"/>
      <point x="172" y="159"/>
      <point x="172" y="249" type="curve" smooth="yes"/>
      <point x="172" y="259" type="line" smooth="yes"/>
      <point x="172" y="349"/>
      <point x="230" y="400"/>
      <point x="308" y="400" type="curve" smooth="yes"/>
      <point x="386" y="400"/>
      <point x="444" y="349"/>
      <point x="444" y="259" type="curve" smooth="yes"/>
      <point x="444" y="249" type="line" smooth="yes"/>
      <point x="444" y="159"/>
      <point x="385" y="108"/>
    </contour>
  </outline>
</glyph>
<glyph name="l" format="2">
  <advance width="266"/>
  <unicode hex="006C"/>
  <anchor x="133" y="0" name="bottom"/>
  <anchor x="196" y="700" name="sidecaron"/>
  <anchor x="133" y="700" name="top"/>
  <outline>
    <contour>
      <point x="196" y="0" type="line"/>
      <point x="196" y="700" type="line"/>
      <point x="70" y="700" type="line"/>
      <point x="70" y="0" type="line"/>
    </contour>
  </outline>
</glyph>
<glyph name="m" format="2">
  <advance width="854"/>
  <unicode hex="006D"/>
  <anchor x="429" y="0" name="bottom"/>
  <outline>
    <contour>
      <point x="196" y="0" type="line"/>
      <point x="196" y="293" type="line" smooth="yes"/>
      <point x="196" y="361"/>
      <point x="228" y="399"/>
      <point x="286" y="399" type="curve" smooth="yes"/>
      <point x="336" y="399"/>
      <point x="366" y="371"/>
      <point x="366" y="317" type="curve" smooth="yes"/>
      <point x="366" y="0" type="line"/>
      <point x="492" y="0" type="line"/>
      <point x="492" y="293" type="line" smooth="yes"/>
      <point x="492" y="361"/>
      <point x="524" y="399"/>
      <point x="582" y="399" type="curve" smooth="yes"/>
      <point x="632" y="399"/>
      <point x="662" y="371"/>
      <point x="662" y="317" type="curve" smooth="yes"/>
      <point x="662" y="0" type="line"/>
      <point x="788" y="0" type="line"/>
      <point x="788" y="326" type="line" smooth="yes"/>
      <point x="788" y="446"/>
      <point x="714" y="504"/>
      <point x="622" y="504" type="curve" smooth="yes"/>
      <point x="546" y="504"/>
      <point x="508" y="472"/>
      <point x="486" y="430" type="curve"/>
      <point x="468" y="430" type="line"/>
      <point x="445" y="474"/>
      <point x="405" y="504"/>
      <point x="334" y="504" type="curve" smooth="yes"/>
      <point x="268" y="504"/>
      <point x="229" y="475"/>
      <point x="212" y="442" type="curve"/>
      <point x="194" y="442" type="line"/>
      <point x="194" y="496" type="line"/>
      <point x="70" y="496" type="line"/>
      <point x="70" y="0" type="line"/>
    </contour>
  </outline>
</glyph>
<glyph name="n" format="2">
  <advance width="616"/>
  <unicode hex="006E"/>
  <anchor x="70" y="496" name="apostrophe"/>
  <anchor x="310" y="0" name="bottom"/>
  <anchor x="303" y="496" name="top"/>
  <outline>
    <contour>
      <point x="196" y="0" type="line"/>
      <point x="196" y="252" type="line" smooth="yes"/>
      <point x="196" y="344"/>
      <point x="241" y="398"/>
      <point x="318" y="398" type="curve" smooth="yes"/>
      <point x="386" y="398"/>
      <point x="424" y="361"/>
      <point x="424" y="286" type="curve" smooth="yes"/>
      <point x="424" y="0" type="line"/>
      <point x="550" y="0" type="line"/>
      <point x="550" y="296" type="line" smooth="yes"/>
      <point x="550" y="419"/>
      <point x="473" y="504"/>
      <point x="357" y="504" type="curve" smooth="yes"/>
      <point x="268" y="504"/>
      <point x="228" y="465"/>
      <point x="212" y="431" type="curve"/>
      <point x="194" y="431" type="line"/>
      <point x="194" y="496" type="line"/>
      <point x="70" y="496" type="line"/>
      <point x="70" y="0" type="line"/>
    </contour>
  </outline>
</glyph>
<glyph name="o" format="2">
  <advance width="612"/>
  <unicode hex="006F"/>
  <anchor x="306" y="0" name="bottom"/>
  <anchor x="398" y="496" name="horn"/>
  <anchor x="318" y="0" name="ogonek"/>
  <anchor x="306" y="496" name="top"/>
  <outline>
    <contour>
      <point x="306" y="-14" type="curve" smooth="yes"/>
      <point x="454" y="-14"/>
      <point x="566" y="80"/>
      <point x="566" y="240" type="curve" smooth="yes"/>
      <point x="566" y="256" type="line" smooth="yes"/>
      <point x="566" y="416"/>
      <point x="454" y="510"/>
      <point x="306" y="510" type="curve" smooth="yes"/>
      <point x="158" y="510"/>
      <point x="46" y="416"/>
      <point x="46" y="256" type="curve" smooth="yes"/>
      <point x="46" y="240" type="line" smooth="yes"/>
      <point x="46" y="80"/>
      <point x="158" y="-14"/>
    </contour>
    <contour>
      <point x="306" y="98" type="curve" smooth="yes"/>
      <point x="229" y="98"/>
      <point x="172" y="150"/>
      <point x="172" y="243" type="curve" smooth="yes"/>
      <point x="172" y="253" type="line" smooth="yes"/>
      <point x="172" y="346"/>
      <point x="228" y="398"/>
      <point x="306" y="398" type="curve" smooth="yes"/>
      <point x="384" y="398"/>
      <point x="440" y="346"/>
      <point x="440" y="253" type="curve" smooth="yes"/>
      <point x="440" y="243" type="line" smooth="yes"/>
      <point x="440" y="150"/>
      <point x="383" y="98"/>
    </contour>
  </outline>
</glyph>
<glyph name="q" format="2">
  <advance width="638"/>
  <unicode hex="0071"/>
  <outline>
    <contour>
      <point x="568" y="-200" type="line"/>
      <point x="568" y="496" type="line"/>
      <point x="444" y="496" type="line"/>
      <point x="444" y="436" type="line"/>
      <point x="426" y="436" type="line"/>
      <point x="403" y="474"/>
      <point x="360" y="510"/>
      <point x="270" y="510" type="curve" smooth="yes"/>
      <point x="151" y="510"/>
      <point x="46" y="418"/>
      <point x="46" y="256" type="curve" smooth="yes"/>
      <point x="46" y="240" type="line" smooth="yes"/>
      <point x="46" y="78"/>
      <point x="150" y="-14"/>
      <point x="270" y="-14" type="curve" smooth="yes"/>
      <point x="360" y="-14"/>
      <point x="403" y="22"/>
      <point x="424" y="57" type="curve"/>
      <point x="442" y="57" type="line"/>
      <point x="442" y="-200" type="line"/>
    </contour>
    <contour>
      <point x="308" y="96" type="curve" smooth="yes"/>
      <point x="230" y="96"/>
      <point x="172" y="147"/>
      <point x="172" y="243" type="curve" smooth="yes"/>
      <point x="172" y="253" type="line" smooth="yes"/>
      <point x="172" y="349"/>
      <point x="231" y="400"/>
      <point x="308" y="400" type="curve" smooth="yes"/>
      <point x="385" y="400"/>
      <point x="444" y="349"/>
      <point x="444" y="253" type="curve" smooth="yes"/>
      <point x="444" y="243" type="line" smooth="yes"/>
      <point x="444" y="147"/>
      <point x="386" y="96"/>
    </contour>
  </outline>
</glyph>
<glyph name="r" format="2">
  <advance width="396"/>
  <unicode hex="0072"/>
  <anchor x="135" y="0" name="bottom"/>
  <anchor x="216" y="496" name="top"/>
  <outline>
    <contour>
      <point x="196" y="0" type="line"/>
      <point x="196" y="282" type="line" smooth="yes"/>
      <point x="196" y="352"/>
      <point x="242" y="386"/>
      <point x="306" y="386" type="curve" smooth="yes"/>
      <point x="368" y="386" type="line"/>
      <point x="368" y="498" type="line"/>
      <point x="308" y="498" type="line" smooth="yes"/>
      <point x="262" y="498"/>
      <point x="226" y="480"/>
      <point x="212" y="440" type="curve"/>
      <point x="194" y="440" type="line"/>
      <point x="194" y="496" type="line"/>
      <point x="70" y="496" type="line"/>
      <point x="70" y="0" type="line"/>
    </contour>
  </outline>
</glyph>
<glyph name="s" format="2">
  <advance width="524"/>
  <unicode hex="0073"/>
  <anchor x="265" y="0" name="bottom"/>
  <anchor x="261" y="496" name="top"/>
  <outline>
    <contour>
      <point x="276" y="-14" type="curve" smooth="yes"/>
      <point x="402" y="-14"/>
      <point x="484" y="45"/>
      <point x="484" y="149" type="curve" smooth="yes"/>
      <point x="484" y="253"/>
      <point x="396" y="285"/>
      <point x="284" y="305" type="curve" smooth="yes"/>
      <point x="256" y="310" type="line" smooth="yes"/>
      <point x="210" y="318"/>
      <point x="182" y="331"/>
      <point x="182" y="363" type="curve" smooth="yes"/>
      <point x="182" y="392"/>
      <point x="208" y="410"/>
      <point x="256" y="410" type="curve" smooth="yes"/>
      <point x="304" y="410"/>
      <point x="338" y="391"/>
      <point x="349" y="340" type="curve"/>
      <point x="466" y="376" type="line"/>
      <point x="443" y="456"/>
      <point x="367" y="510"/>
      <point x="256" y="510" type="curve" smooth="yes"/>
      <point x="138" y="510"/>
      <point x="60" y="455"/>
      <point x="60" y="357" type="curve" smooth="yes"/>
      <point x="60" y="259"/>
      <point x="146" y="220"/>
      <point x="250" y="201" type="curve" smooth="yes"/>
      <point x="278" y="196" type="line" smooth="yes"/>
      <point x="337" y="185"/>
      <point x="362" y="171"/>
      <point x="362" y="140" type="curve" smooth="yes"/>
      <point x="362" y="109"/>
      <point x="334" y="86"/>
      <point x="276" y="86" type="curve" smooth="yes"/>
      <point x="218" y="86"/>
      <point x="171" y="108"/>
      <point x="158" y="178" type="curve"/>
      <point x="42" y="148" type="line"/>
      <point x="59" y="44"/>
      <point x="146" y="-14"/>
    </contour>
  </outline>
</glyph>
<glyph name="v" format="2">
  <advance width="548"/>
  <unicode hex="0076"/>
  <outline>
    <contour>
      <point x="374" y="0" type="line"/>
      <point x="532" y="496" type="line"/>
      <point x="398" y="496" type="line"/>
      <point x="283" y="92" type="line"/>
      <point x="265" y="92" type="line"/>
      <point x="150" y="496" type="line"/>
      <point x="16" y="496" type="line"/>
      <point x="174" y="0" type="line"/>
    </contour>
  </outline>
</glyph>
<glyph name="w" format="2">
  <advance width="784"/>
  <unicode hex="0077"/>
  <anchor x="392" y="496" name="top"/>
  <outline>
    <contour>
      <point x="319" y="0" type="line"/>
      <point x="383" y="411" type="line"/>
      <point x="401" y="411" type="line"/>
      <point x="465" y="0" type="line"/>
      <point x="674" y="0" type="line"/>
      <point x="744" y="496" type="line"/>
      <point x="619" y="496" type="line"/>
      <point x="575" y="85" type="line"/>
      <point x="557" y="85" type="line"/>
      <point x="493" y="496" type="line"/>
      <point x="291" y="496" type="line"/>
      <point x="227" y="85" type="line"/>
      <point x="209" y="85" type="line"/>
      <point x="165" y="496" type="line"/>
      <point x="40" y="496" type="line"/>
      <point x="110" y="0" type="line"/>
    </contour>
  </outline>
</glyph>
<glyph name="x" format="2">
  <advance width="592"/>
  <unicode hex="0078"/>
  <outline>
    <contour>
      <point x="174" y="0" type="line"/>
      <point x="287" y="167" type="line"/>
      <point x="305" y="167" type="line"/>
      <point x="418" y="0" type="line"/>
      <point x="566" y="0" type="line"/>
      <point x="386" y="250" type="line"/>
      <point x="564" y="496" type="line"/>
      <point x="418" y="496" type="line"/>
      <point x="305" y="331" type="line"/>
      <point x="287" y="331" type="line"/>
      <point x="174" y="496" type="line"/>
      <point x="28" y="496" type="line"/>
      <point x="206" y="250" type="line"/>
      <point x="26" y="0" type="line"/>
    </contour>
  </outline>
</glyph>
<glyph name="y" format="2">
  <advance width="616"/>
  <unicode hex="0079"/>
  <anchor x="660" y="0" name="bottom"/>
  <anchor x="306" y="496" name="top"/>
  <outline>
    <contour>
      <point x="436" y="-200" type="line" smooth="yes"/>
      <point x="502" y="-200"/>
      <point x="546" y="-156"/>
      <point x="546" y="-88" type="curve" smooth="yes"/>
      <point x="546" y="496" type="line"/>
      <point x="420" y="496" type="line"/>
      <point x="420" y="244" type="line" smooth="yes"/>
      <point x="420" y="152"/>
      <point x="375" y="98"/>
      <point x="298" y="98" type="curve" smooth="yes"/>
      <point x="230" y="98"/>
      <point x="192" y="135"/>
      <point x="192" y="210" type="curve" smooth="yes"/>
      <point x="192" y="496" type="line"/>
      <point x="66" y="496" type="line"/>
      <point x="66" y="200" type="line" smooth="yes"/>
      <point x="66" y="77"/>
      <point x="143" y="-8"/>
      <point x="259" y="-8" type="curve" smooth="yes"/>
      <point x="348" y="-8"/>
      <point x="388" y="31"/>
      <point x="404" y="65" type="curve"/>
      <point x="422" y="65" type="line"/>
      <point x="422" y="-60" type="line" smooth="yes"/>
      <point x="422" y="-80"/>
      <point x="412" y="-90"/>
      <point x="394" y="-90" type="curve" smooth="yes"/>
      <point x="124" y="-90" type="line"/>
      <point x="124" y="-200" type="line"/>
    </contour>
  </outline>
</glyph>
<glyph name="z" format="2">
  <advance width="518"/>
  <unicode hex="007A"/>
  <anchor x="261" y="0" name="bottom"/>
  <anchor x="260" y="496" name="top"/>
  <outline>
    <contour>
      <point x="470" y="0" type="line"/>
      <point x="470" y="104" type="line"/>
      <point x="190" y="104" type="line"/>
      <point x="190" y="120" type="line"/>
      <point x="462" y="346" type="line"/>
      <point x="462" y="496" type="line"/>
      <point x="62" y="496" type="line"/>
      <point x="62" y="392" type="line"/>
      <point x="324" y="392" type="line"/>
      <point x="324" y="376" type="line"/>
      <point x="52" y="150" type="line"/>
      <point x="52" y="0" type="line"/>
    </contour>
  </outline>
</glyph>
<glyph name="braceleft" format="2">
  <advance width="466"/>
  <unicode hex="007B"/>
  <outline>
    <contour>
      <point x="450" y="-246" type="line"/>
      <point x="450" y="-138" type="line"/>
      <point x="327" y="-138" type="line" smooth="yes"/>
      <point x="309" y="-138"/>
      <point x="300" y="-128"/>
      <point x="300" y="-108" type="curve" smooth="yes"/>
      <point x="300" y="166" type="line" smooth="yes"/>
      <point x="300" y="211"/>
      <point x="269" y="246"/>
      <point x="222" y="246" type="curve" smooth="yes"/>
      <point x="206" y="246" type="line"/>
      <point x="206" y="264" type="line"/>
      <point x="222" y="264" type="line" smooth="yes"/>
      <point x="269" y="264"/>
      <point x="300" y="299"/>
      <point x="300" y="344" type="curve" smooth="yes"/>
      <point x="300" y="618" type="line" smooth="yes"/>
      <point x="300" y="638"/>
      <point x="309" y="648"/>
      <point x="327" y="648" type="curve" smooth="yes"/>
      <point x="450" y="648" type="line"/>
      <point x="450" y="756" type="line"/>
      <point x="280" y="756" type="line" smooth="yes"/>
      <point x="220" y="756"/>
      <point x="178" y="714"/>
      <point x="178" y="654" type="curve" smooth="yes"/>
      <point x="178" y="344" type="line" smooth="yes"/>
      <point x="178" y="325"/>
      <point x="169" y="315"/>
      <point x="151" y="315" type="curve" smooth="yes"/>
      <point x="36" y="315" type="line"/>
      <point x="36" y="195" type="line"/>
      <point x="151" y="195" type="line" smooth="yes"/>
      <point x="169" y="195"/>
      <point x="178" y="185"/>
      <point x="178" y="166" type="curve" smooth="yes"/>
      <point x="178" y="-144" type="line" smooth="yes"/>
      <point x="178" y="-204"/>
      <point x="220" y="-246"/>
      <point x="280" y="-246" type="curve" smooth="yes"/>
    </contour>
  </outline>
</glyph>
<glyph name="bar" format="2">
  <advance width="258"/>
  <unicode hex="007C"/>
  <outline>
    <contour>
      <point x="192" y="-246" type="line"/>
      <point x="192" y="806" type="line"/>
      <point x="66" y="806" type="line"/>
      <point x="66" y="-246" type="line"/>
    </contour>
  </outline>
</glyph>
<glyph name="braceright" format="2">
  <advance width="466"/>
  <unicode hex="007D"/>
  <outline>
    <contour>
      <point x="186" y="-246" type="line" smooth="yes"/>
      <point x="246" y="-246"/>
      <point x="288" y="-204"/>
      <point x="288" y="-144" type="curve" smooth="yes"/>
      <point x="288" y="166" type="line" smooth="yes"/>
      <point x="288" y="185"/>
      <point x="297" y="195"/>
      <point x="315" y="195" type="curve" smooth="yes"/>
      <point x="430" y="195" type="line"/>
      <point x="430" y="315" type="line"/>
      <point x="315" y="315" type="line" smooth="yes"/>
      <point x="297" y="315"/>
      <point x="288" y="325"/>
      <point x="288" y="344" type="curve" smooth="yes"/>
      <point x="288" y="654" type="line" smooth="yes"/>
      <point x="288" y="714"/>
      <point x="246" y="756"/>
      <point x="186" y="756" type="curve" smooth="yes"/>
      <point x="16" y="756" type="line"/>
      <point x="16" y="648" type="line"/>
      <point x="139" y="648" type="line" smooth="yes"/>
      <point x="157" y="648"/>
      <point x="166" y="638"/>
      <point x="166" y="618" type="curve" smooth="yes"/>
      <point x="166" y="344" type="line" smooth="yes"/>
      <point x="166" y="299"/>
      <point x="197" y="264"/>
      <point x="244" y="264" type="curve" smooth="yes"/>
      <point x="260" y="264" type="line"/>
      <point x="260" y="246" type="line"/>
      <point x="244" y="246" type="line" smooth="yes"/>
      <point x="197" y="246"/>
      <point x="166" y="211"/>
      <point x="166" y="166" type="curve" smooth="yes"/>
      <point x="166" y="-108" type="line" smooth="yes"/>
      <point x="166" y="-128"/>
      <point x="157" y="-138"/>
      <point x="139" y="-138" type="curve" smooth="yes"/>
      <point x="16" y="-138" type="line"/>
      <point x="16" y="-246" type="line"/>
    </contour>
  </outline>
</glyph>
<glyph name="asciitilde" format="2">
  <advance width="620"/>
  <unicode hex="007E"/>
  <outline>
    <contour>
      <point x="192" y="296" type="line" smooth="yes"/>
      <point x="209" y="309"/>
      <point x="222" y="319"/>
      <point x="238" y="319" type="curve" smooth="yes"/>
      <point x="256" y="319"/>
      <point x="262" y="310"/>
      <point x="281" y="284" type="curve" smooth="yes"/>
      <point x="298" y="260"/>
      <point x="323" y="243"/>
      <point x="362" y="243" type="curve" smooth="yes"/>
      <point x="401" y="243"/>
      <point x="429" y="259"/>
      <point x="456" y="280" type="curve" smooth="yes"/>
      <point x="576" y="370" type="line"/>
      <point x="506" y="463" type="line"/>
      <point x="427" y="404" type="line" smooth="yes"/>
      <point x="410" y="391"/>
      <point x="397" y="381"/>
      <point x="381" y="381" type="curve" smooth="yes"/>
      <point x="363" y="381"/>
      <point x="357" y="390"/>
      <point x="338" y="416" type="curve" smooth="yes"/>
      <point x="321" y="440"/>
      <point x="296" y="457"/>
      <point x="257" y="457" type="curve" smooth="yes"/>
      <point x="218" y="457"/>
      <point x="190" y="441"/>
      <point x="163" y="420" type="curve" smooth="yes"/>
      <point x="43" y="330" type="line"/>
      <point x="113" y="237" type="line"/>
    </contour>
  </outline>
</glyph>
<glyph name="exclamdown" format="2">
  <advance width="298"/>
  <unicode hex="00A1"/>
  <outline>
    <component base="period" xScale="-1" yScale="-1" xOffset="298" yOffset="496"/>
    <contour>
      <point x="213" y="-200" type="line"/>
      <point x="213" y="266" type="line"/>
      <point x="85" y="266" type="line"/>
      <point x="85" y="-200" type="line"/>
    </contour>
  </outline>
</glyph>
<glyph name="cent" format="2">
  <advance width="598"/>
  <unicode hex="00A2"/>
  <outline>
    <contour>
      <point x="307" y="-14" type="curve" smooth="yes"/>
      <point x="449" y="-14"/>
      <point x="530" y="69"/>
      <point x="556" y="176" type="curve"/>
      <point x="434" y="205" type="line"/>
      <point x="423" y="141"/>
      <point x="386" y="98"/>
      <point x="310" y="98" type="curve" smooth="yes"/>
      <point x="234" y="98"/>
      <point x="176" y="149"/>
      <point x="176" y="243" type="curve" smooth="yes"/>
      <point x="176" y="253" type="line" smooth="yes"/>
      <point x="176" y="347"/>
      <point x="234" y="398"/>
      <point x="310" y="398" type="curve" smooth="yes"/>
      <point x="386" y="398"/>
      <point x="423" y="352"/>
      <point x="431" y="292" type="curve"/>
      <point x="553" y="318" type="line"/>
      <point x="532" y="428"/>
      <point x="449" y="510"/>
      <point x="307" y="510" type="curve" smooth="yes"/>
      <point x="163" y="510"/>
      <point x="50" y="417"/>
      <point x="50" y="255" type="curve" smooth="yes"/>
      <point x="50" y="241" type="line" smooth="yes"/>
      <point x="50" y="79"/>
      <point x="163" y="-14"/>
    </contour>
    <contour>
      <point x="365" y="-116" type="line"/>
      <point x="365" y="612" type="line"/>
      <point x="253" y="612" type="line"/>
      <point x="253" y="-116" type="line"/>
    </contour>
  </outline>
</glyph>
<glyph name="sterling" format="2">
  <advance width="638"/>
  <unicode hex="00A3"/>
  <outline>
    <contour>
      <point x="586" y="0" type="line"/>
      <point x="586" y="114" type="line"/>
      <point x="252" y="114" type="line"/>
      <point x="252" y="286" type="line"/>
      <point x="352" y="286" type="line"/>
      <point x="352" y="388" type="line"/>
      <point x="252" y="388" type="line"/>
      <point x="252" y="498" type="line" smooth="yes"/>
      <point x="252" y="562"/>
      <point x="292" y="600"/>
      <point x="354" y="600" type="curve" smooth="yes"/>
      <point x="416" y="600"/>
      <point x="456" y="562"/>
      <point x="456" y="498" type="curve" smooth="yes"/>
      <point x="456" y="432" type="line"/>
      <point x="582" y="432" type="line"/>
      <point x="582" y="494" type="line" smooth="yes"/>
      <point x="582" y="633"/>
      <point x="494" y="714"/>
      <point x="354" y="714" type="curve" smooth="yes"/>
      <point x="214" y="714"/>
      <point x="126" y="633"/>
      <point x="126" y="494" type="curve" smooth="yes"/>
      <point x="126" y="388" type="line"/>
      <point x="56" y="388" type="line"/>
      <point x="56" y="286" type="line"/>
      <point x="126" y="286" type="line"/>
      <point x="126" y="114" type="line"/>
      <point x="52" y="114" type="line"/>
      <point x="52" y="0" type="line"/>
    </contour>
  </outline>
</glyph>
<glyph name="currency" format="2">
  <advance width="620"/>
  <unicode hex="00A4"/>
  <outline>
    <contour>
      <point x="176" y="139" type="line"/>
      <point x="215" y="114"/>
      <point x="259" y="100"/>
      <point x="310" y="100" type="curve" smooth="yes"/>
      <point x="359" y="100"/>
      <point x="405" y="114"/>
      <point x="444" y="139" type="curve"/>
      <point x="505" y="78" type="line"/>
      <point x="582" y="155" type="line"/>
      <point x="521" y="216" type="line"/>
      <point x="545" y="255"/>
      <point x="560" y="299"/>
      <point x="560" y="350" type="curve" smooth="yes"/>
      <point x="560" y="399"/>
      <point x="545" y="445"/>
      <point x="521" y="484" type="curve"/>
      <point x="582" y="545" type="line"/>
      <point x="505" y="622" type="line"/>
      <point x="444" y="561" type="line"/>
      <point x="405" y="585"/>
      <point x="359" y="600"/>
      <point x="310" y="600" type="curve" smooth="yes"/>
      <point x="259" y="600"/>
      <point x="215" y="585"/>
      <point x="176" y="561" type="curve"/>
      <point x="115" y="622" type="line"/>
      <point x="38" y="545" type="line"/>
      <point x="99" y="484" type="line"/>
      <point x="74" y="445"/>
      <point x="60" y="399"/>
      <point x="60" y="350" type="curve" smooth="yes"/>
      <point x="60" y="299"/>
      <point x="74" y="255"/>
      <point x="99" y="216" type="curve"/>
      <point x="38" y="155" type="line"/>
      <point x="115" y="78" type="line"/>
    </contour>
    <contour>
      <point x="310" y="208" type="curve" smooth="yes"/>
      <point x="230" y="208"/>
      <point x="168" y="271"/>
      <point x="168" y="350" type="curve" smooth="yes"/>
      <point x="168" y="430"/>
      <point x="231" y="492"/>
      <point x="310" y="492" type="curve" smooth="yes"/>
      <point x="390" y="492"/>
      <point x="452" y="429"/>
      <point x="452" y="350" type="curve" smooth="yes"/>
      <point x="452" y="270"/>
      <point x="389" y="208"/>
    </contour>
  </outline>
</glyph>
<glyph name="yen" format="2">
  <advance width="620"/>
  <unicode hex="00A5"/>
  <outline>
    <contour>
      <point x="376" y="0" type="line"/>
      <point x="376" y="267" type="line"/>
      <point x="397" y="277" type="line"/>
      <point x="622" y="700" type="line"/>
      <point x="472" y="700" type="line"/>
      <point x="319" y="402" type="line"/>
      <point x="301" y="402" type="line"/>
      <point x="148" y="700" type="line"/>
      <point x="-2" y="700" type="line"/>
      <point x="223" y="277" type="line"/>
      <point x="244" y="267" type="line"/>
      <point x="244" y="0" type="line"/>
    </contour>
    <contour>
      <point x="537" y="106" type="line"/>
      <point x="537" y="208" type="line"/>
      <point x="83" y="208" type="line"/>
      <point x="83" y="106" type="line"/>
    </contour>
    <contour>
      <point x="537" y="262" type="line"/>
      <point x="537" y="364" type="line"/>
      <point x="83" y="364" type="line"/>
      <point x="83" y="262" type="line"/>
    </contour>
  </outline>
</glyph>
<glyph name="section" format="2">
  <advance width="474"/>
  <unicode hex="00A7"/>
  <outline>
    <contour>
      <point x="240" y="-14" type="curve" smooth="yes"/>
      <point x="364" y="-14"/>
      <point x="434" y="56"/>
      <point x="434" y="156" type="curve" smooth="yes"/>
      <point x="434" y="164" type="line" smooth="yes"/>
      <point x="434" y="192"/>
      <point x="428" y="217"/>
      <point x="416" y="238" type="curve"/>
      <point x="428" y="262"/>
      <point x="434" y="291"/>
      <point x="434" y="324" type="curve" smooth="yes"/>
      <point x="434" y="412"/>
      <point x="383" y="466"/>
      <point x="263" y="487" type="curve" smooth="yes"/>
      <point x="206" y="497"/>
      <point x="162" y="513"/>
      <point x="162" y="556" type="curve" smooth="yes"/>
      <point x="162" y="591"/>
      <point x="190" y="612"/>
      <point x="235" y="612" type="curve" smooth="yes"/>
      <point x="295" y="612"/>
      <point x="318" y="578"/>
      <point x="318" y="538" type="curve" smooth="yes"/>
      <point x="318" y="526" type="line"/>
      <point x="426" y="526" type="line"/>
      <point x="426" y="548" type="line" smooth="yes"/>
      <point x="426" y="650"/>
      <point x="346" y="714"/>
      <point x="232" y="714" type="curve" smooth="yes"/>
      <point x="128" y="714"/>
      <point x="52" y="655"/>
      <point x="52" y="556" type="curve" smooth="yes"/>
      <point x="52" y="550" type="line" smooth="yes"/>
      <point x="52" y="520"/>
      <point x="59" y="494"/>
      <point x="73" y="472" type="curve"/>
      <point x="60" y="449"/>
      <point x="52" y="422"/>
      <point x="52" y="390" type="curve" smooth="yes"/>
      <point x="52" y="294"/>
      <point x="119" y="245"/>
      <point x="231" y="225" type="curve" smooth="yes"/>
      <point x="302" y="212"/>
      <point x="324" y="192"/>
      <point x="324" y="152" type="curve" smooth="yes"/>
      <point x="324" y="109"/>
      <point x="296" y="88"/>
      <point x="239" y="88" type="curve" smooth="yes"/>
      <point x="170" y="88"/>
      <point x="138" y="127"/>
      <point x="138" y="186" type="curve" smooth="yes"/>
      <point x="138" y="198" type="line"/>
      <point x="30" y="198" type="line"/>
      <point x="30" y="184" type="line" smooth="yes"/>
      <point x="30" y="65"/>
      <point x="110" y="-14"/>
    </contour>
    <contour>
      <point x="320" y="309" type="curve"/>
      <point x="301" y="316"/>
      <point x="286" y="319"/>
      <point x="263" y="323" type="curve" smooth="yes"/>
      <point x="208" y="333"/>
      <point x="163" y="348"/>
      <point x="163" y="390" type="curve" smooth="yes"/>
      <point x="163" y="397"/>
      <point x="164" y="402"/>
      <point x="166" y="406" type="curve"/>
      <point x="187" y="399"/>
      <point x="208" y="393"/>
      <point x="231" y="389" type="curve" smooth="yes"/>
      <point x="302" y="377"/>
      <point x="321" y="355"/>
      <point x="321" y="320" type="curve" smooth="yes"/>
      <point x="321" y="315"/>
      <point x="321" y="311"/>
    </contour>
  </outline>
</glyph>
<glyph name="copyright" format="2">
  <advance width="720"/>
  <unicode hex="00A9"/>
  <outline>
    <contour>
      <point x="370" y="-12" type="line" smooth="yes"/>
      <point x="554" y="-12"/>
      <point x="670" y="100"/>
      <point x="670" y="290" type="curve" smooth="yes"/>
      <point x="670" y="410" type="line" smooth="yes"/>
      <point x="670" y="600"/>
      <point x="554" y="712"/>
      <point x="370" y="712" type="curve" smooth="yes"/>
      <point x="350" y="712" type="line" smooth="yes"/>
      <point x="166" y="712"/>
      <point x="50" y="600"/>
      <point x="50" y="410" type="curve" smooth="yes"/>
      <point x="50" y="290" type="line" smooth="yes"/>
      <point x="50" y="100"/>
      <point x="166" y="-12"/>
      <point x="350" y="-12" type="curve" smooth="yes"/>
    </contour>
    <contour>
      <point x="352" y="84" type="line" smooth="yes"/>
      <point x="224" y="84"/>
      <point x="152" y="156"/>
      <point x="152" y="288" type="curve" smooth="yes"/>
      <point x="152" y="412" type="line" smooth="yes"/>
      <point x="152" y="544"/>
      <point x="224" y="616"/>
      <point x="352" y="616" type="curve" smooth="yes"/>
      <point x="368" y="616" type="line" smooth="yes"/>
      <point x="496" y="616"/>
      <point x="568" y="544"/>
      <point x="568" y="412" type="curve" smooth="yes"/>
      <point x="568" y="288" type="line" smooth="yes"/>
      <point x="568" y="156"/>
      <point x="496" y="84"/>
      <point x="368" y="84" type="curve" smooth="yes"/>
    </contour>
    <contour>
      <point x="362" y="154" type="curve" smooth="yes"/>
      <point x="457" y="154"/>
      <point x="500" y="210"/>
      <point x="500" y="294" type="curve" smooth="yes"/>
      <point x="500" y="308" type="line"/>
      <point x="406" y="308" type="line"/>
      <point x="406" y="288" type="line" smooth="yes"/>
      <point x="406" y="261"/>
      <point x="392" y="244"/>
      <point x="362" y="244" type="curve" smooth="yes"/>
      <point x="332" y="244"/>
      <point x="318" y="261"/>
      <point x="318" y="288" type="curve" smooth="yes"/>
      <point x="318" y="414" type="line" smooth="yes"/>
      <point x="318" y="441"/>
      <point x="332" y="458"/>
      <point x="362" y="458" type="curve" smooth="yes"/>
      <point x="392" y="458"/>
      <point x="406" y="441"/>
      <point x="406" y="414" type="curve" smooth="yes"/>
      <point x="406" y="394" type="line"/>
      <point x="500" y="394" type="line"/>
      <point x="500" y="408" type="line" smooth="yes"/>
      <point x="500" y="492"/>
      <point x="457" y="548"/>
      <point x="362" y="548" type="curve" smooth="yes"/>
      <point x="277" y="548"/>
      <point x="222" y="494"/>
      <point x="222" y="398" type="curve" smooth="yes"/>
      <point x="222" y="304" type="line" smooth="yes"/>
      <point x="222" y="208"/>
      <point x="277" y="154"/>
    </contour>
  </outline>
</glyph>
<glyph name="ordfeminine" format="2">
  <advance width="419"/>
  <unicode hex="00AA"/>
  <outline>
    <contour>
      <point x="161" y="340" type="curve" smooth="yes"/>
      <point x="228" y="340"/>
      <point x="256" y="377"/>
      <point x="262" y="395" type="curve"/>
      <point x="274" y="395" type="line"/>
      <point x="276" y="367"/>
      <point x="298" y="350"/>
      <point x="333" y="350" type="curve" smooth="yes"/>
      <point x="399" y="350" type="line"/>
      <point x="399" y="422" type="line"/>
      <point x="366" y="422" type="line" smooth="yes"/>
      <point x="354" y="422"/>
      <point x="347" y="429"/>
      <point x="347" y="443" type="curve" smooth="yes"/>
      <point x="347" y="574" type="line" smooth="yes"/>
      <point x="347" y="666"/>
      <point x="287" y="710"/>
      <point x="199" y="710" type="curve" smooth="yes"/>
      <point x="111" y="710"/>
      <point x="62" y="666"/>
      <point x="47" y="613" type="curve"/>
      <point x="128" y="586" type="line"/>
      <point x="134" y="612"/>
      <point x="155" y="636"/>
      <point x="196" y="636" type="curve" smooth="yes"/>
      <point x="238" y="636"/>
      <point x="255" y="612"/>
      <point x="255" y="578" type="curve" smooth="yes"/>
      <point x="255" y="562" type="line"/>
      <point x="166" y="562" type="line" smooth="yes"/>
      <point x="88" y="562"/>
      <point x="34" y="523"/>
      <point x="34" y="452" type="curve" smooth="yes"/>
      <point x="34" y="379"/>
      <point x="87" y="340"/>
    </contour>
    <contour>
      <point x="179" y="414" type="curve" smooth="yes"/>
      <point x="145" y="414"/>
      <point x="126" y="432"/>
      <point x="126" y="456" type="curve" smooth="yes"/>
      <point x="126" y="479"/>
      <point x="145" y="496"/>
      <point x="175" y="496" type="curve" smooth="yes"/>
      <point x="255" y="496" type="line"/>
      <point x="255" y="485" type="line" smooth="yes"/>
      <point x="255" y="436"/>
      <point x="225" y="414"/>
    </contour>
  </outline>
</glyph>
<glyph name="guillemetleft" format="2">
  <advance width="720"/>
  <unicode hex="00AB"/>
  <outline>
    <contour>
      <point x="652" y="6" type="line"/>
      <point x="652" y="142" type="line"/>
      <point x="471" y="239" type="line"/>
      <point x="471" y="257" type="line"/>
      <point x="652" y="354" type="line"/>
      <point x="652" y="490" type="line"/>
      <point x="646" y="490" type="line"/>
      <point x="352" y="316" type="line"/>
      <point x="352" y="180" type="line"/>
      <point x="646" y="6" type="line"/>
    </contour>
    <contour>
      <point x="352" y="6" type="line"/>
      <point x="352" y="142" type="line"/>
      <point x="171" y="239" type="line"/>
      <point x="171" y="257" type="line"/>
      <point x="352" y="354" type="line"/>
      <point x="352" y="490" type="line"/>
      <point x="346" y="490" type="line"/>
      <point x="52" y="316" type="line"/>
      <point x="52" y="180" type="line"/>
      <point x="346" y="6" type="line"/>
    </contour>
  </outline>
</glyph>
<glyph name="logicalnot" format="2">
  <advance width="620"/>
  <unicode hex="00AC"/>
  <outline>
    <contour>
      <point x="520" y="162" type="line"/>
      <point x="520" y="407" type="line"/>
      <point x="100" y="407" type="line"/>
      <point x="100" y="293" type="line"/>
      <point x="408" y="293" type="line"/>
      <point x="408" y="162" type="line"/>
    </contour>
  </outline>
</glyph>
<glyph name="registered" format="2">
  <advance width="516"/>
  <unicode hex="00AE"/>
  <outline>
    <contour>
      <point x="258" y="298" type="curve" smooth="yes"/>
      <point x="378" y="298"/>
      <point x="468" y="384"/>
      <point x="468" y="506" type="curve" smooth="yes"/>
      <point x="468" y="628"/>
      <point x="378" y="714"/>
      <point x="258" y="714" type="curve" smooth="yes"/>
      <point x="138" y="714"/>
      <point x="48" y="628"/>
      <point x="48" y="506" type="curve" smooth="yes"/>
      <point x="48" y="384"/>
      <point x="138" y="298"/>
    </contour>
    <contour>
      <point x="258" y="340" type="curve" smooth="yes"/>
      <point x="158" y="340"/>
      <point x="92" y="406"/>
      <point x="92" y="506" type="curve" smooth="yes"/>
      <point x="92" y="606"/>
      <point x="158" y="672"/>
      <point x="258" y="672" type="curve" smooth="yes"/>
      <point x="358" y="672"/>
      <point x="424" y="606"/>
      <point x="424" y="506" type="curve" smooth="yes"/>
      <point x="424" y="406"/>
      <point x="358" y="340"/>
    </contour>
    <contour>
      <point x="228" y="397" type="line"/>
      <point x="228" y="478" type="line"/>
      <point x="275" y="478" type="line" smooth="yes"/>
      <point x="288" y="478"/>
      <point x="296" y="470"/>
      <point x="296" y="457" type="curve" smooth="yes"/>
      <point x="296" y="397" type="line"/>
      <point x="338" y="397" type="line"/>
      <point x="338" y="455" type="line" smooth="yes"/>
      <point x="338" y="478"/>
      <point x="328" y="491"/>
      <point x="306" y="493" type="curve"/>
      <point x="306" y="503" type="line"/>
      <point x="334" y="513"/>
      <point x="346" y="533"/>
      <point x="346" y="559" type="curve" smooth="yes"/>
      <point x="346" y="591"/>
      <point x="320" y="619"/>
      <point x="271" y="619" type="curve" smooth="yes"/>
      <point x="186" y="619" type="line"/>
      <point x="186" y="397" type="line"/>
    </contour>
    <contour>
      <point x="228" y="581" type="line"/>
      <point x="271" y="581" type="line" smooth="yes"/>
      <point x="293" y="581"/>
      <point x="304" y="567"/>
      <point x="304" y="549" type="curve" smooth="yes"/>
      <point x="304" y="531"/>
      <point x="293" y="516"/>
      <point x="271" y="516" type="curve" smooth="yes"/>
      <point x="228" y="516" type="line"/>
    </contour>
  </outline>
</glyph>
<glyph name="macron" format="2">
  <advance width="408"/>
  <unicode hex="00AF"/>
  <anchor x="204" y="496" name="_top"/>
  <outline>
    <contour>
      <point x="368" y="566" type="line"/>
      <point x="368" y="666" type="line"/>
      <point x="40" y="666" type="line"/>
      <point x="40" y="566" type="line"/>
    </contour>
  </outline>
</glyph>
<glyph name="degree" format="2">
  <advance width="394"/>
  <unicode hex="00B0"/>
  <outline>
    <contour>
      <point x="197" y="394" type="curve" smooth="yes"/>
      <point x="289" y="394"/>
      <point x="362" y="461"/>
      <point x="362" y="554" type="curve" smooth="yes"/>
      <point x="362" y="647"/>
      <point x="289" y="714"/>
      <point x="197" y="714" type="curve" smooth="yes"/>
      <point x="105" y="714"/>
      <point x="32" y="647"/>
      <point x="32" y="554" type="curve" smooth="yes"/>
      <point x="32" y="461"/>
      <point x="105" y="394"/>
    </contour>
    <contour>
      <point x="197" y="490" type="curve" smooth="yes"/>
      <point x="160" y="490"/>
      <point x="132" y="516"/>
      <point x="132" y="554" type="curve" smooth="yes"/>
      <point x="132" y="592"/>
      <point x="160" y="618"/>
      <point x="197" y="618" type="curve" smooth="yes"/>
      <point x="234" y="618"/>
      <point x="262" y="592"/>
      <point x="262" y="554" type="curve" smooth="yes"/>
      <point x="262" y="516"/>
      <point x="234" y="490"/>
    </contour>
  </outline>
</glyph>
<glyph name="plusminus" format="2">
  <advance width="620"/>
  <unicode hex="00B1"/>
  <outline>
    <contour>
      <point x="369" y="162" type="line"/>
      <point x="369" y="294" type="line"/>
      <point x="519" y="294" type="line"/>
      <point x="519" y="408" type="line"/>
      <point x="369" y="408" type="line"/>
      <point x="369" y="540" type="line"/>
      <point x="251" y="540" type="line"/>
      <point x="251" y="408" type="line"/>
      <point x="101" y="408" type="line"/>
      <point x="101" y="294" type="line"/>
      <point x="251" y="294" type="line"/>
      <point x="251" y="162" type="line"/>
    </contour>
    <contour>
      <point x="519" y="0" type="line"/>
      <point x="519" y="114" type="line"/>
      <point x="101" y="114" type="line"/>
      <point x="101" y="0" type="line"/>
    </contour>
  </outline>
</glyph>
<glyph name="micro" format="2">
  <advance width="624"/>
  <unicode hex="00B5"/>
  <outline>
    <contour>
      <point x="188" y="-200" type="line"/>
      <point x="188" y="18" type="line"/>
      <point x="206" y="18" type="line"/>
      <point x="222" y="6"/>
      <point x="246" y="-8"/>
      <point x="289" y="-8" type="curve" smooth="yes"/>
      <point x="360" y="-8"/>
      <point x="404" y="27"/>
      <point x="422" y="74" type="curve"/>
      <point x="440" y="74" type="line"/>
      <point x="440" y="70" type="line"/>
      <point x="443" y="24"/>
      <point x="477" y="0"/>
      <point x="526" y="0" type="curve" smooth="yes"/>
      <point x="610" y="0" type="line"/>
      <point x="610" y="104" type="line"/>
      <point x="570" y="104" type="line" smooth="yes"/>
      <point x="552" y="104"/>
      <point x="542" y="114"/>
      <point x="542" y="134" type="curve" smooth="yes"/>
      <point x="542" y="496" type="line"/>
      <point x="416" y="496" type="line"/>
      <point x="416" y="236" type="line" smooth="yes"/>
      <point x="416" y="148"/>
      <point x="375" y="98"/>
      <point x="298" y="98" type="curve" smooth="yes"/>
      <point x="230" y="98"/>
      <point x="192" y="139"/>
      <point x="192" y="208" type="curve" smooth="yes"/>
      <point x="192" y="496" type="line"/>
      <point x="66" y="496" type="line"/>
      <point x="66" y="-200" type="line"/>
    </contour>
  </outline>
</glyph>
<glyph name="paragraph" format="2">
  <advance width="614"/>
  <unicode hex="00B6"/>
  <outline>
    <contour>
      <point x="362" y="0" type="line"/>
      <point x="362" y="598" type="line"/>
      <point x="440" y="598" type="line"/>
      <point x="440" y="0" type="line"/>
      <point x="548" y="0" type="line"/>
      <point x="548" y="700" type="line"/>
      <point x="234" y="700" type="line" smooth="yes"/>
      <point x="107" y="700"/>
      <point x="16" y="618"/>
      <point x="16" y="498" type="curve" smooth="yes"/>
      <point x="16" y="486" type="line" smooth="yes"/>
      <point x="16" y="370"/>
      <point x="103" y="284"/>
      <point x="228" y="284" type="curve" smooth="yes"/>
      <point x="254" y="284" type="line"/>
      <point x="254" y="0" type="line"/>
    </contour>
    <contour>
      <point x="222" y="386" type="line" smooth="yes"/>
      <point x="168" y="386"/>
      <point x="124" y="426"/>
      <point x="124" y="489" type="curve" smooth="yes"/>
      <point x="124" y="495" type="line" smooth="yes"/>
      <point x="124" y="557"/>
      <point x="165" y="598"/>
      <point x="222" y="598" type="curve" smooth="yes"/>
      <point x="254" y="598" type="line"/>
      <point x="254" y="386" type="line"/>
    </contour>
  </outline>
</glyph>
<glyph name="ordmasculine" format="2">
  <advance width="436"/>
  <unicode hex="00BA"/>
  <outline>
    <contour>
      <point x="218" y="340" type="curve" smooth="yes"/>
      <point x="330" y="340"/>
      <point x="404" y="407"/>
      <point x="404" y="525" type="curve" smooth="yes"/>
      <point x="404" y="643"/>
      <point x="330" y="710"/>
      <point x="218" y="710" type="curve" smooth="yes"/>
      <point x="106" y="710"/>
      <point x="32" y="643"/>
      <point x="32" y="525" type="curve" smooth="yes"/>
      <point x="32" y="407"/>
      <point x="106" y="340"/>
    </contour>
    <contour>
      <point x="218" y="416" type="curve" smooth="yes"/>
      <point x="162" y="416"/>
      <point x="126" y="453"/>
      <point x="126" y="525" type="curve" smooth="yes"/>
      <point x="126" y="597"/>
      <point x="162" y="634"/>
      <point x="218" y="634" type="curve" smooth="yes"/>
      <point x="274" y="634"/>
      <point x="310" y="597"/>
      <point x="310" y="525" type="curve" smooth="yes"/>
      <point x="310" y="453"/>
      <point x="274" y="416"/>
    </contour>
  </outline>
</glyph>
<glyph name="guillemetright" format="2">
  <advance width="720"/>
  <unicode hex="00BB"/>
  <outline>
    <contour>
      <point x="374" y="6" type="line"/>
      <point x="668" y="180" type="line"/>
      <point x="668" y="316" type="line"/>
      <point x="374" y="490" type="line"/>
      <point x="368" y="490" type="line"/>
      <point x="368" y="354" type="line"/>
      <point x="549" y="257" type="line"/>
      <point x="549" y="239" type="line"/>
      <point x="368" y="142" type="line"/>
      <point x="368" y="6" type="line"/>
    </contour>
    <contour>
      <point x="74" y="6" type="line"/>
      <point x="368" y="180" type="line"/>
      <point x="368" y="316" type="line"/>
      <point x="74" y="490" type="line"/>
      <point x="68" y="490" type="line"/>
      <point x="68" y="354" type="line"/>
      <point x="249" y="257" type="line"/>
      <point x="249" y="239" type="line"/>
      <point x="68" y="142" type="line"/>
      <point x="68" y="6" type="line"/>
    </contour>
  </outline>
</glyph>
<glyph name="questiondown" format="2">
  <advance width="578"/>
  <unicode hex="00BF"/>
  <outline>
    <component base="period" xScale="-1" yScale="-1" xOffset="448" yOffset="496"/>
    <contour>
      <point x="288" y="-214" type="curve" smooth="yes"/>
      <point x="432" y="-214"/>
      <point x="544" y="-130"/>
      <point x="544" y="8" type="curve" smooth="yes"/>
      <point x="544" y="28" type="line"/>
      <point x="414" y="28" type="line"/>
      <point x="414" y="6" type="line" smooth="yes"/>
      <point x="414" y="-66"/>
      <point x="360" y="-102"/>
      <point x="288" y="-102" type="curve" smooth="yes"/>
      <point x="218" y="-102"/>
      <point x="172" y="-68"/>
      <point x="172" y="-10" type="curve" smooth="yes"/>
      <point x="172" y="44"/>
      <point x="205" y="71"/>
      <point x="265" y="99" type="curve" smooth="yes"/>
      <point x="282" y="107" type="line" smooth="yes"/>
      <point x="344" y="136"/>
      <point x="369" y="178"/>
      <point x="369" y="246" type="curve" smooth="yes"/>
      <point x="369" y="266" type="line"/>
      <point x="237" y="266" type="line"/>
      <point x="237" y="252" type="line" smooth="yes"/>
      <point x="237" y="223"/>
      <point x="229" y="210"/>
      <point x="205" y="199" type="curve" smooth="yes"/>
      <point x="188" y="191" type="line" smooth="yes"/>
      <point x="118" y="158"/>
      <point x="42" y="110"/>
      <point x="42" y="-10" type="curve" smooth="yes"/>
      <point x="42" y="-130"/>
      <point x="146" y="-214"/>
    </contour>
  </outline>
</glyph>
<glyph name="AE" format="2">
  <advance width="821"/>
  <unicode hex="00C6"/>
  <anchor x="425" y="700" name="top"/>
  <outline>
    <contour>
      <point x="789" y="0" type="line"/>
      <point x="789" y="120" type="line"/>
      <point x="505" y="120" type="line"/>
      <point x="505" y="293" type="line"/>
      <point x="755" y="293" type="line"/>
      <point x="755" y="413" type="line"/>
      <point x="505" y="413" type="line"/>
      <point x="505" y="580" type="line"/>
      <point x="783" y="580" type="line"/>
      <point x="783" y="700" type="line"/>
      <point x="375" y="700" type="line"/>
      <point x="375" y="0" type="line"/>
    </contour>
    <contour>
      <point x="153" y="0" type="line"/>
      <point x="203" y="154" type="line"/>
      <point x="375" y="154" type="line"/>
      <point x="375" y="276" type="line"/>
      <point x="242" y="276" type="line"/>
      <point x="357" y="630" type="line"/>
      <point x="375" y="630" type="line"/>
      <point x="375" y="700" type="line"/>
      <point x="252" y="700" type="line"/>
      <point x="18" y="0" type="line"/>
    </contour>
  </outline>
</glyph>
<glyph name="multiply" format="2">
  <advance width="620"/>
  <unicode hex="00D7"/>
  <outline>
    <contour>
      <point x="310" y="269" type="line"/>
      <point x="443" y="138" type="line"/>
      <point x="524" y="219" type="line"/>
      <point x="392" y="350" type="line"/>
      <point x="524" y="481" type="line"/>
      <point x="443" y="562" type="line"/>
      <point x="310" y="431" type="line"/>
      <point x="177" y="562" type="line"/>
      <point x="96" y="481" type="line"/>
      <point x="228" y="350" type="line"/>
      <point x="96" y="219" type="line"/>
      <point x="177" y="138" type="line"/>
    </contour>
  </outline>
</glyph>
<glyph name="Thorn" format="2">
  <advance width="604"/>
  <unicode hex="00DE"/>
  <outline>
    <contour>
      <point x="354" y="138" type="line" smooth="yes"/>
      <point x="482" y="138"/>
      <point x="578" y="222"/>
      <point x="578" y="353" type="curve" smooth="yes"/>
      <point x="578" y="367" type="line" smooth="yes"/>
      <point x="578" y="498"/>
      <point x="486" y="582"/>
      <point x="354" y="582" type="curve" smooth="yes"/>
      <point x="198" y="582" type="line"/>
      <point x="198" y="462" type="line"/>
      <point x="341" y="462" type="line" smooth="yes"/>
      <point x="404" y="462"/>
      <point x="446" y="425"/>
      <point x="446" y="365" type="curve" smooth="yes"/>
      <point x="446" y="355" type="line" smooth="yes"/>
      <point x="446" y="295"/>
      <point x="403" y="258"/>
      <point x="341" y="258" type="curve" smooth="yes"/>
      <point x="198" y="258" type="line"/>
      <point x="198" y="138" type="line"/>
    </contour>
    <contour>
      <point x="198" y="0" type="line"/>
      <point x="198" y="700" type="line"/>
      <point x="66" y="700" type="line"/>
      <point x="66" y="0" type="line"/>
    </contour>
  </outline>
</glyph>
<glyph name="germandbls" format="2">
  <advance width="651"/>
  <unicode hex="00DF"/>
  <outline>
    <contour>
      <point x="426" y="-14" type="curve" smooth="yes"/>
      <point x="552" y="-14"/>
      <point x="627" y="60"/>
      <point x="627" y="158" type="curve" smooth="yes"/>
      <point x="627" y="256"/>
      <point x="564" y="298"/>
      <point x="480" y="328" type="curve" smooth="yes"/>
      <point x="455" y="337" type="line" smooth="yes"/>
      <point x="437" y="343"/>
      <point x="429" y="350"/>
      <point x="429" y="360" type="curve" smooth="yes"/>
      <point x="429" y="369"/>
      <point x="435" y="375"/>
      <point x="446" y="382" type="curve" smooth="yes"/>
      <point x="500" y="417"/>
      <point x="552" y="460"/>
      <point x="552" y="547" type="curve" smooth="yes"/>
      <point x="552" y="643"/>
      <point x="460" y="714"/>
      <point x="336" y="714" type="curve" smooth="yes"/>
      <point x="179" y="714"/>
      <point x="70" y="610"/>
      <point x="70" y="430" type="curve" smooth="yes"/>
      <point x="70" y="0" type="line"/>
      <point x="196" y="0" type="line"/>
      <point x="196" y="434" type="line" smooth="yes"/>
      <point x="196" y="564"/>
      <point x="269" y="608"/>
      <point x="336" y="608" type="curve" smooth="yes"/>
      <point x="390" y="608"/>
      <point x="428" y="581"/>
      <point x="428" y="543" type="curve" smooth="yes"/>
      <point x="428" y="501"/>
      <point x="397" y="473"/>
      <point x="365" y="450" type="curve" smooth="yes"/>
      <point x="322" y="419"/>
      <point x="300" y="393"/>
      <point x="300" y="347" type="curve" smooth="yes"/>
      <point x="300" y="303"/>
      <point x="326" y="269"/>
      <point x="385" y="248" type="curve" smooth="yes"/>
      <point x="427" y="233" type="line" smooth="yes"/>
      <point x="474" y="216"/>
      <point x="503" y="199"/>
      <point x="503" y="159" type="curve" smooth="yes"/>
      <point x="503" y="119"/>
      <point x="474" y="88"/>
      <point x="426" y="88" type="curve" smooth="yes"/>
      <point x="372" y="88"/>
      <point x="343" y="119"/>
      <point x="333" y="164" type="curve"/>
      <point x="219" y="127" type="line"/>
      <point x="237" y="60"/>
      <point x="300" y="-14"/>
    </contour>
  </outline>
</glyph>
<glyph name="ae" format="2">
  <advance width="874"/>
  <unicode hex="00E6"/>
  <anchor x="444" y="496" name="top"/>
  <outline>
    <contour>
      <point x="615" y="-14" type="curve" smooth="yes"/>
      <point x="726" y="-14"/>
      <point x="780" y="39"/>
      <point x="819" y="94" type="curve"/>
      <point x="726" y="161" type="line"/>
      <point x="708" y="132"/>
      <point x="677" y="96"/>
      <point x="609" y="96" type="curve" smooth="yes"/>
      <point x="539" y="96"/>
      <point x="494" y="142"/>
      <point x="491" y="205" type="curve"/>
      <point x="832" y="205" type="line"/>
      <point x="832" y="266" type="line" smooth="yes"/>
      <point x="832" y="400"/>
      <point x="751" y="510"/>
      <point x="607" y="510" type="curve" smooth="yes"/>
      <point x="473" y="510"/>
      <point x="378" y="398"/>
      <point x="378" y="252" type="curve" smooth="yes"/>
      <point x="378" y="106"/>
      <point x="473" y="-14"/>
    </contour>
    <contour>
      <point x="250" y="88" type="curve" smooth="yes"/>
      <point x="192" y="88"/>
      <point x="162" y="113"/>
      <point x="162" y="149" type="curve" smooth="yes"/>
      <point x="162" y="185"/>
      <point x="192" y="205"/>
      <point x="243" y="205" type="curve" smooth="yes"/>
      <point x="368" y="205" type="line"/>
      <point x="368" y="198" type="line" smooth="yes"/>
      <point x="368" y="132"/>
      <point x="320" y="88"/>
    </contour>
    <contour>
      <point x="236" y="-14" type="curve" smooth="yes"/>
      <point x="353" y="-14"/>
      <point x="399" y="45"/>
      <point x="417" y="75" type="curve"/>
      <point x="445" y="75" type="line"/>
      <point x="436" y="260" type="line"/>
      <point x="458" y="442" type="line"/>
      <point x="430" y="442" type="line"/>
      <point x="398" y="482"/>
      <point x="351" y="510"/>
      <point x="270" y="510" type="curve" smooth="yes"/>
      <point x="145" y="510"/>
      <point x="79" y="445"/>
      <point x="52" y="370" type="curve"/>
      <point x="164" y="331" type="line"/>
      <point x="177" y="375"/>
      <point x="209" y="408"/>
      <point x="270" y="408" type="curve" smooth="yes"/>
      <point x="334" y="408"/>
      <point x="368" y="373"/>
      <point x="368" y="328" type="curve" smooth="yes"/>
      <point x="368" y="299" type="line"/>
      <point x="234" y="299" type="line" smooth="yes"/>
      <point x="118" y="299"/>
      <point x="38" y="246"/>
      <point x="38" y="144" type="curve" smooth="yes"/>
      <point x="38" y="42"/>
      <point x="120" y="-14"/>
    </contour>
    <contour>
      <point x="492" y="299" type="line"/>
      <point x="494" y="360"/>
      <point x="535" y="400"/>
      <point x="602" y="400" type="curve" smooth="yes"/>
      <point x="665" y="400"/>
      <point x="706" y="362"/>
      <point x="708" y="299" type="curve"/>
    </contour>
  </outline>
</glyph>
<glyph name="eth" format="2">
  <advance width="616"/>
  <unicode hex="00F0"/>
  <outline>
    <contour>
      <point x="307" y="-14" type="curve" smooth="yes"/>
      <point x="462" y="-12"/>
      <point x="568" y="89"/>
      <point x="568" y="289" type="curve" smooth="yes"/>
      <point x="568" y="513"/>
      <point x="451" y="695"/>
      <point x="228" y="770" type="curve"/>
      <point x="188" y="669" type="line"/>
      <point x="317" y="623"/>
      <point x="406" y="545"/>
      <point x="431" y="440" type="curve"/>
      <point x="413" y="440" type="line"/>
      <point x="382" y="476"/>
      <point x="339" y="501"/>
      <point x="271" y="500" type="curve" smooth="yes"/>
      <point x="149" y="498"/>
      <point x="46" y="401"/>
      <point x="46" y="252" type="curve" smooth="yes"/>
      <point x="46" y="242" type="line" smooth="yes"/>
      <point x="46" y="89"/>
      <point x="152" y="-16"/>
    </contour>
    <contour>
      <point x="306" y="98" type="curve" smooth="yes"/>
      <point x="229" y="98"/>
      <point x="172" y="151"/>
      <point x="172" y="245" type="curve" smooth="yes"/>
      <point x="172" y="249" type="line" smooth="yes"/>
      <point x="172" y="343"/>
      <point x="228" y="396"/>
      <point x="306" y="396" type="curve" smooth="yes"/>
      <point x="384" y="396"/>
      <point x="440" y="343"/>
      <point x="440" y="249" type="curve" smooth="yes"/>
      <point x="440" y="245" type="line" smooth="yes"/>
      <point x="440" y="151"/>
      <point x="383" y="98"/>
    </contour>
    <contour>
      <point x="436" y="740" type="line"/>
      <point x="377" y="784" type="line"/>
      <point x="224" y="573" type="line"/>
      <point x="282" y="530" type="line"/>
    </contour>
  </outline>
</glyph>
<glyph name="divide" format="2">
  <advance width="620"/>
  <unicode hex="00F7"/>
  <outline>
    <contour>
      <point x="519" y="293" type="line"/>
      <point x="519" y="407" type="line"/>
      <point x="101" y="407" type="line"/>
      <point x="101" y="293" type="line"/>
    </contour>
    <contour>
      <point x="310" y="73" type="curve" smooth="yes"/>
      <point x="358" y="73"/>
      <point x="396" y="112"/>
      <point x="396" y="159" type="curve" smooth="yes"/>
      <point x="396" y="206"/>
      <point x="358" y="245"/>
      <point x="310" y="245" type="curve" smooth="yes"/>
      <point x="262" y="245"/>
      <point x="224" y="206"/>
      <point x="224" y="159" type="curve" smooth="yes"/>
      <point x="224" y="112"/>
      <point x="262" y="73"/>
    </contour>
    <contour>
      <point x="310" y="455" type="curve" smooth="yes"/>
      <point x="358" y="455"/>
      <point x="396" y="494"/>
      <point x="396" y="541" type="curve" smooth="yes"/>
      <point x="396" y="588"/>
      <point x="358" y="627"/>
      <point x="310" y="627" type="curve" smooth="yes"/>
      <point x="262" y="627"/>
      <point x="224" y="588"/>
      <point x="224" y="541" type="curve" smooth="yes"/>
      <point x="224" y="494"/>
      <point x="262" y="455"/>
    </contour>
  </outline>
</glyph>
<glyph name="thorn" format="2">
  <advance width="638"/>
  <unicode hex="00FE"/>
  <outline>
    <contour>
      <point x="196" y="-200" type="line"/>
      <point x="196" y="57" type="line"/>
      <point x="214" y="57" type="line"/>
      <point x="235" y="22"/>
      <point x="278" y="-14"/>
      <point x="368" y="-14" type="curve" smooth="yes"/>
      <point x="488" y="-14"/>
      <point x="592" y="78"/>
      <point x="592" y="240" type="curve" smooth="yes"/>
      <point x="592" y="256" type="line" smooth="yes"/>
      <point x="592" y="418"/>
      <point x="488" y="510"/>
      <point x="368" y="510" type="curve" smooth="yes"/>
      <point x="278" y="510"/>
      <point x="235" y="474"/>
      <point x="214" y="439" type="curve"/>
      <point x="196" y="439" type="line"/>
      <point x="196" y="700" type="line"/>
      <point x="70" y="700" type="line"/>
      <point x="70" y="-200" type="line"/>
    </contour>
    <contour>
      <point x="330" y="96" type="curve" smooth="yes"/>
      <point x="252" y="96"/>
      <point x="194" y="147"/>
      <point x="194" y="243" type="curve" smooth="yes"/>
      <point x="194" y="253" type="line" smooth="yes"/>
      <point x="194" y="349"/>
      <point x="252" y="400"/>
      <point x="330" y="400" type="curve" smooth="yes"/>
      <point x="408" y="400"/>
      <point x="466" y="349"/>
      <point x="466" y="253" type="curve" smooth="yes"/>
      <point x="466" y="243" type="line" smooth="yes"/>
      <point x="466" y="147"/>
      <point x="408" y="96"/>
    </contour>
  </outline>
</glyph>
<glyph name="idotless" format="2">
  <advance width="266"/>
  <unicode hex="0131"/>
  <anchor x="133" y="0" name="bottom"/>
  <anchor x="133" y="0" name="ogonek"/>
  <anchor x="133" y="496" name="top"/>
  <outline>
    <contour>
      <point x="196" y="0" type="line"/>
      <point x="196" y="496" type="line"/>
      <point x="70" y="496" type="line"/>
      <point x="70" y="0" type="line"/>
    </contour>
  </outline>
</glyph>
<glyph name="IJ" format="2">
  <advance width="730"/>
  <unicode hex="0132"/>
  <outline>
    <contour>
      <point x="369" y="-14" type="curve" smooth="yes"/>
      <point x="518" y="-14"/>
      <point x="608" y="65"/>
      <point x="608" y="210" type="curve" smooth="yes"/>
      <point x="608" y="580" type="line"/>
      <point x="688" y="580" type="line"/>
      <point x="688" y="700" type="line"/>
      <point x="396" y="700" type="line"/>
      <point x="396" y="580" type="line"/>
      <point x="476" y="580" type="line"/>
      <point x="476" y="210" type="line" smooth="yes"/>
      <point x="476" y="146"/>
      <point x="436" y="110"/>
      <point x="365" y="110" type="curve" smooth="yes"/>
      <point x="290" y="110"/>
      <point x="248" y="147"/>
      <point x="248" y="210" type="curve" smooth="yes"/>
      <point x="248" y="230" type="line"/>
      <point x="116" y="230" type="line"/>
      <point x="116" y="210" type="line" smooth="yes"/>
      <point x="116" y="69"/>
      <point x="213" y="-14"/>
    </contour>
    <contour>
      <point x="248" y="320" type="line"/>
      <point x="248" y="580" type="line"/>
      <point x="328" y="580" type="line"/>
      <point x="328" y="700" type="line"/>
      <point x="36" y="700" type="line"/>
      <point x="36" y="580" type="line"/>
      <point x="116" y="580" type="line"/>
      <point x="116" y="320" type="line"/>
    </contour>
  </outline>
</glyph>
<glyph name="kgreenlandic" format="2">
  <advance width="564"/>
  <unicode hex="0138"/>
  <outline>
    <contour>
      <point x="196" y="0" type="line"/>
      <point x="196" y="197" type="line"/>
      <point x="214" y="197" type="line"/>
      <point x="388" y="0" type="line"/>
      <point x="550" y="0" type="line"/>
      <point x="313" y="256" type="line"/>
      <point x="542" y="496" type="line"/>
      <point x="378" y="496" type="line"/>
      <point x="214" y="313" type="line"/>
      <point x="196" y="313" type="line"/>
      <point x="196" y="496" type="line"/>
      <point x="70" y="496" type="line"/>
      <point x="70" y="0" type="line"/>
    </contour>
  </outline>
</glyph>
<glyph name="Lslash" format="2">
  <advance width="612"/>
  <unicode hex="0141"/>
  <outline>
    <contour>
      <point x="588" y="0" type="line"/>
      <point x="588" y="120" type="line"/>
      <point x="268" y="120" type="line"/>
      <point x="268" y="700" type="line"/>
      <point x="136" y="700" type="line"/>
      <point x="136" y="0" type="line"/>
    </contour>
    <contour>
      <point x="396" y="393" type="line"/>
      <point x="356" y="474" type="line"/>
      <point x="8" y="302" type="line"/>
      <point x="48" y="221" type="line"/>
    </contour>
  </outline>
</glyph>
<glyph name="lslash" format="2">
  <advance width="420"/>
  <unicode hex="0142"/>
  <outline>
    <contour>
      <point x="404" y="359" type="line"/>
      <point x="367" y="434" type="line"/>
      <point x="16" y="262" type="line"/>
      <point x="53" y="187" type="line"/>
    </contour>
    <contour>
      <point x="273" y="0" type="line"/>
      <point x="273" y="700" type="line"/>
      <point x="147" y="700" type="line"/>
      <point x="147" y="0" type="line"/>
    </contour>
  </outline>
</glyph>
<glyph name="Eng" format="2">
  <advance width="670"/>
  <unicode hex="014A"/>
  <outline>
    <contour>
      <point x="198" y="0" type="line"/>
      <point x="198" y="610" type="line"/>
      <point x="216" y="610" type="line"/>
      <point x="353" y="0" type="line"/>
      <point x="604" y="0" type="line"/>
      <point x="604" y="700" type="line"/>
      <point x="472" y="700" type="line"/>
      <point x="472" y="90" type="line"/>
      <point x="454" y="90" type="line"/>
      <point x="317" y="700" type="line"/>
      <point x="66" y="700" type="line"/>
      <point x="66" y="0" type="line"/>
    </contour>
    <contour>
      <point x="494" y="-200" type="line" smooth="yes"/>
      <point x="560" y="-200"/>
      <point x="604" y="-157"/>
      <point x="604" y="-88" type="curve" smooth="yes"/>
      <point x="604" y="0" type="line"/>
      <point x="476" y="0" type="line"/>
      <point x="476" y="-66" type="line" smooth="yes"/>
      <point x="476" y="-86"/>
      <point x="466" y="-96"/>
      <point x="448" y="-96" type="curve" smooth="yes"/>
      <point x="354" y="-96" type="line"/>
      <point x="354" y="-200" type="line"/>
    </contour>
  </outline>
</glyph>
<glyph name="eng" format="2">
  <advance width="616"/>
  <unicode hex="014B"/>
  <outline>
    <contour>
      <point x="196" y="0" type="line"/>
      <point x="196" y="252" type="line" smooth="yes"/>
      <point x="196" y="344"/>
      <point x="241" y="398"/>
      <point x="318" y="398" type="curve" smooth="yes"/>
      <point x="386" y="398"/>
      <point x="424" y="361"/>
      <point x="424" y="286" type="curve" smooth="yes"/>
      <point x="424" y="0" type="line"/>
      <point x="550" y="0" type="line"/>
      <point x="550" y="296" type="line" smooth="yes"/>
      <point x="550" y="419"/>
      <point x="473" y="504"/>
      <point x="357" y="504" type="curve" smooth="yes"/>
      <point x="268" y="504"/>
      <point x="228" y="465"/>
      <point x="212" y="431" type="curve"/>
      <point x="194" y="431" type="line"/>
      <point x="194" y="496" type="line"/>
      <point x="70" y="496" type="line"/>
      <point x="70" y="0" type="line"/>
    </contour>
    <contour>
      <point x="440" y="-200" type="line" smooth="yes"/>
      <point x="506" y="-200"/>
      <point x="550" y="-155"/>
      <point x="550" y="-88" type="curve" smooth="yes"/>
      <point x="550" y="0" type="line"/>
      <point x="424" y="0" type="line"/>
      <point x="424" y="-62" type="line" smooth="yes"/>
      <point x="424" y="-82"/>
      <point x="414" y="-92"/>
      <point x="396" y="-92" type="curve" smooth="yes"/>
      <point x="314" y="-92" type="line"/>
      <point x="314" y="-200" type="line"/>
    </contour>
  </outline>
</glyph>
<glyph name="OE" format="2">
  <advance width="836"/>
  <unicode hex="0152"/>
  <outline>
    <contour>
      <point x="804" y="0" type="line"/>
      <point x="804" y="120" type="line"/>
      <point x="520" y="120" type="line"/>
      <point x="520" y="293" type="line"/>
      <point x="770" y="293" type="line"/>
      <point x="770" y="413" type="line"/>
      <point x="520" y="413" type="line"/>
      <point x="520" y="580" type="line"/>
      <point x="798" y="580" type="line"/>
      <point x="798" y="700" type="line"/>
      <point x="390" y="700" type="line"/>
      <point x="390" y="0" type="line"/>
    </contour>
    <contour>
      <point x="390" y="112" type="line"/>
      <point x="240" y="112"/>
      <point x="182" y="188"/>
      <point x="182" y="312" type="curve" smooth="yes"/>
      <point x="182" y="388" type="line" smooth="yes"/>
      <point x="182" y="512"/>
      <point x="240" y="588"/>
      <point x="390" y="588" type="curve"/>
      <point x="390" y="700" type="line"/>
      <point x="174" y="700"/>
      <point x="50" y="588"/>
      <point x="50" y="382" type="curve" smooth="yes"/>
      <point x="50" y="318" type="line" smooth="yes"/>
      <point x="50" y="112"/>
      <point x="174" y="0"/>
      <point x="390" y="0" type="curve"/>
    </contour>
  </outline>
</glyph>
<glyph name="oe" format="2">
  <advance width="984"/>
  <unicode hex="0153"/>
  <outline>
    <contour>
      <point x="299" y="-14" type="curve" smooth="yes"/>
      <point x="393" y="-14"/>
      <point x="458" y="24"/>
      <point x="497" y="84" type="curve"/>
      <point x="515" y="84" type="line"/>
      <point x="548" y="25"/>
      <point x="618" y="-14"/>
      <point x="707" y="-14" type="curve" smooth="yes"/>
      <point x="839" y="-14"/>
      <point x="898" y="63"/>
      <point x="926" y="116" type="curve"/>
      <point x="823" y="170" type="line"/>
      <point x="806" y="132"/>
      <point x="777" y="96"/>
      <point x="707" y="96" type="curve" smooth="yes"/>
      <point x="637" y="96"/>
      <point x="584" y="143"/>
      <point x="581" y="211" type="curve"/>
      <point x="942" y="211" type="line"/>
      <point x="942" y="254" type="line" smooth="yes"/>
      <point x="942" y="406"/>
      <point x="847" y="510"/>
      <point x="701" y="510" type="curve" smooth="yes"/>
      <point x="621" y="510"/>
      <point x="555" y="472"/>
      <point x="515" y="412" type="curve"/>
      <point x="497" y="412" type="line"/>
      <point x="458" y="472"/>
      <point x="393" y="510"/>
      <point x="299" y="510" type="curve" smooth="yes"/>
      <point x="157" y="510"/>
      <point x="46" y="416"/>
      <point x="46" y="256" type="curve" smooth="yes"/>
      <point x="46" y="240" type="line" smooth="yes"/>
      <point x="46" y="80"/>
      <point x="157" y="-14"/>
    </contour>
    <contour>
      <point x="306" y="98" type="curve" smooth="yes"/>
      <point x="229" y="98"/>
      <point x="172" y="150"/>
      <point x="172" y="243" type="curve" smooth="yes"/>
      <point x="172" y="253" type="line" smooth="yes"/>
      <point x="172" y="346"/>
      <point x="228" y="398"/>
      <point x="306" y="398" type="curve" smooth="yes"/>
      <point x="384" y="398"/>
      <point x="440" y="346"/>
      <point x="440" y="253" type="curve" smooth="yes"/>
      <point x="440" y="243" type="line" smooth="yes"/>
      <point x="440" y="150"/>
      <point x="383" y="98"/>
    </contour>
    <contour>
      <point x="582" y="305" type="line"/>
      <point x="590" y="360"/>
      <point x="632" y="400"/>
      <point x="700" y="400" type="curve" smooth="yes"/>
      <point x="765" y="400"/>
      <point x="808" y="362"/>
      <point x="814" y="305" type="curve"/>
    </contour>
  </outline>
</glyph>
<glyph name="tbar" format="2">
  <advance width="456"/>
  <unicode hex="0167"/>
  <outline>
    <contour>
      <point x="400" y="0" type="line"/>
      <point x="400" y="104" type="line"/>
      <point x="304" y="104" type="line" smooth="yes"/>
      <point x="286" y="104"/>
      <point x="276" y="114"/>
      <point x="276" y="134" type="curve" smooth="yes"/>
      <point x="276" y="392" type="line"/>
      <point x="412" y="392" type="line"/>
      <point x="412" y="496" type="line"/>
      <point x="276" y="496" type="line"/>
      <point x="276" y="650" type="line"/>
      <point x="150" y="650" type="line"/>
      <point x="150" y="496" type="line"/>
      <point x="26" y="496" type="line"/>
      <point x="26" y="392" type="line"/>
      <point x="150" y="392" type="line"/>
      <point x="150" y="112" type="line" smooth="yes"/>
      <point x="150" y="44"/>
      <point x="194" y="0"/>
      <point x="260" y="0" type="curve" smooth="yes"/>
    </contour>
    <contour>
      <point x="412" y="208" type="line"/>
      <point x="412" y="292" type="line"/>
      <point x="26" y="292" type="line"/>
      <point x="26" y="208" type="line"/>
    </contour>
  </outline>
</glyph>
<glyph name="longs" format="2">
  <advance width="370"/>
  <unicode hex="017F"/>
  <outline>
    <contour>
      <point x="258" y="0" type="line"/>
      <point x="258" y="566" type="line" smooth="yes"/>
      <point x="258" y="586"/>
      <point x="268" y="596"/>
      <point x="286" y="596" type="curve" smooth="yes"/>
      <point x="372" y="596" type="line"/>
      <point x="372" y="700" type="line"/>
      <point x="242" y="700" type="line" smooth="yes"/>
      <point x="176" y="700"/>
      <point x="132" y="656"/>
      <point x="132" y="588" type="curve" smooth="yes"/>
      <point x="132" y="496" type="line"/>
      <point x="26" y="496" type="line"/>
      <point x="26" y="392" type="line"/>
      <point x="132" y="392" type="line"/>
      <point x="132" y="0" type="line"/>
    </contour>
  </outline>
</glyph>
<glyph name="Schwa" format="2">
  <advance width="652"/>
  <unicode hex="018F"/>
  <outline>
    <contour>
      <point x="325" y="-14" type="curve" smooth="yes"/>
      <point x="497" y="-14"/>
      <point x="602" y="86"/>
      <point x="602" y="260" type="curve" smooth="yes"/>
      <point x="602" y="454" type="line" smooth="yes"/>
      <point x="602" y="620"/>
      <point x="499" y="714"/>
      <point x="325" y="714" type="curve" smooth="yes"/>
      <point x="153" y="714"/>
      <point x="50" y="620"/>
      <point x="50" y="470" type="curve"/>
      <point x="50" y="468" type="line"/>
      <point x="180" y="468" type="line"/>
      <point x="180" y="470" type="line"/>
      <point x="180" y="542"/>
      <point x="231" y="596"/>
      <point x="325" y="596" type="curve" smooth="yes"/>
      <point x="419" y="596"/>
      <point x="470" y="542"/>
      <point x="470" y="456" type="curve" smooth="yes"/>
      <point x="470" y="254" type="line" smooth="yes"/>
      <point x="470" y="156"/>
      <point x="421" y="104"/>
      <point x="325" y="104" type="curve" smooth="yes"/>
      <point x="229" y="104"/>
      <point x="180" y="156"/>
      <point x="180" y="254" type="curve" smooth="yes"/>
      <point x="180" y="268" type="line"/>
      <point x="470" y="268" type="line"/>
      <point x="470" y="388" type="line"/>
      <point x="50" y="388" type="line"/>
      <point x="50" y="260" type="line" smooth="yes"/>
      <point x="50" y="86"/>
      <point x="153" y="-14"/>
    </contour>
  </outline>
</glyph>
<glyph name="florin" format="2">
  <advance width="620"/>
  <unicode hex="0192"/>
  <outline>
    <contour>
      <point x="271" y="0" type="line" smooth="yes"/>
      <point x="328" y="0"/>
      <point x="372" y="45"/>
      <point x="372" y="102" type="curve" smooth="yes"/>
      <point x="372" y="342" type="line"/>
      <point x="517" y="342" type="line"/>
      <point x="517" y="462" type="line"/>
      <point x="372" y="462" type="line"/>
      <point x="372" y="550" type="line" smooth="yes"/>
      <point x="372" y="570"/>
      <point x="381" y="580"/>
      <point x="399" y="580" type="curve" smooth="yes"/>
      <point x="569" y="580" type="line"/>
      <point x="569" y="700" type="line"/>
      <point x="347" y="700" type="line" smooth="yes"/>
      <point x="290" y="700"/>
      <point x="246" y="655"/>
      <point x="246" y="598" type="curve" smooth="yes"/>
      <point x="246" y="462" type="line"/>
      <point x="105" y="462" type="line"/>
      <point x="105" y="342" type="line"/>
      <point x="246" y="342" type="line"/>
      <point x="246" y="150" type="line" smooth="yes"/>
      <point x="246" y="130"/>
      <point x="237" y="120"/>
      <point x="219" y="120" type="curve" smooth="yes"/>
      <point x="64" y="120" type="line"/>
      <point x="64" y="0" type="line"/>
    </contour>
  </outline>
</glyph>
<glyph name="jdotless" format="2">
  <advance width="268"/>
  <unicode hex="0237"/>
  <anchor x="135" y="496" name="top"/>
  <outline>
    <contour>
      <point x="88" y="-200" type="line" smooth="yes"/>
      <point x="154" y="-200"/>
      <point x="198" y="-156"/>
      <point x="198" y="-88" type="curve" smooth="yes"/>
      <point x="198" y="496" type="line"/>
      <point x="72" y="496" type="line"/>
      <point x="72" y="-62" type="line" smooth="yes"/>
      <point x="72" y="-82"/>
      <point x="62" y="-92"/>
      <point x="44" y="-92" type="curve" smooth="yes"/>
      <point x="-22" y="-92" type="line"/>
      <point x="-22" y="-200" type="line"/>
    </contour>
  </outline>
</glyph>
<glyph name="ringhalfright" format="2">
  <advance width="240"/>
  <unicode hex="02BE"/>
  <outline>
    <contour>
      <point x="48" y="476" type="line"/>
      <point x="133" y="476"/>
      <point x="204" y="528"/>
      <point x="204" y="620" type="curve" smooth="yes"/>
      <point x="204" y="712"/>
      <point x="136" y="763"/>
      <point x="48" y="764" type="curve"/>
      <point x="48" y="680" type="line"/>
      <point x="88" y="680"/>
      <point x="116" y="659"/>
      <point x="116" y="620" type="curve" smooth="yes"/>
      <point x="116" y="581"/>
      <point x="88" y="560"/>
      <point x="48" y="560" type="curve"/>
    </contour>
  </outline>
</glyph>
<glyph name="ringhalfleft" format="2">
  <advance width="240"/>
  <unicode hex="02BF"/>
  <outline>
    <contour>
      <point x="192" y="560" type="line"/>
      <point x="152" y="560"/>
      <point x="124" y="581"/>
      <point x="124" y="620" type="curve" smooth="yes"/>
      <point x="124" y="659"/>
      <point x="152" y="680"/>
      <point x="192" y="680" type="curve"/>
      <point x="192" y="764" type="line"/>
      <point x="104" y="763"/>
      <point x="36" y="712"/>
      <point x="36" y="620" type="curve" smooth="yes"/>
      <point x="36" y="528"/>
      <point x="107" y="476"/>
      <point x="192" y="476" type="curve"/>
    </contour>
  </outline>
</glyph>
<glyph name="verticallinemod" format="2">
  <advance width="188"/>
  <unicode hex="02C8"/>
  <anchor x="94" y="496" name="_top"/>
  <outline>
    <contour>
      <point x="148" y="552" type="line"/>
      <point x="148" y="782" type="line"/>
      <point x="40" y="782" type="line"/>
      <point x="40" y="552" type="line"/>
    </contour>
  </outline>
</glyph>
<glyph name="verticallinelowmod" format="2">
  <advance width="188"/>
  <unicode hex="02CC"/>
  <anchor x="94" y="0" name="_bottom"/>
  <outline>
    <contour>
      <point x="148" y="-286" type="line"/>
      <point x="148" y="-56" type="line"/>
      <point x="40" y="-56" type="line"/>
      <point x="40" y="-286" type="line"/>
    </contour>
  </outline>
</glyph>
<glyph name="gravecomb" format="2">
  <advance width="296"/>
  <unicode hex="0300"/>
  <anchor x="180" y="496" name="_top"/>
  <outline>
    <contour>
      <point x="256" y="552" type="line"/>
      <point x="182" y="700" type="line"/>
      <point x="40" y="700" type="line"/>
      <point x="146" y="552" type="line"/>
    </contour>
  </outline>
</glyph>
<glyph name="acutecomb" format="2">
  <advance width="296"/>
  <unicode hex="0301"/>
  <anchor x="40" y="552" name="_ringacute"/>
  <anchor x="116" y="496" name="_top"/>
  <outline>
    <contour>
      <point x="150" y="552" type="line"/>
      <point x="256" y="700" type="line"/>
      <point x="114" y="700" type="line"/>
      <point x="40" y="552" type="line"/>
    </contour>
  </outline>
</glyph>
<glyph name="circumflexcomb" format="2">
  <advance width="464"/>
  <unicode hex="0302"/>
  <anchor x="232" y="496" name="_top"/>
  <anchor x="432" y="612" name="side"/>
  <anchor x="232" y="694" name="top"/>
  <outline>
    <contour>
      <point x="167" y="552" type="line"/>
      <point x="223" y="626" type="line"/>
      <point x="241" y="626" type="line"/>
      <point x="297" y="552" type="line"/>
      <point x="424" y="552" type="line"/>
      <point x="307" y="700" type="line"/>
      <point x="157" y="700" type="line"/>
      <point x="40" y="552" type="line"/>
    </contour>
  </outline>
</glyph>
<glyph name="tildecomb" format="2">
  <advance width="436"/>
  <unicode hex="0303"/>
  <anchor x="221" y="496" name="_top"/>
  <anchor x="221" y="664" name="top"/>
  <outline>
    <contour>
      <point x="125" y="566" type="line" smooth="yes"/>
      <point x="135" y="581"/>
      <point x="146" y="597"/>
      <point x="166" y="597" type="curve" smooth="yes"/>
      <point x="184" y="597"/>
      <point x="197" y="584"/>
      <point x="209" y="573" type="curve" smooth="yes"/>
      <point x="230" y="554"/>
      <point x="251" y="542"/>
      <point x="280" y="542" type="curve" smooth="yes"/>
      <point x="314" y="542"/>
      <point x="343" y="557"/>
      <point x="363" y="591" type="curve" smooth="yes"/>
      <point x="396" y="648" type="line"/>
      <point x="327" y="692" type="line"/>
      <point x="311" y="668" type="line" smooth="yes"/>
      <point x="301" y="653"/>
      <point x="290" y="637"/>
      <point x="270" y="637" type="curve" smooth="yes"/>
      <point x="252" y="637"/>
      <point x="239" y="650"/>
      <point x="227" y="661" type="curve" smooth="yes"/>
      <point x="206" y="680"/>
      <point x="185" y="692"/>
      <point x="156" y="692" type="curve" smooth="yes"/>
      <point x="122" y="692"/>
      <point x="93" y="677"/>
      <point x="73" y="643" type="curve" smooth="yes"/>
      <point x="40" y="586" type="line"/>
      <point x="109" y="542" type="line"/>
    </contour>
  </outline>
</glyph>
<glyph name="macroncomb" format="2">
  <advance width="408"/>
  <unicode hex="0304"/>
  <anchor x="204" y="496" name="_top"/>
  <anchor x="204" y="668" name="top"/>
  <outline>
    <contour>
      <point x="368" y="566" type="line"/>
      <point x="368" y="666" type="line"/>
      <point x="40" y="666" type="line"/>
      <point x="40" y="566" type="line"/>
    </contour>
  </outline>
</glyph>
<glyph name="brevecomb" format="2">
  <advance width="412"/>
  <unicode hex="0306"/>
  <anchor x="206" y="496" name="_top"/>
  <anchor x="206" y="688" name="top"/>
  <outline>
    <contour>
      <point x="206" y="548" type="curve" smooth="yes"/>
      <point x="311" y="548"/>
      <point x="372" y="603"/>
      <point x="372" y="694" type="curve" smooth="yes"/>
      <point x="372" y="700" type="line"/>
      <point x="268" y="700" type="line"/>
      <point x="268" y="696" type="line" smooth="yes"/>
      <point x="268" y="659"/>
      <point x="250" y="630"/>
      <point x="206" y="630" type="curve" smooth="yes"/>
      <point x="162" y="630"/>
      <point x="144" y="659"/>
      <point x="144" y="696" type="curve" smooth="yes"/>
      <point x="144" y="700" type="line"/>
      <point x="40" y="700" type="line"/>
      <point x="40" y="694" type="line" smooth="yes"/>
      <point x="40" y="603"/>
      <point x="101" y="548"/>
    </contour>
  </outline>
</glyph>
<glyph name="dotaccentcomb" format="2">
  <advance width="242"/>
  <unicode hex="0307"/>
  <anchor x="121" y="496" name="_top"/>
  <anchor x="121" y="684" name="top"/>
  <outline>
    <contour>
      <point x="121" y="554" type="curve" smooth="yes"/>
      <point x="167" y="554"/>
      <point x="202" y="586"/>
      <point x="202" y="634" type="curve" smooth="yes"/>
      <point x="202" y="682"/>
      <point x="167" y="714"/>
      <point x="121" y="714" type="curve" smooth="yes"/>
      <point x="75" y="714"/>
      <point x="40" y="682"/>
      <point x="40" y="634" type="curve" smooth="yes"/>
      <point x="40" y="586"/>
      <point x="75" y="554"/>
    </contour>
  </outline>
</glyph>
<glyph name="dieresiscomb" format="2">
  <advance width="448"/>
  <unicode hex="0308"/>
  <anchor x="224" y="496" name="_top"/>
  <anchor x="224" y="684" name="top"/>
  <outline>
    <contour>
      <point x="327" y="550" type="curve" smooth="yes"/>
      <point x="373" y="550"/>
      <point x="408" y="581"/>
      <point x="408" y="630" type="curve" smooth="yes"/>
      <point x="408" y="679"/>
      <point x="373" y="710"/>
      <point x="327" y="710" type="curve" smooth="yes"/>
      <point x="281" y="710"/>
      <point x="246" y="679"/>
      <point x="246" y="630" type="curve" smooth="yes"/>
      <point x="246" y="581"/>
      <point x="281" y="550"/>
    </contour>
    <contour>
      <point x="121" y="550" type="curve" smooth="yes"/>
      <point x="167" y="550"/>
      <point x="202" y="581"/>
      <point x="202" y="630" type="curve" smooth="yes"/>
      <point x="202" y="679"/>
      <point x="167" y="710"/>
      <point x="121" y="710" type="curve" smooth="yes"/>
      <point x="75" y="710"/>
      <point x="40" y="679"/>
      <point x="40" y="630" type="curve" smooth="yes"/>
      <point x="40" y="581"/>
      <point x="75" y="550"/>
    </contour>
  </outline>
</glyph>
<glyph name="hookabovecomb" format="2">
  <advance width="328"/>
  <unicode hex="0309"/>
  <anchor x="153" y="496" name="_top"/>
  <outline>
    <contour>
      <point x="200" y="542" type="line"/>
      <point x="197" y="581" type="line"/>
      <point x="248" y="581"/>
      <point x="288" y="612"/>
      <point x="288" y="666" type="curve" smooth="yes"/>
      <point x="288" y="731"/>
      <point x="223" y="760"/>
      <point x="155" y="760" type="curve" smooth="yes"/>
      <point x="112" y="760"/>
      <point x="69" y="751"/>
      <point x="40" y="741" type="curve"/>
      <point x="60" y="666" type="line"/>
      <point x="85" y="674"/>
      <point x="113" y="682"/>
      <point x="149" y="682" type="curve" smooth="yes"/>
      <point x="176" y="682"/>
      <point x="195" y="672"/>
      <point x="195" y="651" type="curve" smooth="yes"/>
      <point x="195" y="632"/>
      <point x="180" y="622"/>
      <point x="146" y="622" type="curve" smooth="yes"/>
      <point x="108" y="622" type="line"/>
      <point x="113" y="542" type="line"/>
    </contour>
  </outline>
</glyph>
<glyph name="ringcomb" format="2">
  <advance width="288"/>
  <unicode hex="030A"/>
  <anchor x="144" y="496" name="_top"/>
  <outline>
    <contour>
      <point x="144" y="539" type="curve" smooth="yes"/>
      <point x="199" y="539"/>
      <point x="248" y="578"/>
      <point x="248" y="639" type="curve" smooth="yes"/>
      <point x="248" y="698"/>
      <point x="203" y="739"/>
      <point x="144" y="739" type="curve" smooth="yes"/>
      <point x="85" y="739"/>
      <point x="40" y="696"/>
      <point x="40" y="639" type="curve" smooth="yes"/>
      <point x="40" y="582"/>
      <point x="87" y="539"/>
    </contour>
    <contour>
      <point x="144" y="609" type="curve" smooth="yes"/>
      <point x="126" y="609"/>
      <point x="114" y="622"/>
      <point x="114" y="639" type="curve" smooth="yes"/>
      <point x="114" y="656"/>
      <point x="126" y="669"/>
      <point x="144" y="669" type="curve" smooth="yes"/>
      <point x="162" y="669"/>
      <point x="174" y="656"/>
      <point x="174" y="639" type="curve" smooth="yes"/>
      <point x="174" y="622"/>
      <point x="162" y="609"/>
    </contour>
  </outline>
</glyph>
<glyph name="hungarumlautcomb" format="2">
  <advance width="431"/>
  <unicode hex="030B"/>
  <anchor x="183" y="496" name="_top"/>
  <outline>
    <contour>
      <point x="301" y="552" type="line"/>
      <point x="391" y="700" type="line"/>
      <point x="261" y="700" type="line"/>
      <point x="201" y="552" type="line"/>
    </contour>
    <contour>
      <point x="138" y="552" type="line"/>
      <point x="206" y="700" type="line"/>
      <point x="88" y="700" type="line"/>
      <point x="40" y="552" type="line"/>
    </contour>
  </outline>
</glyph>
<glyph name="caroncomb" format="2">
  <advance width="464"/>
  <unicode hex="030C"/>
  <anchor x="232" y="496" name="_top"/>
  <anchor x="232" y="666" name="top"/>
  <outline>
    <contour>
      <point x="307" y="552" type="line"/>
      <point x="424" y="700" type="line"/>
      <point x="297" y="700" type="line"/>
      <point x="241" y="626" type="line"/>
      <point x="223" y="626" type="line"/>
      <point x="167" y="700" type="line"/>
      <point x="40" y="700" type="line"/>
      <point x="157" y="552" type="line"/>
    </contour>
  </outline>
</glyph>
<glyph name="dblgravecomb" format="2">
  <advance width="431"/>
  <unicode hex="030F"/>
  <anchor x="248" y="496" name="_top"/>
  <outline>
    <contour>
      <point x="230" y="552" type="line"/>
      <point x="170" y="700" type="line"/>
      <point x="40" y="700" type="line"/>
      <point x="130" y="552" type="line"/>
    </contour>
    <contour>
      <point x="391" y="552" type="line"/>
      <point x="343" y="700" type="line"/>
      <point x="225" y="700" type="line"/>
      <point x="293" y="552" type="line"/>
    </contour>
  </outline>
</glyph>
<glyph name="breveinvertedcomb" format="2">
  <advance width="412"/>
  <unicode hex="0311"/>
  <anchor x="206" y="496" name="_top"/>
  <outline>
    <contour>
      <point x="144" y="552" type="line"/>
      <point x="144" y="556" type="line" smooth="yes"/>
      <point x="144" y="593"/>
      <point x="162" y="622"/>
      <point x="206" y="622" type="curve" smooth="yes"/>
      <point x="250" y="622"/>
      <point x="268" y="593"/>
      <point x="268" y="556" type="curve" smooth="yes"/>
      <point x="268" y="552" type="line"/>
      <point x="372" y="552" type="line"/>
      <point x="372" y="558" type="line" smooth="yes"/>
      <point x="372" y="649"/>
      <point x="311" y="704"/>
      <point x="206" y="704" type="curve" smooth="yes"/>
      <point x="101" y="704"/>
      <point x="40" y="649"/>
      <point x="40" y="558" type="curve" smooth="yes"/>
      <point x="40" y="552" type="line"/>
    </contour>
  </outline>
</glyph>
<glyph name="commaturnedabovecomb" format="2">
  <advance width="234"/>
  <unicode hex="0312"/>
  <anchor x="117" y="496" name="_top"/>
  <outline>
    <contour>
      <point x="144" y="788" type="line" smooth="yes"/>
      <point x="76" y="788"/>
      <point x="40" y="754"/>
      <point x="40" y="694" type="curve" smooth="yes"/>
      <point x="40" y="626" type="line" smooth="yes"/>
      <point x="40" y="574"/>
      <point x="72" y="546"/>
      <point x="118" y="546" type="curve" smooth="yes"/>
      <point x="164" y="546"/>
      <point x="194" y="573"/>
      <point x="194" y="616" type="curve" smooth="yes"/>
      <point x="194" y="657"/>
      <point x="166" y="685"/>
      <point x="119" y="685" type="curve" smooth="yes"/>
      <point x="106" y="685" type="line"/>
      <point x="106" y="691" type="line" smooth="yes"/>
      <point x="106" y="718"/>
      <point x="117" y="729"/>
      <point x="147" y="729" type="curve" smooth="yes"/>
      <point x="177" y="729" type="line"/>
      <point x="177" y="788" type="line"/>
    </contour>
  </outline>
</glyph>
<glyph name="horncomb" format="2">
  <advance width="248"/>
  <unicode hex="031B"/>
  <anchor x="68" y="496" name="_horn"/>
  <outline>
    <contour>
      <point x="69" y="406" type="line" smooth="yes"/>
      <point x="160" y="406"/>
      <point x="206" y="449"/>
      <point x="207" y="538" type="curve" smooth="yes"/>
      <point x="208" y="606" type="line"/>
      <point x="89" y="606" type="line"/>
      <point x="89" y="538" type="line" smooth="yes"/>
      <point x="89" y="510"/>
      <point x="76" y="496"/>
      <point x="49" y="496" type="curve" smooth="yes"/>
      <point x="40" y="496" type="line"/>
      <point x="40" y="406" type="line"/>
    </contour>
  </outline>
</glyph>
<glyph name="dotbelowcomb" format="2">
  <advance width="242"/>
  <unicode hex="0323"/>
  <anchor x="121" y="0" name="_bottom"/>
  <outline>
    <contour>
      <point x="121" y="-214" type="curve" smooth="yes"/>
      <point x="167" y="-214"/>
      <point x="202" y="-182"/>
      <point x="202" y="-134" type="curve" smooth="yes"/>
      <point x="202" y="-86"/>
      <point x="167" y="-54"/>
      <point x="121" y="-54" type="curve" smooth="yes"/>
      <point x="75" y="-54"/>
      <point x="40" y="-86"/>
      <point x="40" y="-134" type="curve" smooth="yes"/>
      <point x="40" y="-182"/>
      <point x="75" y="-214"/>
    </contour>
  </outline>
</glyph>
<glyph name="dieresisbelowcomb" format="2">
  <advance width="448"/>
  <unicode hex="0324"/>
  <anchor x="224" y="0" name="_bottom"/>
  <outline>
    <contour>
      <point x="327" y="-214" type="curve" smooth="yes"/>
      <point x="373" y="-214"/>
      <point x="408" y="-183"/>
      <point x="408" y="-134" type="curve" smooth="yes"/>
      <point x="408" y="-85"/>
      <point x="373" y="-54"/>
      <point x="327" y="-54" type="curve" smooth="yes"/>
      <point x="281" y="-54"/>
      <point x="246" y="-85"/>
      <point x="246" y="-134" type="curve" smooth="yes"/>
      <point x="246" y="-183"/>
      <point x="281" y="-214"/>
    </contour>
    <contour>
      <point x="121" y="-214" type="curve" smooth="yes"/>
      <point x="167" y="-214"/>
      <point x="202" y="-183"/>
      <point x="202" y="-134" type="curve" smooth="yes"/>
      <point x="202" y="-85"/>
      <point x="167" y="-54"/>
      <point x="121" y="-54" type="curve" smooth="yes"/>
      <point x="75" y="-54"/>
      <point x="40" y="-85"/>
      <point x="40" y="-134" type="curve" smooth="yes"/>
      <point x="40" y="-183"/>
      <point x="75" y="-214"/>
    </contour>
  </outline>
</glyph>
<glyph name="commaaccentcomb" format="2">
  <advance width="234"/>
  <unicode hex="0326"/>
  <anchor x="117" y="0" name="_bottom"/>
  <outline>
    <contour>
      <point x="90" y="-292" type="line" smooth="yes"/>
      <point x="158" y="-292"/>
      <point x="194" y="-258"/>
      <point x="194" y="-198" type="curve" smooth="yes"/>
      <point x="194" y="-130" type="line" smooth="yes"/>
      <point x="194" y="-78"/>
      <point x="162" y="-50"/>
      <point x="116" y="-50" type="curve" smooth="yes"/>
      <point x="70" y="-50"/>
      <point x="40" y="-77"/>
      <point x="40" y="-120" type="curve" smooth="yes"/>
      <point x="40" y="-161"/>
      <point x="68" y="-189"/>
      <point x="115" y="-189" type="curve" smooth="yes"/>
      <point x="128" y="-189" type="line"/>
      <point x="128" y="-195" type="line" smooth="yes"/>
      <point x="128" y="-222"/>
      <point x="117" y="-233"/>
      <point x="87" y="-233" type="curve" smooth="yes"/>
      <point x="57" y="-233" type="line"/>
      <point x="57" y="-292" type="line"/>
    </contour>
  </outline>
</glyph>
<glyph name="cedillacomb" format="2">
  <advance width="328"/>
  <unicode hex="0327"/>
  <anchor x="155" y="0" name="_bottom"/>
  <outline>
    <contour>
      <point x="155" y="-214" type="curve" smooth="yes"/>
      <point x="223" y="-214"/>
      <point x="288" y="-187"/>
      <point x="288" y="-122" type="curve" smooth="yes"/>
      <point x="288" y="-68"/>
      <point x="248" y="-39"/>
      <point x="197" y="-39" type="curve"/>
      <point x="201" y="20" type="line"/>
      <point x="115" y="20" type="line"/>
      <point x="108" y="-80" type="line"/>
      <point x="146" y="-80" type="line" smooth="yes"/>
      <point x="180" y="-80"/>
      <point x="195" y="-89"/>
      <point x="195" y="-107" type="curve" smooth="yes"/>
      <point x="195" y="-127"/>
      <point x="176" y="-136"/>
      <point x="149" y="-136" type="curve" smooth="yes"/>
      <point x="113" y="-136"/>
      <point x="85" y="-128"/>
      <point x="60" y="-120" type="curve"/>
      <point x="40" y="-195" type="line"/>
      <point x="69" y="-205"/>
      <point x="112" y="-214"/>
    </contour>
  </outline>
</glyph>
<glyph name="ogonekcomb" format="2">
  <advance width="238"/>
  <unicode hex="0328"/>
  <anchor x="102" y="0" name="_ogonek"/>
  <outline>
    <contour>
      <point x="198" y="-170" type="line"/>
      <point x="198" y="-86" type="line"/>
      <point x="152" y="-86" type="line" smooth="yes"/>
      <point x="137" y="-86"/>
      <point x="129" y="-79"/>
      <point x="129" y="-64" type="curve" smooth="yes"/>
      <point x="129" y="-55"/>
      <point x="131" y="-45"/>
      <point x="133" y="-35" type="curve" smooth="yes"/>
      <point x="143" y="20" type="line"/>
      <point x="62" y="20" type="line"/>
      <point x="49" y="-36" type="line" smooth="yes"/>
      <point x="44" y="-57"/>
      <point x="40" y="-81"/>
      <point x="40" y="-101" type="curve" smooth="yes"/>
      <point x="40" y="-143"/>
      <point x="72" y="-170"/>
      <point x="118" y="-170" type="curve" smooth="yes"/>
    </contour>
  </outline>
</glyph>
<glyph name="brevebelowcomb" format="2">
  <advance width="412"/>
  <unicode hex="032E"/>
  <anchor x="206" y="0" name="_bottom"/>
  <outline>
    <contour>
      <point x="206" y="-214" type="curve" smooth="yes"/>
      <point x="311" y="-214"/>
      <point x="372" y="-159"/>
      <point x="372" y="-68" type="curve" smooth="yes"/>
      <point x="372" y="-62" type="line"/>
      <point x="268" y="-62" type="line"/>
      <point x="268" y="-66" type="line" smooth="yes"/>
      <point x="268" y="-103"/>
      <point x="250" y="-132"/>
      <point x="206" y="-132" type="curve" smooth="yes"/>
      <point x="162" y="-132"/>
      <point x="144" y="-103"/>
      <point x="144" y="-66" type="curve" smooth="yes"/>
      <point x="144" y="-62" type="line"/>
      <point x="40" y="-62" type="line"/>
      <point x="40" y="-68" type="line" smooth="yes"/>
      <point x="40" y="-159"/>
      <point x="101" y="-214"/>
    </contour>
  </outline>
</glyph>
<glyph name="macronbelowcomb" format="2">
  <advance width="408"/>
  <unicode hex="0331"/>
  <anchor x="204" y="0" name="_bottom"/>
  <outline>
    <contour>
      <point x="368" y="-170" type="line"/>
      <point x="368" y="-70" type="line"/>
      <point x="40" y="-70" type="line"/>
      <point x="40" y="-170" type="line"/>
    </contour>
  </outline>
</glyph>
<glyph name="strokeshortcomb" format="2">
  <advance width="420"/>
  <unicode hex="0335"/>
  <anchor x="110" y="496" name="_strokeA"/>
  <anchor x="310" y="496" name="_strokeB"/>
  <outline>
    <contour>
      <point x="380" y="556" type="line"/>
      <point x="380" y="626" type="line"/>
      <point x="40" y="626" type="line"/>
      <point x="40" y="556" type="line"/>
    </contour>
  </outline>
</glyph>
<glyph name="strokelongcomb" format="2">
  <advance width="760"/>
  <unicode hex="0336"/>
  <anchor x="380" y="496" name="_stroke"/>
  <outline>
    <contour>
      <point x="720" y="506" type="line"/>
      <point x="720" y="596" type="line"/>
      <point x="40" y="596" type="line"/>
      <point x="40" y="506" type="line"/>
    </contour>
  </outline>
</glyph>
<glyph name="slashshortcomb" format="2">
  <advance width="536"/>
  <unicode hex="0337"/>
  <anchor x="268" y="496" name="_top"/>
  <outline>
    <contour>
      <point x="496" y="517" type="line"/>
      <point x="426" y="563" type="line"/>
      <point x="40" y="-25" type="line"/>
      <point x="110" y="-71" type="line"/>
    </contour>
  </outline>
</glyph>
<glyph name="slashlongcomb" format="2">
  <advance width="509"/>
  <unicode hex="0338"/>
  <anchor x="254" y="700" name="_top"/>
  <outline>
    <contour>
      <point x="469" y="747" type="line"/>
      <point x="386" y="781" type="line"/>
      <point x="40" y="-59" type="line"/>
      <point x="123" y="-93" type="line"/>
    </contour>
  </outline>
</glyph>
<glyph name="pi" format="2">
  <advance width="578"/>
  <unicode hex="03C0"/>
  <outline>
    <contour>
      <point x="230" y="0" type="line"/>
      <point x="230" y="392" type="line"/>
      <point x="336" y="392" type="line"/>
      <point x="336" y="112" type="line" smooth="yes"/>
      <point x="336" y="44"/>
      <point x="380" y="0"/>
      <point x="446" y="0" type="curve" smooth="yes"/>
      <point x="540" y="0" type="line"/>
      <point x="540" y="104" type="line"/>
      <point x="490" y="104" type="line" smooth="yes"/>
      <point x="472" y="104"/>
      <point x="462" y="114"/>
      <point x="462" y="134" type="curve" smooth="yes"/>
      <point x="462" y="392" type="line"/>
      <point x="540" y="392" type="line"/>
      <point x="540" y="496" type="line"/>
      <point x="26" y="496" type="line"/>
      <point x="26" y="392" type="line"/>
      <point x="104" y="392" type="line"/>
      <point x="104" y="0" type="line"/>
    </contour>
  </outline>
</glyph>
<glyph name="Djecyr" format="2">
  <advance width="739"/>
  <unicode hex="0402"/>
  <anchor x="294" y="0" name="bottom"/>
  <anchor x="294" y="496" name="strokeC"/>
  <anchor x="341" y="496" name="top"/>
  <anchor x="54" y="496" name="strokeA"/>
  <outline>
    <contour>
      <point x="302" y="0" type="line"/>
      <point x="302" y="282" type="line"/>
      <point x="331" y="311"/>
      <point x="370" y="327"/>
      <point x="423" y="327" type="curve" smooth="yes"/>
      <point x="505" y="327"/>
      <point x="547" y="287"/>
      <point x="547" y="201" type="curve" smooth="yes"/>
      <point x="547" y="-10" type="line" smooth="yes"/>
      <point x="547" y="-61"/>
      <point x="529" y="-80"/>
      <point x="479" y="-80" type="curve" smooth="yes"/>
      <point x="429" y="-80" type="line"/>
      <point x="429" y="-200" type="line"/>
      <point x="519" y="-200" type="line" smooth="yes"/>
      <point x="627" y="-200"/>
      <point x="679" y="-147"/>
      <point x="679" y="-38" type="curve" smooth="yes"/>
      <point x="679" y="226" type="line" smooth="yes"/>
      <point x="679" y="359"/>
      <point x="592" y="445"/>
      <point x="463" y="445" type="curve" smooth="yes"/>
      <point x="402" y="445"/>
      <point x="348" y="427"/>
      <point x="316" y="396" type="curve"/>
      <point x="300" y="396" type="line"/>
      <point x="300" y="580" type="line"/>
      <point x="504" y="580" type="line"/>
      <point x="504" y="700" type="line"/>
      <point x="24" y="700" type="line"/>
      <point x="24" y="580" type="line"/>
      <point x="168" y="580" type="line"/>
      <point x="168" y="0" type="line"/>
    </contour>
  </outline>
</glyph>
<glyph name="Eukrcyr" format="2">
  <advance width="676"/>
  <unicode hex="0404"/>
  <outline>
    <component base="C"/>
    <contour>
      <point x="416" y="297" type="line"/>
      <point x="120" y="297" type="line"/>
      <point x="120" y="417" type="line"/>
      <point x="416" y="417" type="line"/>
    </contour>
  </outline>
</glyph>
<glyph name="Iukrcyr" format="2">
  <advance width="264"/>
  <unicode hex="0406"/>
  <anchor x="132" y="0" name="bottom"/>
  <anchor x="132" y="0" name="ogonek"/>
  <anchor x="132" y="700" name="top"/>
  <outline>
    <contour>
      <point x="198" y="0" type="line"/>
      <point x="198" y="700" type="line"/>
      <point x="66" y="700" type="line"/>
      <point x="66" y="0" type="line"/>
    </contour>
  </outline>
</glyph>
<glyph name="Yukrcyr" format="2">
  <advance width="448"/>
  <unicode hex="0407"/>
  <anchor x="224" y="496" name="_top"/>
  <anchor x="224" y="684" name="top"/>
  <anchor x="224" y="0" name="bottom"/>
  <anchor x="224" y="0" name="ogonek"/>
  <outline>
    <component base="dieresiscomb" yOffset="210"/>
    <contour>
      <point x="290" y="0" type="line"/>
      <point x="290" y="700" type="line"/>
      <point x="158" y="700" type="line"/>
      <point x="158" y="0" type="line"/>
    </contour>
  </outline>
</glyph>
<glyph name="Ljecyr" format="2">
  <advance width="981"/>
  <unicode hex="0409"/>
  <outline>
    <contour>
      <point x="152" y="700" type="line"/>
      <point x="144" y="336" type="line" smooth="yes"/>
      <point x="141" y="177"/>
      <point x="112" y="120"/>
      <point x="42" y="120" type="curve" smooth="yes"/>
      <point x="22" y="120" type="line"/>
      <point x="22" y="0" type="line"/>
      <point x="69" y="0" type="line" smooth="yes"/>
      <point x="208" y="0"/>
      <point x="258" y="103"/>
      <point x="263" y="308" type="curve" smooth="yes"/>
      <point x="269" y="580" type="line"/>
      <point x="449" y="580" type="line"/>
      <point x="449" y="0" type="line"/>
      <point x="581" y="0" type="line"/>
      <point x="581" y="700" type="line"/>
    </contour>
    <contour>
      <point x="581" y="700" type="line"/>
      <point x="449" y="700" type="line"/>
      <point x="449" y="0" type="line"/>
      <point x="735" y="0" type="line" smooth="yes"/>
      <point x="867" y="0"/>
      <point x="955" y="82"/>
      <point x="955" y="210" type="curve" smooth="yes"/>
      <point x="955" y="224" type="line" smooth="yes"/>
      <point x="955" y="352"/>
      <point x="863" y="434"/>
      <point x="735" y="434" type="curve" smooth="yes"/>
      <point x="581" y="434" type="line"/>
    </contour>
    <contour>
      <point x="581" y="120" type="line"/>
      <point x="581" y="314" type="line"/>
      <point x="721" y="314" type="line" smooth="yes"/>
      <point x="783" y="314"/>
      <point x="823" y="279"/>
      <point x="823" y="222" type="curve" smooth="yes"/>
      <point x="823" y="212" type="line" smooth="yes"/>
      <point x="823" y="155"/>
      <point x="784" y="120"/>
      <point x="721" y="120" type="curve" smooth="yes"/>
    </contour>
  </outline>
</glyph>
<glyph name="Njecyr" format="2">
  <advance width="975"/>
  <unicode hex="040A"/>
  <outline>
    <contour>
      <point x="198" y="0" type="line"/>
      <point x="198" y="314" type="line"/>
      <point x="443" y="314" type="line"/>
      <point x="443" y="0" type="line"/>
      <point x="575" y="0" type="line"/>
      <point x="575" y="700" type="line"/>
      <point x="443" y="700" type="line"/>
      <point x="443" y="434" type="line"/>
      <point x="198" y="434" type="line"/>
      <point x="198" y="700" type="line"/>
      <point x="66" y="700" type="line"/>
      <point x="66" y="0" type="line"/>
    </contour>
    <contour>
      <point x="575" y="700" type="line"/>
      <point x="443" y="700" type="line"/>
      <point x="443" y="0" type="line"/>
      <point x="729" y="0" type="line" smooth="yes"/>
      <point x="861" y="0"/>
      <point x="949" y="82"/>
      <point x="949" y="210" type="curve" smooth="yes"/>
      <point x="949" y="224" type="line" smooth="yes"/>
      <point x="949" y="352"/>
      <point x="857" y="434"/>
      <point x="729" y="434" type="curve" smooth="yes"/>
      <point x="575" y="434" type="line"/>
    </contour>
    <contour>
      <point x="575" y="120" type="line"/>
      <point x="575" y="314" type="line"/>
      <point x="715" y="314" type="line" smooth="yes"/>
      <point x="777" y="314"/>
      <point x="817" y="279"/>
      <point x="817" y="222" type="curve" smooth="yes"/>
      <point x="817" y="212" type="line" smooth="yes"/>
      <point x="817" y="155"/>
      <point x="778" y="120"/>
      <point x="715" y="120" type="curve" smooth="yes"/>
    </contour>
  </outline>
</glyph>
<glyph name="Tshecyr" format="2">
  <advance width="739"/>
  <unicode hex="040B"/>
  <outline>
    <contour>
      <point x="302" y="0" type="line"/>
      <point x="302" y="282" type="line"/>
      <point x="331" y="311"/>
      <point x="370" y="327"/>
      <point x="423" y="327" type="curve" smooth="yes"/>
      <point x="505" y="327"/>
      <point x="547" y="287"/>
      <point x="547" y="201" type="curve" smooth="yes"/>
      <point x="547" y="0" type="line"/>
      <point x="679" y="0" type="line"/>
      <point x="679" y="226" type="line" smooth="yes"/>
      <point x="679" y="359"/>
      <point x="592" y="445"/>
      <point x="463" y="445" type="curve" smooth="yes"/>
      <point x="402" y="445"/>
      <point x="348" y="427"/>
      <point x="316" y="396" type="curve"/>
      <point x="300" y="396" type="line"/>
      <point x="300" y="580" type="line"/>
      <point x="504" y="580" type="line"/>
      <point x="504" y="700" type="line"/>
      <point x="24" y="700" type="line"/>
      <point x="24" y="580" type="line"/>
      <point x="168" y="580" type="line"/>
      <point x="168" y="0" type="line"/>
    </contour>
  </outline>
</glyph>
<glyph name="Dzhecyr" format="2">
  <advance width="656"/>
  <unicode hex="040F"/>
  <outline>
    <contour>
      <point x="198" y="700" type="line"/>
      <point x="66" y="700" type="line"/>
      <point x="66" y="0" type="line"/>
      <point x="262" y="0" type="line"/>
      <point x="262" y="-127" type="line"/>
      <point x="394" y="-127" type="line"/>
      <point x="394" y="0" type="line"/>
      <point x="590" y="0" type="line"/>
      <point x="590" y="700" type="line"/>
      <point x="458" y="700" type="line"/>
      <point x="458" y="120" type="line"/>
      <point x="198" y="120" type="line"/>
    </contour>
  </outline>
</glyph>
<glyph name="Becyr" format="2">
  <advance width="673"/>
  <unicode hex="0411"/>
  <outline>
    <contour>
      <point x="46" y="0" type="line"/>
      <point x="407" y="0" type="line" smooth="yes"/>
      <point x="539" y="0"/>
      <point x="631" y="84"/>
      <point x="631" y="215" type="curve" smooth="yes"/>
      <point x="631" y="229" type="line" smooth="yes"/>
      <point x="631" y="360"/>
      <point x="535" y="444"/>
      <point x="407" y="444" type="curve" smooth="yes"/>
      <point x="270" y="444" type="line"/>
      <point x="270" y="580" type="line"/>
      <point x="570" y="580" type="line"/>
      <point x="570" y="700" type="line"/>
      <point x="46" y="700" type="line"/>
      <point x="46" y="584" type="line"/>
      <point x="138" y="584" type="line"/>
      <point x="138" y="116" type="line"/>
      <point x="46" y="116" type="line"/>
    </contour>
    <contour>
      <point x="270" y="120" type="line"/>
      <point x="270" y="324" type="line"/>
      <point x="394" y="324" type="line" smooth="yes"/>
      <point x="456" y="324"/>
      <point x="499" y="287"/>
      <point x="499" y="227" type="curve" smooth="yes"/>
      <point x="499" y="217" type="line" smooth="yes"/>
      <point x="499" y="157"/>
      <point x="457" y="120"/>
      <point x="394" y="120" type="curve" smooth="yes"/>
    </contour>
  </outline>
</glyph>
<glyph name="Gecyr" format="2">
  <advance width="502"/>
  <unicode hex="0413"/>
  <outline>
    <contour>
      <point x="198" y="0" type="line"/>
      <point x="198" y="580" type="line"/>
      <point x="478" y="580" type="line"/>
      <point x="478" y="700" type="line"/>
      <point x="66" y="700" type="line"/>
      <point x="66" y="0" type="line"/>
    </contour>
  </outline>
</glyph>
<glyph name="Decyr" format="2">
  <advance width="694"/>
  <unicode hex="0414"/>
  <outline>
    <contour>
      <point x="140" y="700" type="line"/>
      <point x="582" y="700" type="line"/>
      <point x="582" y="120" type="line"/>
      <point x="662" y="120" type="line"/>
      <point x="662" y="-128" type="line"/>
      <point x="530" y="-128" type="line"/>
      <point x="530" y="0" type="line"/>
      <point x="164" y="0" type="line"/>
      <point x="164" y="-128" type="line"/>
      <point x="32" y="-128" type="line"/>
      <point x="32" y="120" type="line"/>
      <point x="98" y="120" type="line"/>
      <point x="120" y="182"/>
      <point x="131" y="289"/>
      <point x="133" y="396" type="curve" smooth="yes"/>
    </contour>
    <contour>
      <point x="258" y="580" type="line"/>
      <point x="253" y="367" type="line" smooth="yes"/>
      <point x="251" y="281"/>
      <point x="244" y="186"/>
      <point x="225" y="120" type="curve"/>
      <point x="450" y="120" type="line"/>
      <point x="450" y="580" type="line"/>
    </contour>
  </outline>
</glyph>
<glyph name="Zhecyr" format="2">
  <advance width="966"/>
  <unicode hex="0416"/>
  <outline>
    <contour>
      <point x="927" y="700" type="line"/>
      <point x="845" y="700" type="line" smooth="yes"/>
      <point x="779" y="700"/>
      <point x="749" y="665"/>
      <point x="701" y="533" type="curve" smooth="yes"/>
      <point x="660" y="420" type="line"/>
      <point x="549" y="420" type="line"/>
      <point x="549" y="700" type="line"/>
      <point x="417" y="700" type="line"/>
      <point x="417" y="420" type="line"/>
      <point x="306" y="420" type="line"/>
      <point x="265" y="533" type="line" smooth="yes"/>
      <point x="217" y="665"/>
      <point x="187" y="700"/>
      <point x="121" y="700" type="curve" smooth="yes"/>
      <point x="39" y="700" type="line"/>
      <point x="39" y="576" type="line"/>
      <point x="110" y="576" type="line"/>
      <point x="164" y="440" type="line" smooth="yes"/>
      <point x="181" y="398"/>
      <point x="202" y="372"/>
      <point x="230" y="365" type="curve"/>
      <point x="230" y="347" type="line"/>
      <point x="201" y="341"/>
      <point x="180" y="314"/>
      <point x="164" y="273" type="curve" smooth="yes"/>
      <point x="106" y="124" type="line"/>
      <point x="36" y="124" type="line"/>
      <point x="36" y="0" type="line"/>
      <point x="118" y="0" type="line" smooth="yes"/>
      <point x="183" y="0"/>
      <point x="209" y="30"/>
      <point x="260" y="167" type="curve" smooth="yes"/>
      <point x="310" y="300" type="line"/>
      <point x="417" y="300" type="line"/>
      <point x="417" y="0" type="line"/>
      <point x="549" y="0" type="line"/>
      <point x="549" y="300" type="line"/>
      <point x="656" y="300" type="line"/>
      <point x="706" y="167" type="line" smooth="yes"/>
      <point x="757" y="30"/>
      <point x="783" y="0"/>
      <point x="848" y="0" type="curve" smooth="yes"/>
      <point x="930" y="0" type="line"/>
      <point x="930" y="124" type="line"/>
      <point x="860" y="124" type="line"/>
      <point x="802" y="273" type="line" smooth="yes"/>
      <point x="786" y="314"/>
      <point x="765" y="341"/>
      <point x="736" y="347" type="curve"/>
      <point x="736" y="365" type="line"/>
      <point x="764" y="372"/>
      <point x="785" y="398"/>
      <point x="802" y="440" type="curve" smooth="yes"/>
      <point x="856" y="576" type="line"/>
      <point x="927" y="576" type="line"/>
    </contour>
  </outline>
</glyph>
<glyph name="Zecyr" format="2">
  <advance width="624"/>
  <unicode hex="0417"/>
  <outline>
    <contour>
      <point x="322" y="598" type="curve" smooth="yes"/>
      <point x="238" y="598"/>
      <point x="193" y="559"/>
      <point x="193" y="486" type="curve" smooth="yes"/>
      <point x="193" y="461" type="line"/>
      <point x="63" y="461" type="line"/>
      <point x="63" y="486" type="line" smooth="yes"/>
      <point x="63" y="638"/>
      <point x="170" y="714"/>
      <point x="323" y="714" type="curve" smooth="yes"/>
      <point x="473" y="714"/>
      <point x="569" y="638"/>
      <point x="569" y="518" type="curve" smooth="yes"/>
      <point x="569" y="508" type="line" smooth="yes"/>
      <point x="569" y="438"/>
      <point x="532" y="382"/>
      <point x="466" y="364" type="curve"/>
      <point x="466" y="346" type="line"/>
      <point x="540" y="331"/>
      <point x="582" y="274"/>
      <point x="582" y="201" type="curve" smooth="yes"/>
      <point x="582" y="191" type="line" smooth="yes"/>
      <point x="582" y="64"/>
      <point x="474" y="-14"/>
      <point x="317" y="-14" type="curve" smooth="yes"/>
      <point x="148" y="-14"/>
      <point x="42" y="76"/>
      <point x="42" y="228" type="curve" smooth="yes"/>
      <point x="42" y="252" type="line"/>
      <point x="172" y="252" type="line"/>
      <point x="172" y="228" type="line" smooth="yes"/>
      <point x="172" y="149"/>
      <point x="226" y="102"/>
      <point x="317" y="102" type="curve" smooth="yes"/>
      <point x="398" y="102"/>
      <point x="447" y="139"/>
      <point x="447" y="194" type="curve" smooth="yes"/>
      <point x="447" y="205" type="line" smooth="yes"/>
      <point x="447" y="264"/>
      <point x="404" y="297"/>
      <point x="340" y="297" type="curve" smooth="yes"/>
      <point x="223" y="297" type="line"/>
      <point x="223" y="417" type="line"/>
      <point x="338" y="417" type="line" smooth="yes"/>
      <point x="399" y="417"/>
      <point x="443" y="447"/>
      <point x="443" y="501" type="curve" smooth="yes"/>
      <point x="443" y="512" type="line" smooth="yes"/>
      <point x="443" y="565"/>
      <point x="397" y="598"/>
    </contour>
  </outline>
</glyph>
<glyph name="Icyr" format="2">
  <advance width="670"/>
  <unicode hex="0418"/>
  <anchor x="336" y="0" name="bottom"/>
  <anchor x="334" y="700" name="top"/>
  <outline>
    <contour>
      <point x="472" y="0" type="line"/>
      <point x="604" y="0" type="line"/>
      <point x="604" y="700" type="line"/>
      <point x="357" y="700" type="line"/>
      <point x="216" y="90" type="line"/>
      <point x="198" y="90" type="line"/>
      <point x="198" y="700" type="line"/>
      <point x="66" y="700" type="line"/>
      <point x="66" y="0" type="line"/>
      <point x="315" y="0" type="line"/>
      <point x="454" y="610" type="line"/>
      <point x="472" y="610" type="line"/>
    </contour>
  </outline>
</glyph>
<glyph name="Kacyr" format="2">
  <advance width="639"/>
  <unicode hex="041A"/>
  <anchor x="311" y="0" name="bottom"/>
  <outline>
    <contour>
      <point x="600" y="700" type="line"/>
      <point x="518" y="700" type="line" smooth="yes"/>
      <point x="452" y="700"/>
      <point x="423" y="665"/>
      <point x="378" y="533" type="curve" smooth="yes"/>
      <point x="339" y="420" type="line"/>
      <point x="198" y="420" type="line"/>
      <point x="198" y="700" type="line"/>
      <point x="66" y="700" type="line"/>
      <point x="66" y="0" type="line"/>
      <point x="198" y="0" type="line"/>
      <point x="198" y="300" type="line"/>
      <point x="335" y="300" type="line"/>
      <point x="382" y="167" type="line" smooth="yes"/>
      <point x="430" y="30"/>
      <point x="456" y="0"/>
      <point x="521" y="0" type="curve" smooth="yes"/>
      <point x="603" y="0" type="line"/>
      <point x="603" y="124" type="line"/>
      <point x="533" y="124" type="line"/>
      <point x="478" y="273" type="line" smooth="yes"/>
      <point x="463" y="314"/>
      <point x="442" y="341"/>
      <point x="415" y="347" type="curve"/>
      <point x="415" y="365" type="line"/>
      <point x="441" y="372"/>
      <point x="462" y="398"/>
      <point x="478" y="440" type="curve" smooth="yes"/>
      <point x="529" y="576" type="line"/>
      <point x="600" y="576" type="line"/>
    </contour>
  </outline>
</glyph>
<glyph name="Elcyr" format="2">
  <advance width="659"/>
  <unicode hex="041B"/>
  <outline>
    <contour>
      <point x="151" y="700" type="line"/>
      <point x="593" y="700" type="line"/>
      <point x="593" y="0" type="line"/>
      <point x="461" y="0" type="line"/>
      <point x="461" y="580" type="line"/>
      <point x="269" y="580" type="line"/>
      <point x="263" y="308" type="line" smooth="yes"/>
      <point x="258" y="103"/>
      <point x="208" y="0"/>
      <point x="69" y="0" type="curve" smooth="yes"/>
      <point x="22" y="0" type="line"/>
      <point x="22" y="120" type="line"/>
      <point x="42" y="120" type="line" smooth="yes"/>
      <point x="112" y="120"/>
      <point x="140" y="177"/>
      <point x="143" y="336" type="curve" smooth="yes"/>
    </contour>
  </outline>
</glyph>
<glyph name="Pecyr" format="2">
  <advance width="656"/>
  <unicode hex="041F"/>
  <outline>
    <contour>
      <point x="198" y="0" type="line"/>
      <point x="198" y="580" type="line"/>
      <point x="458" y="580" type="line"/>
      <point x="458" y="0" type="line"/>
      <point x="590" y="0" type="line"/>
      <point x="590" y="700" type="line"/>
      <point x="66" y="700" type="line"/>
      <point x="66" y="0" type="line"/>
    </contour>
  </outline>
</glyph>
<glyph name="Ucyr" format="2">
  <advance width="621"/>
  <unicode hex="0423"/>
  <outline>
    <contour>
      <point x="82" y="0" type="line"/>
      <point x="187" y="0" type="line" smooth="yes"/>
      <point x="278" y="0"/>
      <point x="307" y="28"/>
      <point x="335" y="92" type="curve" smooth="yes"/>
      <point x="601" y="700" type="line"/>
      <point x="460" y="700" type="line"/>
      <point x="317" y="363" type="line"/>
      <point x="299" y="363" type="line"/>
      <point x="163" y="699" type="line"/>
      <point x="20" y="700" type="line"/>
      <point x="243" y="193" type="line"/>
      <point x="224" y="150" type="line" smooth="yes"/>
      <point x="215" y="130"/>
      <point x="205" y="120"/>
      <point x="174" y="120" type="curve" smooth="yes"/>
      <point x="82" y="120" type="line"/>
    </contour>
  </outline>
</glyph>
<glyph name="Efcyr" format="2">
  <advance width="813"/>
  <unicode hex="0424"/>
  <outline>
    <contour>
      <point x="473" y="-24" type="line"/>
      <point x="473" y="724" type="line"/>
      <point x="341" y="724" type="line"/>
      <point x="341" y="-24" type="line"/>
    </contour>
    <contour>
      <point x="322" y="652" type="line" smooth="yes"/>
      <point x="150" y="652"/>
      <point x="50" y="563"/>
      <point x="50" y="399" type="curve" smooth="yes"/>
      <point x="50" y="301" type="line" smooth="yes"/>
      <point x="50" y="137"/>
      <point x="150" y="48"/>
      <point x="322" y="48" type="curve" smooth="yes"/>
      <point x="381" y="48" type="line"/>
      <point x="381" y="166" type="line"/>
      <point x="322" y="166" type="line" smooth="yes"/>
      <point x="227" y="166"/>
      <point x="182" y="221"/>
      <point x="182" y="301" type="curve" smooth="yes"/>
      <point x="182" y="399" type="line" smooth="yes"/>
      <point x="182" y="479"/>
      <point x="227" y="534"/>
      <point x="322" y="534" type="curve" smooth="yes"/>
      <point x="381" y="534" type="line"/>
      <point x="381" y="652" type="line"/>
    </contour>
    <contour>
      <point x="491" y="652" type="curve" smooth="yes"/>
      <point x="433" y="652" type="line"/>
      <point x="433" y="534" type="line"/>
      <point x="491" y="534" type="line" smooth="yes"/>
      <point x="586" y="534"/>
      <point x="631" y="479"/>
      <point x="631" y="399" type="curve" smooth="yes"/>
      <point x="631" y="301" type="line" smooth="yes"/>
      <point x="631" y="221"/>
      <point x="586" y="166"/>
      <point x="491" y="166" type="curve" smooth="yes"/>
      <point x="433" y="166" type="line"/>
      <point x="433" y="48" type="line"/>
      <point x="491" y="48" type="line" smooth="yes"/>
      <point x="663" y="48"/>
      <point x="763" y="137"/>
      <point x="763" y="301" type="curve" smooth="yes"/>
      <point x="763" y="399" type="line" smooth="yes"/>
      <point x="763" y="563"/>
      <point x="663" y="652"/>
    </contour>
  </outline>
</glyph>
<glyph name="Tsecyr" format="2">
  <advance width="702"/>
  <unicode hex="0426"/>
  <outline>
    <contour>
      <point x="198" y="700" type="line"/>
      <point x="66" y="700" type="line"/>
      <point x="66" y="0" type="line"/>
      <point x="538" y="0" type="line"/>
      <point x="538" y="-128" type="line"/>
      <point x="670" y="-128" type="line"/>
      <point x="670" y="120" type="line"/>
      <point x="590" y="120" type="line"/>
      <point x="590" y="700" type="line"/>
      <point x="458" y="700" type="line"/>
      <point x="458" y="120" type="line"/>
      <point x="198" y="120" type="line"/>
    </contour>
  </outline>
</glyph>
<glyph name="Checyr" format="2">
  <advance width="637"/>
  <unicode hex="0427"/>
  <outline>
    <contour>
      <point x="437" y="700" type="line"/>
      <point x="437" y="402" type="line"/>
      <point x="408" y="373"/>
      <point x="369" y="357"/>
      <point x="316" y="357" type="curve" smooth="yes"/>
      <point x="234" y="357"/>
      <point x="192" y="397"/>
      <point x="192" y="483" type="curve"/>
      <point x="192" y="700" type="line"/>
      <point x="60" y="700" type="line"/>
      <point x="60" y="458" type="line"/>
      <point x="60" y="325"/>
      <point x="147" y="239"/>
      <point x="276" y="239" type="curve" smooth="yes"/>
      <point x="337" y="239"/>
      <point x="391" y="257"/>
      <point x="423" y="288" type="curve"/>
      <point x="439" y="288" type="line"/>
      <point x="439" y="0" type="line"/>
      <point x="571" y="0" type="line"/>
      <point x="571" y="700" type="line"/>
    </contour>
  </outline>
</glyph>
<glyph name="Shacyr" format="2">
  <advance width="860"/>
  <unicode hex="0428"/>
  <outline>
    <contour>
      <point x="198" y="700" type="line"/>
      <point x="66" y="700" type="line"/>
      <point x="66" y="0" type="line"/>
      <point x="794" y="0" type="line"/>
      <point x="794" y="700" type="line"/>
      <point x="662" y="700" type="line"/>
      <point x="662" y="120" type="line"/>
      <point x="496" y="120" type="line"/>
      <point x="496" y="700" type="line"/>
      <point x="364" y="700" type="line"/>
      <point x="364" y="120" type="line"/>
      <point x="198" y="120" type="line"/>
    </contour>
  </outline>
</glyph>
<glyph name="Shchacyr" format="2">
  <advance width="906"/>
  <unicode hex="0429"/>
  <outline>
    <contour>
      <point x="198" y="700" type="line"/>
      <point x="66" y="700" type="line"/>
      <point x="66" y="0" type="line"/>
      <point x="742" y="0" type="line"/>
      <point x="742" y="-128" type="line"/>
      <point x="874" y="-128" type="line"/>
      <point x="874" y="120" type="line"/>
      <point x="794" y="120" type="line"/>
      <point x="794" y="700" type="line"/>
      <point x="662" y="700" type="line"/>
      <point x="662" y="120" type="line"/>
      <point x="496" y="120" type="line"/>
      <point x="496" y="700" type="line"/>
      <point x="364" y="700" type="line"/>
      <point x="364" y="120" type="line"/>
      <point x="198" y="120" type="line"/>
    </contour>
  </outline>
</glyph>
<glyph name="Hardcyr" format="2">
  <advance width="706"/>
  <unicode hex="042A"/>
  <outline>
    <contour>
      <point x="300" y="700" type="line"/>
      <point x="24" y="700" type="line"/>
      <point x="24" y="580" type="line"/>
      <point x="168" y="580" type="line"/>
      <point x="168" y="0" type="line"/>
      <point x="456" y="0" type="line" smooth="yes"/>
      <point x="588" y="0"/>
      <point x="680" y="84"/>
      <point x="680" y="215" type="curve" smooth="yes"/>
      <point x="680" y="229" type="line" smooth="yes"/>
      <point x="680" y="360"/>
      <point x="584" y="444"/>
      <point x="456" y="444" type="curve" smooth="yes"/>
      <point x="300" y="444" type="line"/>
    </contour>
    <contour>
      <point x="300" y="120" type="line"/>
      <point x="300" y="324" type="line"/>
      <point x="443" y="324" type="line" smooth="yes"/>
      <point x="505" y="324"/>
      <point x="548" y="287"/>
      <point x="548" y="227" type="curve" smooth="yes"/>
      <point x="548" y="217" type="line" smooth="yes"/>
      <point x="548" y="157"/>
      <point x="506" y="120"/>
      <point x="443" y="120" type="curve" smooth="yes"/>
    </contour>
  </outline>
</glyph>
<glyph name="Softcyr" format="2">
  <advance width="604"/>
  <unicode hex="042C"/>
  <outline>
    <contour>
      <point x="198" y="700" type="line"/>
      <point x="66" y="700" type="line"/>
      <point x="66" y="0" type="line"/>
      <point x="354" y="0" type="line" smooth="yes"/>
      <point x="486" y="0"/>
      <point x="578" y="84"/>
      <point x="578" y="215" type="curve" smooth="yes"/>
      <point x="578" y="229" type="line" smooth="yes"/>
      <point x="578" y="360"/>
      <point x="482" y="444"/>
      <point x="354" y="444" type="curve" smooth="yes"/>
      <point x="198" y="444" type="line"/>
    </contour>
    <contour>
      <point x="198" y="120" type="line"/>
      <point x="198" y="324" type="line"/>
      <point x="341" y="324" type="line" smooth="yes"/>
      <point x="403" y="324"/>
      <point x="446" y="287"/>
      <point x="446" y="227" type="curve" smooth="yes"/>
      <point x="446" y="217" type="line" smooth="yes"/>
      <point x="446" y="157"/>
      <point x="404" y="120"/>
      <point x="341" y="120" type="curve" smooth="yes"/>
    </contour>
  </outline>
</glyph>
<glyph name="Ereversedcyr" format="2">
  <advance width="644"/>
  <unicode hex="042D"/>
  <outline>
    <component base="C" xScale="-1" xOffset="644"/>
    <contour>
      <point x="524" y="297" type="line"/>
      <point x="228" y="297" type="line"/>
      <point x="228" y="417" type="line"/>
      <point x="524" y="417" type="line"/>
    </contour>
  </outline>
</glyph>
<glyph name="Yucyr" format="2">
  <advance width="968"/>
  <unicode hex="042E"/>
  <outline>
    <contour>
      <point x="198" y="0" type="line"/>
      <point x="198" y="291" type="line"/>
      <point x="398" y="291" type="line"/>
      <point x="398" y="411" type="line"/>
      <point x="198" y="411" type="line"/>
      <point x="198" y="700" type="line"/>
      <point x="66" y="700" type="line"/>
      <point x="66" y="0" type="line"/>
    </contour>
    <contour>
      <point x="630" y="-14" type="curve" smooth="yes"/>
      <point x="806" y="-14"/>
      <point x="918" y="86"/>
      <point x="918" y="266" type="curve" smooth="yes"/>
      <point x="918" y="434" type="line" smooth="yes"/>
      <point x="918" y="614"/>
      <point x="806" y="714"/>
      <point x="630" y="714" type="curve" smooth="yes"/>
      <point x="454" y="714"/>
      <point x="342" y="614"/>
      <point x="342" y="434" type="curve" smooth="yes"/>
      <point x="342" y="266" type="line" smooth="yes"/>
      <point x="342" y="86"/>
      <point x="454" y="-14"/>
    </contour>
    <contour>
      <point x="630" y="104" type="curve" smooth="yes"/>
      <point x="532" y="104"/>
      <point x="474" y="166"/>
      <point x="474" y="262" type="curve" smooth="yes"/>
      <point x="474" y="438" type="line" smooth="yes"/>
      <point x="474" y="534"/>
      <point x="532" y="596"/>
      <point x="630" y="596" type="curve" smooth="yes"/>
      <point x="728" y="596"/>
      <point x="786" y="534"/>
      <point x="786" y="438" type="curve" smooth="yes"/>
      <point x="786" y="262" type="line" smooth="yes"/>
      <point x="786" y="166"/>
      <point x="728" y="104"/>
    </contour>
  </outline>
</glyph>
